<svg id="b43064db-89aa-4a44-99b4-3aa5fcc6dc8b" data-name="39b0023e-2fc7-4f04-bdb5-b2d22eecbd5c" xmlns="http://www.w3.org/2000/svg" xmlns:xlink="http://www.w3.org/1999/xlink" viewBox="0 0 589.05 496.39"><defs><linearGradient id="3da361ec-63fc-42ec-92a5-48c210b294d3" x1="590.7" y1="299.88" x2="233.17" y2="-57.66" gradientTransform="matrix(1, 0, 0, -1, -104.28, 352.87)" gradientUnits="userSpaceOnUse"><stop offset="0" stop-color="#fffce9"/><stop offset="1" stop-color="#e9fff7"/></linearGradient><linearGradient id="ddb614f5-53d6-4404-9cf3-c932ce8efe49" x1="-128.12" y1="179.27" x2="-108.56" y2="179.27" gradientTransform="matrix(-0.81, 0.58, 0.58, 0.81, 289.34, 85.06)" gradientUnits="userSpaceOnUse"><stop offset="0" stop-color="#a2ff94"/><stop offset="1" stop-color="#c1fff7"/></linearGradient><linearGradient id="2ddde7a6-906b-4810-a94c-540ee5e2e7a8" x1="192.8" y1="-13.21" x2="207.65" y2="-13.21" xlink:href="#ddb614f5-53d6-4404-9cf3-c932ce8efe49"/><linearGradient id="1e294826-c502-4ce5-8854-0ffd95b463ee" x1="370.97" y1="17.17" x2="316.58" y2="56.11" gradientTransform="matrix(1, 0, 0, 1, 0, 0)" xlink:href="#ddb614f5-53d6-4404-9cf3-c932ce8efe49"/><linearGradient id="0835c2d9-cef9-452a-b1b0-dfb2c4c0dc59" x1="-107" y1="-7.71" x2="-39.04" y2="-7.71" xlink:href="#ddb614f5-53d6-4404-9cf3-c932ce8efe49"/><linearGradient id="c05a8928-1fc1-4b28-9730-8a24760df78e" x1="-67.65" y1="294.86" x2="-37.65" y2="294.86" xlink:href="#ddb614f5-53d6-4404-9cf3-c932ce8efe49"/><linearGradient id="aabfc053-1482-42f0-a332-16a2324aa1ff" x1="-68.15" y1="294.86" x2="-37.15" y2="294.86" xlink:href="#ddb614f5-53d6-4404-9cf3-c932ce8efe49"/><linearGradient id="55fe0f8e-1a5b-4dc8-9bcd-dc3e8c210580" x1="270.66" y1="-8.74" x2="299.47" y2="-8.74" xlink:href="#ddb614f5-53d6-4404-9cf3-c932ce8efe49"/><linearGradient id="d3668647-a11d-417a-a946-7840dc734883" x1="242.35" y1="-112.77" x2="252.42" y2="-112.77" gradientTransform="matrix(1, 0, 0, -1, -104.28, 352.87)" gradientUnits="userSpaceOnUse"><stop offset="0" stop-color="#55e4ff"/><stop offset="1" stop-color="#c1fff7"/></linearGradient><linearGradient id="30164a92-e903-488e-84b2-d850f25d944d" x1="232.02" y1="-112.62" x2="242.1" y2="-112.62" xlink:href="#d3668647-a11d-417a-a946-7840dc734883"/><linearGradient id="000a9fe5-ac1a-4d6e-98bb-d1a4bbd55569" x1="227.58" y1="-117.21" x2="255.1" y2="-117.21" xlink:href="#d3668647-a11d-417a-a946-7840dc734883"/><linearGradient id="7549e3b6-0383-4e18-b1e9-b1f8b8eb4d44" x1="229.4" y1="-108.34" x2="256.91" y2="-108.34" xlink:href="#d3668647-a11d-417a-a946-7840dc734883"/><linearGradient id="511953a4-f875-4e15-9661-f9de338518c2" x1="597.06" y1="-99.2" x2="620.43" y2="-99.2" gradientTransform="matrix(1, 0, 0, -1, -104.28, 352.87)" gradientUnits="userSpaceOnUse"><stop offset="0" stop-color="#ff6d94"/><stop offset="1" stop-color="#ffcf3f"/></linearGradient><linearGradient id="3473321c-52a4-4645-b0a8-09e847e16627" x1="594.57" y1="-99.24" x2="622.91" y2="-99.24" xlink:href="#511953a4-f875-4e15-9661-f9de338518c2"/><linearGradient id="3df51deb-4d61-4933-8b9a-a8ae5e5bbb9e" x1="503.14" y1="-43.42" x2="536.18" y2="-10.38" xlink:href="#d3668647-a11d-417a-a946-7840dc734883"/><linearGradient id="26c80596-fa7c-463a-a774-95b1222fbdb0" x1="122.65" y1="-21.16" x2="174.31" y2="-21.16" gradientTransform="matrix(1, 0, 0, -1, -104.28, 352.87)" gradientUnits="userSpaceOnUse"><stop offset="0" stop-color="#ffff94"/><stop offset="1" stop-color="#ffcf3f"/></linearGradient><linearGradient id="7decdb32-d6ba-4218-a27a-215921f1b926" x1="198.56" y1="1.5" x2="224.92" y2="-44.14" xlink:href="#511953a4-f875-4e15-9661-f9de338518c2"/><linearGradient id="2e0459c1-4fbd-4e5c-99cd-980ab55a96ef" x1="315.74" y1="-21.95" x2="339.27" y2="-62.71" gradientTransform="matrix(1, 0, 0, -1, -104.28, 352.87)" gradientUnits="userSpaceOnUse"><stop offset="0" stop-color="#ffbff1"/><stop offset="1" stop-color="#ffb3aa"/></linearGradient><linearGradient id="62484711-932a-43fd-858b-844c1b427d67" x1="456.41" y1="-36.94" x2="429.91" y2="-82.84" xlink:href="#26c80596-fa7c-463a-a774-95b1222fbdb0"/><linearGradient id="ddafe54d-6bce-4235-b97c-1a7df9478bb6" x1="381.62" y1="-64.32" x2="400.68" y2="-64.32" gradientTransform="matrix(1, 0, 0, -1, -104.28, 352.87)" xlink:href="#ddb614f5-53d6-4404-9cf3-c932ce8efe49"/><linearGradient id="de304524-ccdb-4626-8ffb-35e45cf2258e" x1="394.33" y1="-54.31" x2="407.43" y2="-54.31" gradientTransform="matrix(1, 0, 0, -1, -104.28, 352.87)" xlink:href="#ddb614f5-53d6-4404-9cf3-c932ce8efe49"/><linearGradient id="996e15d7-9036-4dbf-9e14-6ac085f9a870" x1="384.27" y1="-61.67" x2="407.43" y2="-61.67" gradientTransform="matrix(1, 0, 0, -1, -104.28, 352.87)" xlink:href="#ddb614f5-53d6-4404-9cf3-c932ce8efe49"/></defs><title>hearts</title><path d="M563.46,156.15c51.36,107.07,33.48,224.17-128.32,230.72-169.08,6.9-225.68,13-302.42-13-399-135,238-619.42,430.74-217.72" transform="translate(0 -0.01)" style="fill:url(#3da361ec-63fc-42ec-92a5-48c210b294d3)"/><path d="M201.94,72.55l7-23.06L225.4,67ZM199.4,75.2h0a1.22,1.22,0,0,0,1,.21L228,68.87a1.23,1.23,0,0,0,.62-2l-19.36-20.6a1.23,1.23,0,0,0-2.06.49L199,73.87a1.23,1.23,0,0,0,.41,1.33h0Z" transform="translate(0 -0.01)" style="fill:#c7f9ec"/><path d="M196,145.87a13.64,13.64,0,1,1,3.12-19l0,0A13.63,13.63,0,0,1,196,145.87Zm0.79,1.11a15,15,0,1,0-20.93-3.46A15,15,0,0,0,196.75,147Z" transform="translate(0 -0.01)" style="fill:#92f7df;stroke:#92f7df;stroke-miterlimit:10"/><path d="M492.4,170.6a1.45,1.45,0,0,0,1.78-2l-3.08-6.27,6.27-3.08a1.45,1.45,0,1,0-1.28-2.61h0l-6.27,3.08-3.1-6.29a1.45,1.45,0,1,0-2.61,1.28l3.08,6.27-6.27,3.08a1.45,1.45,0,0,0,1.28,2.61l6.27-3.08,3.08,6.27A1.45,1.45,0,0,0,492.4,170.6Z" transform="translate(0 -0.01)" style="fill:url(#ddb614f5-53d6-4404-9cf3-c932ce8efe49)"/><path d="M127.65,193.78a1.45,1.45,0,0,0-.61-2.62L120.15,190l1.14-6.89a1.45,1.45,0,0,0-2.87-.47h0l-1.14,6.89-6.89-1.14a1.45,1.45,0,0,0-.47,2.87l6.89,1.14-1.14,6.89a1.45,1.45,0,0,0,2.87.47l1.18-6.91,6.89,1.14A1.45,1.45,0,0,0,127.65,193.78Z" transform="translate(0 -0.01)" style="fill:url(#2ddde7a6-906b-4810-a94c-540ee5e2e7a8)"/><path d="M410,149.33l15.53,39.45a1.73,1.73,0,1,0,3.22-1.27l-15.52-39.44C412.46,146,409.23,147.3,410,149.33Z" transform="translate(0 -0.01)" style="fill:#caede5"/><path d="M177,353c-2.44-2.84-.22-7,1.91-11.07,1.87-3.58,3.8-7.21,2.07-9.23s-5.62-.67-9.44.63c-4.31,1.5-8.8,3-11.24.2s-0.22-7,1.91-11.07c1.87-3.58,3.8-7.21,2.06-9.23s-5.62-.67-9.44.63c-4.31,1.5-8.8,3-11.24.2s-0.22-7,1.91-11.07c1.87-3.58,3.8-7.21,2.07-9.23a0.83,0.83,0,1,1,1.23-1.11l0,0c2.44,2.84.23,7-1.91,11.07-1.87,3.58-3.8,7.21-2.07,9.23s5.62,0.67,9.44-.63c4.31-1.5,8.8-3,11.23-.2s0.23,7-1.91,11.07c-1.87,3.58-3.8,7.21-2.07,9.23s5.62,0.67,9.44-.63c4.31-1.5,8.8-3,11.24-.2s0.23,7-1.91,11.07c-1.87,3.58-3.8,7.21-2.07,9.23A0.83,0.83,0,0,1,177,353Z" transform="translate(0 -0.01)" style="fill:#92f7df;stroke:#92f7df;stroke-miterlimit:10"/><path d="M374,22.51c-2.84,2.44-7,.23-11.07-1.91-3.58-1.87-7.21-3.8-9.23-2.06S353,24.16,354.3,28c1.5,4.31,3,8.8.21,11.24s-7,.23-11.07-1.91c-3.58-1.87-7.21-3.8-9.23-2.06s-0.67,5.62.63,9.44c1.5,4.31,3,8.8.2,11.24S328,56.16,324,54c-3.58-1.87-7.21-3.8-9.23-2.06a0.83,0.83,0,1,1-1.11-1.23l0,0c2.84-2.44,7-.23,11.07,1.91,3.58,1.87,7.21,3.8,9.23,2.06s0.67-5.62-.63-9.44c-1.5-4.31-3-8.79-.2-11.23s7-.23,11.07,1.91c3.58,1.87,7.21,3.8,9.23,2.06s0.67-5.62-.64-9.44c-1.5-4.31-3-8.8-.2-11.24s7-.23,11.07,1.91c3.58,1.87,7.21,3.8,9.23,2.06A0.83,0.83,0,0,1,374,22.51Z" transform="translate(0 -0.01)" style="stroke-miterlimit:10;fill:url(#1e294826-c502-4ce5-8854-0ffd95b463ee);stroke:url(#0835c2d9-cef9-452a-b1b0-dfb2c4c0dc59)"/><path d="M510.72,304.61a13.64,13.64,0,1,1,3.12-19l0,0A13.63,13.63,0,0,1,510.72,304.61Zm0.79,1.11a15,15,0,1,0-20.93-3.46,15,15,0,0,0,20.93,3.46l0,0h0Z" transform="translate(0 -0.01)" style="stroke-miterlimit:10;fill:url(#c05a8928-1fc1-4b28-9730-8a24760df78e);stroke:url(#aabfc053-1482-42f0-a332-16a2324aa1ff)"/><path d="M49.64,260.87L38.72,239.35l24,1.28Zm0,3.67h0a1.22,1.22,0,0,0,.9-0.57l15.41-23.76a1.23,1.23,0,0,0-1-1.9l-28.2-1.51a1.23,1.23,0,0,0-1.15,1.78l12.82,25.29a1.23,1.23,0,0,0,1.21.65v0Z" transform="translate(0 -0.01)" style="fill:url(#55fe0f8e-1a5b-4dc8-9bcd-dc3e8c210580)"/><path d="M365.06,272.81V184.73c0-37-36-64.14-63.17-64.14s-63.17,27.1-63.17,64.14v88.08H365.06Z" transform="translate(0 -0.01)" style="fill:#393c3f"/><path d="M251.3,195.69A44.34,44.34,0,0,0,269.14,180a42.36,42.36,0,0,0,4.62-9.83,61.86,61.86,0,0,1,14.46-31,53.46,53.46,0,0,1,19.65-13.92c2.69-1.11,8.3-.09,10.2-2.08a55.44,55.44,0,0,0-49.35,8.49,65.69,65.69,0,0,0-28,38.47c-1.28,3-1.89,5.74-1.83,12.46-1,20.14-1.29,32.44-.75,42l0.49,48,37,0,2.29-2.16-18-16.23-8.15-24.58Z" transform="translate(0 -0.01)" style="fill:#4b4d4f"/><path d="M238.72,272.61h3.78c2.21,0,.75-45.88,1.71-78.87,0.53-18.23,2.74-28.26,6-34.49a95.19,95.19,0,0,1,10.63-15c10.62-12.52,27.8-20.82,43.81-20.82,1.49,0,1.47-1.66-2.16-2.13a71.67,71.67,0,0,0-9.41-.28c-28.41,4.71-50.41,28.52-54.18,58.49-0.2,26-.28,81.87-0.23,93.1" transform="translate(0 -0.01)" style="fill:#696b6d"/><path d="M351.94,198.73v28.43c0,29.35-28.55,50.83-50,50.83s-50-21.47-50-50.83V195.69c0.36-.21,2.47-4.69,4.7-5.22,2-.47,1.64-1,4.71-1.55,6.36-1.15,22.58,5.26,31.57,4,9.44-1.3,15-6.94,21.79-9.55a64,64,0,0,1,19-4c7.06,11.14,18.29,19.29,18.29,19.29" transform="translate(0 -0.01)" style="fill:#fbe3d5"/><path d="M261.2,189.43c0,2.91-.92,5.68-0.71,17.21,0.72,40.15-2.89,38,11.29,58.8,2.77,4.06-8.59-5-10.92-9.45-3-5.74-6.79-14.1-7.6-21.56-1.43-13.22-.71-23.87-0.71-37.44,0.72,0-.12-3,1.62-4.85,2.23-2.34,7-3.54,7-2.71" transform="translate(0 -0.01)" style="fill:#ffecde"/><path d="M266.88,190.49c0,2.06,6.16,3.85,13.64,5,8.45,1.27,16.8,2.54,25.12.41,10.08-2.62,19.08-13.94,30.08-9.59,3.63,1.44-1-3.84-1.41-6.59-0.24-1.53-21.08,1.1-25.84,7.44-4.6,6.12-16.67,8-23.76,7.12-3.43-.44-14.64-1.65-17.24-2.77-0.63-.27-0.6.62-0.57-1" transform="translate(0 -0.01)" style="fill:#d5b6a5"/><path d="M240.58,225.07a1.85,1.85,0,1,1-3.71,0h0V184.73h0c0-19.1,9.26-35.6,22-47.32s29-18.67,43-18.67h0c14,0,30.28,7,43,18.67s22,28.23,22,47.32h0v40.34a1.85,1.85,0,1,1-3.71,0h0V184.73h0c0-18-8.76-33.51-20.81-44.6S315,122.44,301.84,122.44h0c-13.13,0-28.44,6.59-40.51,17.69s-20.81,26.65-20.81,44.6h0v40.34h0.06Z" transform="translate(0 -0.01)" style="fill:#414141"/><path d="M332,180.27a1.85,1.85,0,0,1,3.3-1.67,44.31,44.31,0,0,0,21.11,20.34,1.85,1.85,0,0,1-1.53,3.36,48,48,0,0,1-22.88-22" transform="translate(0 -0.01)" style="fill:#414141"/><path d="M272,216.87a1.85,1.85,0,0,1-3.69.13,7.64,7.64,0,0,1,1.09-4.2,8.32,8.32,0,0,1,3.19-3,9.09,9.09,0,0,1,8.66,0,8.32,8.32,0,0,1,3.19,3,7.64,7.64,0,0,1,1.09,4.2,1.85,1.85,0,0,1-3.69-.13,4,4,0,0,0-.57-2.17,4.64,4.64,0,0,0-1.78-1.68,5.5,5.5,0,0,0-5.12,0,4.64,4.64,0,0,0-1.78,1.68,4,4,0,0,0-.57,2.17" transform="translate(0 -0.01)" style="fill:#414141"/><path d="M321.92,216.87a1.85,1.85,0,0,1-3.69.13,7.64,7.64,0,0,1,1.09-4.2,8.32,8.32,0,0,1,3.19-3,9.09,9.09,0,0,1,8.66,0,8.32,8.32,0,0,1,3.19,3,7.64,7.64,0,0,1,1.09,4.2,1.87,1.87,0,1,1-3.73-.13,4,4,0,0,0-.57-2.17,4.64,4.64,0,0,0-1.78-1.68,5.5,5.5,0,0,0-5.12,0,4.64,4.64,0,0,0-1.78,1.68,4,4,0,0,0-.57,2.17" transform="translate(0 -0.01)" style="fill:#414141"/><path d="M237.19,370.93H365.25V341.76c-1-18-9.18-34.11-26.3-42.38-2.13,0-6.09-3.22-8.1-3.22-27.63,0-40.21-.42-60.5,0-1.66,0-5.1,3.22-6.86,3.22-6.34,3.27-11.51,8.2-17.79,15.94-5.65,7.38-7.69,16.19-8.51,26.44v29.17" transform="translate(0 -0.01)" style="fill:#ffea8f"/><path d="M269.49,296.54c1.25-.18,4.81,3.64,8.93,6.46,4.55,3.11,9.54,5.24,7.45,4.88-13.56-2.27-11.57,56.25-12.69,62.87,0,0-28,.17-31.94.17,0,0-4.46-.12-4.46-1,0-11.51-.84-36,2.28-44.89,2.75-7.84,18.16-26.77,30.42-28.51" transform="translate(0 -0.01)" style="fill:#fff3bf"/><path d="M255.65,304.87c2.28-4.76,16.14-9.79,9.12-3.92-4.11,3.43-10.56,9.3-15,15.51-2.83,3.93-6.88,12.9-7.26,17.74-0.9,11.49-.58,24.1-0.67,34.84,0,4.08-3.14,5.13-4.3,2.68-0.57-1.2-.13-3.79,0-5.85,0-.91-0.8-8.35-0.8-11.23,0-6,.44-8.12,1-13.72,0.9-9.29.16-7.79,3.48-16.81,2.24-6.09,5.33-8.64,8.75-13.31,1.28-1.75,5.61-5.59,5.77-5.92" transform="translate(0 -0.01)" style="fill:#fff"/><path d="M270.35,296.17c11.66,11.26,25.3,13.08,29.43,14.19,3.54,1,22-3.88,31.07-14.58,0,0-8-1.61-13.13-7-3.26-3.51-.88-3.64-0.92-13.74-9.76,5.9-20.44,5.76-30.2-.14,0,6,1.34,9-1,12.55-5.37,8-15.25,8.78-15.25,8.78" transform="translate(0 -0.01)" style="fill:#fbe3d5"/><path d="M287.82,275.56c-2-2.27-1.9,1.25-1.9,4.54,0,5.77,14.44,5.81,17.2,5.76,7-.13,13.36-1.54,13.36-4.72,0-4.07,2.07-8.27-3.47-5-3.46,2-14,1.58-18.12,1-1.07-.15-7.19-1.7-7.08-1.56" transform="translate(0 -0.01)" style="fill:#d5b6a5"/><path d="M285.1,276a1.85,1.85,0,0,1,3.71,0v7.74c0,6.55-9.46,10.57-17.22,13.87-1.94.83-3.77,1.6-5.24,2.33a53,53,0,0,0-9.11,5.72,61.17,61.17,0,0,0-9.08,8.79,40.77,40.77,0,0,0-6.25,10.92,46.91,46.91,0,0,0-2.86,12.86v32.65a1.85,1.85,0,0,1-3.71,0V338.22h0v-0.15a50.63,50.63,0,0,1,3.1-14,44.44,44.44,0,0,1,6.82-11.92h0a64.85,64.85,0,0,1,9.66-9.34,56.76,56.76,0,0,1,9.75-6.13c1.57-.78,3.44-1.57,5.43-2.42,6.74-2.86,15-6.36,15-10.46v-7.74h0Z" transform="translate(0 -0.01)" style="fill:#414141"/><path d="M270,227.87a7.37,7.37,0,1,1-7.37,7.37h0a7.37,7.37,0,0,1,7.37-7.37" transform="translate(0 -0.01)" style="fill:#ffd1c4"/><path d="M333.34,227.87a7.37,7.37,0,1,1-7.37,7.37h0a7.37,7.37,0,0,1,7.37-7.37" transform="translate(0 -0.01)" style="fill:#ffd1c4"/><path d="M350.09,198.73a1.85,1.85,0,0,1,3.71,0v28.43h0c0,15.25-7.39,28.42-17.56,37.78s-23.16,14.93-34.35,14.93h0c-11.19,0-24.18-5.55-34.34-14.9S250,242.44,250,227.19h0v-29a1.85,1.85,0,0,1,3.71,0v29h0c0,14.1,6.89,26.34,16.37,35.06s21.53,13.91,31.84,13.91h0c10.31,0,22.35-5.19,31.84-13.91s16.36-21,16.36-35.06h0V198.73h0Z" transform="translate(0 -0.01)" style="fill:#414141"/><path d="M313.33,276a1.85,1.85,0,0,1,3.71,0v7.74c0,4.11,8.22,7.6,15,10.46,2,0.84,3.86,1.64,5.43,2.42a56.76,56.76,0,0,1,9.75,6.13,64.8,64.8,0,0,1,9.66,9.34l0.12,0.15a44.45,44.45,0,0,1,6.72,11.81,50.63,50.63,0,0,1,3.1,14v0.15h0V371a1.85,1.85,0,0,1-3.71,0V338.28a46.91,46.91,0,0,0-2.86-12.86,40.75,40.75,0,0,0-6.17-10.83l0-.06a61.17,61.17,0,0,0-9.11-8.82,53,53,0,0,0-9.11-5.72c-1.47-.73-3.3-1.51-5.24-2.33-7.76-3.3-17.22-7.32-17.22-13.87v-7.74h0Z" transform="translate(0 -0.01)" style="fill:#414141"/><path d="M337.38,342.55a1.85,1.85,0,0,1,3.71,0v28.38a1.85,1.85,0,0,1-3.71,0V342.55Z" transform="translate(0 -0.01)" style="fill:#414141"/><path d="M333.65,177.58a1.85,1.85,0,0,1,0,3.71c-13.22,0-18.33,3.55-23.22,6.94-7.6,5.27-14.68,10.18-45,3.23a14.33,14.33,0,0,0-3.19-.36,10.63,10.63,0,0,0-5.52,1.37,6.07,6.07,0,0,0-2.86,3.9,7.83,7.83,0,0,0-.18,1.75,1.85,1.85,0,0,1-3.71,0,11.48,11.48,0,0,1,.29-2.57,9.67,9.67,0,0,1,4.54-6.23,14.32,14.32,0,0,1,7.41-1.92,18,18,0,0,1,4,.46c28.76,6.59,35.19,2.13,42.1-2.66,5.35-3.71,11-7.61,25.32-7.61" transform="translate(0 -0.01)" style="fill:#414141"/><path d="M282,243c0.14,13.28,10.35,19.42,19.72,19.42,9.71,0,19.92-6,20.06-19.42H282Z" transform="translate(0 -0.01)" style="fill:#fff"/><path d="M288.51,260a20.53,20.53,0,0,1-7.67-11.09,8.8,8.8,0,0,1-.37-2.4,4.72,4.72,0,0,1,.93-3h0a4.69,4.69,0,0,1,2.52-1.6,8.36,8.36,0,0,1,2.29-.29h31.36a5.79,5.79,0,0,1,4.57,1.65c1.08,1.22,1.47,3.06.75,5.8a19.24,19.24,0,0,1-7.58,11,23.64,23.64,0,0,1-13.6,4.19,22.48,22.48,0,0,1-13.21-4.27m-4.09-12.08A16.87,16.87,0,0,0,290.7,257a18.75,18.75,0,0,0,11,3.55A19.91,19.91,0,0,0,313.16,257a15.59,15.59,0,0,0,6.14-8.91c0.36-1.38.34-2.11,0.06-2.42a2.7,2.7,0,0,0-1.81-.39H286.21a4.77,4.77,0,0,0-1.28.14,1.17,1.17,0,0,0-.59.32h0a1.2,1.2,0,0,0-.16.71A5.16,5.16,0,0,0,284.41,247.87Z" transform="translate(0 -0.01)" style="fill:#414141"/><path d="M301.87,253.87c4.91,0,8.89,1.92,8.89,4.28s-4,4.28-8.89,4.28-8.89-1.92-8.89-4.28,4-4.28,8.89-4.28" transform="translate(0 -0.01)" style="fill:#f9a0a0"/><path d="M307.36,256.74a14.69,14.69,0,0,0-11,0c-1,.46-1.55,1-1.55,1.36s0.59,0.9,1.55,1.36a14.69,14.69,0,0,0,11,0c1-.46,1.55-1,1.55-1.36s-0.59-.9-1.55-1.36M301.87,252a16.76,16.76,0,0,1,7.08,1.44c2.26,1.09,3.66,2.74,3.66,4.69s-1.4,3.6-3.66,4.69a18.13,18.13,0,0,1-14.17,0c-2.26-1.09-3.66-2.74-3.66-4.69s1.4-3.6,3.66-4.69a16.76,16.76,0,0,1,7.09-1.44h0Z" transform="translate(0 -0.01)" style="fill:#414141"/><path d="M269,297.41a1.85,1.85,0,0,1,2.74-2.49h0a39.06,39.06,0,0,0,55.18,2.58q1.35-1.23,2.58-2.58a1.85,1.85,0,0,1,2.74,2.49h0a42.76,42.76,0,0,1-60.41,2.83q-1.48-1.35-2.83-2.83" transform="translate(0 -0.01)" style="fill:#414141"/><path d="M363.2,224a1.85,1.85,0,0,1,3.71,0v48.83a1.85,1.85,0,0,1-1.85,1.85H322.92a1.85,1.85,0,0,1,0-3.71h40.29V224Z" transform="translate(0 -0.01)" style="fill:#414141"/><path d="M236.86,224.65a1.85,1.85,0,1,1,3.71,0v46.12l41.26,0.1a1.85,1.85,0,0,1,.27,3.69h-0.27l-43-.06h-0.11a1.85,1.85,0,0,1-1.85-1.85h0v-48h0Z" transform="translate(0 -0.01)" style="fill:#414141"/><path d="M260.4,339.27a1.85,1.85,0,0,1,3.71,0V368a1.85,1.85,0,0,1-3.71,0V339.27Z" transform="translate(0 -0.01)" style="fill:#414141"/><path d="M186.23,356.6a15,15,0,0,0-15,15V415a15,15,0,0,0,15,15H187a2.77,2.77,0,0,1,2.77,2.77h0v9.68a5.39,5.39,0,0,0,.36,2.15,1.64,1.64,0,0,0,.65.78h0a2.25,2.25,0,0,0,2.61-.26l0.15-.12,17-14.33a2.74,2.74,0,0,1,1.77-.65H259.9a15,15,0,0,0,15-15h0V371.56a15,15,0,0,0-15-15H186.23M274.42,357a20.43,20.43,0,0,1,6,14.47v43.43a20.55,20.55,0,0,1-20.49,20.49H213.34L197.09,449.1l-0.06.06a7.77,7.77,0,0,1-9,.89h0a7,7,0,0,1-2.93-3.28,10.74,10.74,0,0,1-.86-4.42v-7A20.55,20.55,0,0,1,165.72,415V371.56a20.55,20.55,0,0,1,20.49-20.49h73.72a20.43,20.43,0,0,1,14.49,6v0Z" transform="translate(0 -0.01)" style="fill:#c6f7ea"/><path d="M260,353.87H186.23a17.78,17.78,0,0,0-17.72,17.73V415a17.78,17.78,0,0,0,17.72,17.72H187v9.68c0,2.09.55,4.24,2.41,5.31a5,5,0,0,0,5.81-.57l17.14-14.42H260A17.78,17.78,0,0,0,277.72,415V371.56A17.78,17.78,0,0,0,260,353.87" transform="translate(0 -0.01)" style="fill:#fff"/><path d="M131.34,337.53H20a15.07,15.07,0,0,0-15,15v42.91a15.07,15.07,0,0,0,15,15h85.53a2.47,2.47,0,0,1,1.6.58L124,425.19l0.13,0.11a2.46,2.46,0,0,0,2.85.28,1.86,1.86,0,0,0,.75-0.87,5.55,5.55,0,0,0,.38-2.22V413a2.49,2.49,0,0,1,2.49-2.49h0.76a15.07,15.07,0,0,0,15-15V352.55a15.07,15.07,0,0,0-15-15M20,332.55H131.34a20.06,20.06,0,0,1,20,20v42.91a20.07,20.07,0,0,1-18.27,19.93v7.14a10.38,10.38,0,0,1-.83,4.27,6.72,6.72,0,0,1-2.8,3.13,7.43,7.43,0,0,1-8.62-.85l-0.06,0-16.13-13.57H20a20.06,20.06,0,0,1-20-20V352.55a20.06,20.06,0,0,1,20-20h0Z" transform="translate(0 -0.01)" style="fill:#c6f7ea"/><path d="M47.49,335h83.86a17.56,17.56,0,0,1,17.51,17.51v42.91A17.56,17.56,0,0,1,131.35,413h-0.76v9.56c0,2.06-.54,4.19-2.38,5.25a5,5,0,0,1-5.74-.57L105.54,413H47.49A17.56,17.56,0,0,1,30,395.46V352.55A17.56,17.56,0,0,1,47.49,335" transform="translate(0 -0.01)" style="fill:#fff"/><path d="M20.09,335H104a17.56,17.56,0,0,1,17.51,17.51v42.91A17.56,17.56,0,0,1,104,413H20.09A17.56,17.56,0,0,1,2.58,395.46V352.55A17.56,17.56,0,0,1,20.09,335" transform="translate(0 -0.01)" style="fill:#fff"/><path d="M528.65,431.78H480.28a7.64,7.64,0,0,0-7.61,7.61v24.75a7.58,7.58,0,0,0,2.23,5.37h0a7.58,7.58,0,0,0,5.37,2.23h33.45a2.47,2.47,0,0,1,1.6.58l9.67,8.14,0.13,0.11a0.36,0.36,0,0,0,.18.09h0a0.37,0.37,0,0,0,.22,0h0a2.24,2.24,0,0,0,.12-0.85v-5.52a2.49,2.49,0,0,1,2.49-2.49h0.44a7.64,7.64,0,0,0,7.61-7.61v-24.8a7.64,7.64,0,0,0-7.61-7.61m-48.38-5h48.38a12.63,12.63,0,0,1,12.6,12.6v24.75a12.64,12.64,0,0,1-10.45,12.44v3.19a7,7,0,0,1-.57,2.9,4.91,4.91,0,0,1-2,2.29,5.34,5.34,0,0,1-3.2.69h-0.08a5.34,5.34,0,0,1-2.91-1.29l-0.06,0-9-7.54H480.3a12.56,12.56,0,0,1-8.89-3.7h0a12.56,12.56,0,0,1-3.69-8.88V439.39a12.63,12.63,0,0,1,12.56-12.59Z" transform="translate(0 -0.01)" style="fill:#c6f7ea"/><path d="M480.28,429.29h48.38a10.13,10.13,0,0,1,10.1,10.1v24.75a10.13,10.13,0,0,1-10.1,10.1h-0.44v5.52a3.29,3.29,0,0,1-1.37,3,2.85,2.85,0,0,1-3.31-.33l-9.82-8.18H480.28a10.13,10.13,0,0,1-10.1-10.1V439.39a10.13,10.13,0,0,1,10.1-10.1" transform="translate(0 -0.01)" style="fill:#fff"/><path d="M119.64,441.32h36.42a11.9,11.9,0,0,1,11.87,11.87v23a11.92,11.92,0,0,1-11.87,11.87h-21.7l-8.27,7-0.06,0a5.14,5.14,0,0,1-6,.59,4.74,4.74,0,0,1-2-2.2,6.7,6.7,0,0,1-.55-2.76v-2.87a11.91,11.91,0,0,1-9.79-11.69v-23a11.9,11.9,0,0,1,11.87-11.87m36.42,5H119.64a6.91,6.91,0,0,0-6.89,6.89v23a6.91,6.91,0,0,0,6.89,6.89h0.41a2.49,2.49,0,0,1,2.49,2.49v5.12a2.08,2.08,0,0,0,.08.68h0a0.17,0.17,0,0,0,.1,0l0.13-.11,9-7.55a2.47,2.47,0,0,1,1.6-.58h22.6a6.9,6.9,0,0,0,6.89-6.89v-23a6.91,6.91,0,0,0-6.87-6.94H156Z" transform="translate(0 -0.01)" style="fill:#c6f7ea"/><path d="M155.56,443.82H119.64a9.41,9.41,0,0,0-9.38,9.38v23a9.41,9.41,0,0,0,9.38,9.38h0.41v5.12a3.05,3.05,0,0,0,1.27,2.81,2.65,2.65,0,0,0,3.07-.3l9.07-7.63h22.1a9.41,9.41,0,0,0,9.38-9.38v-23a9.41,9.41,0,0,0-9.38-9.38" transform="translate(0 -0.01)" style="fill:#fff"/><path d="M143.25,455.24a2.49,2.49,0,1,1,4.81,1.25L143,476a2.49,2.49,0,1,1-4.81-1.25Z" transform="translate(0 -0.01)" style="fill:url(#d3668647-a11d-417a-a946-7840dc734883)"/><path d="M132.93,455.24a2.49,2.49,0,1,1,4.81,1.25L132.64,476a2.49,2.49,0,0,1-4.81-1.25Z" transform="translate(0 -0.01)" style="fill:url(#30164a92-e903-488e-84b2-d850f25d944d)"/><path d="M148.35,467.58a2.5,2.5,0,1,1,0,5H125.8a2.5,2.5,0,1,1,0-5h22.55Z" transform="translate(0 -0.01)" style="fill:url(#000a9fe5-ac1a-4d6e-98bb-d1a4bbd55569)"/><path d="M150.17,458.71a2.5,2.5,0,1,1,0,5H127.62a2.5,2.5,0,1,1,0-5h22.55Z" transform="translate(0 -0.01)" style="fill:url(#7549e3b6-0383-4e18-b1e9-b1f8b8eb4d44)"/><path d="M504.63,462.62L495,453.28a6.73,6.73,0,1,1,9.5-9.5,6.73,6.73,0,1,1,9.5,9.5Z" transform="translate(0 -0.01)" style="fill:url(#511953a4-f875-4e15-9661-f9de338518c2)"/><path d="M496.72,451.48l7.91,7.64,7.61-7.61h0l0.07-.07a4.25,4.25,0,0,0,.24-6l-0.11-.1a4.23,4.23,0,0,0-6,0l-0.13.13-0.15.15a2.49,2.49,0,0,1-3.52-.15h0a4.23,4.23,0,0,0-6-.27l-0.14.14h0a4.26,4.26,0,0,0,.14,6.12h0Zm6,12.8-9.49-9.17h0a9.21,9.21,0,0,1-.56-13l0.28-.29h0a9.22,9.22,0,0,1,11.47-1.25,9.22,9.22,0,0,1,11.47,1.25L516,442a9.21,9.21,0,0,1-.31,13l-0.05,0h0l-9.34,9.34a2.49,2.49,0,0,1-3.52,0h0Z" transform="translate(0 -0.01)" style="fill:url(#3473321c-52a4-4645-b0a8-09e847e16627)"/><path d="M446.36,346.28H379.91a13.53,13.53,0,0,0-13.49,13.49v39.16a13.53,13.53,0,0,0,13.49,13.49h42.91a2.47,2.47,0,0,1,1.6.58l15.3,12.93,0.13,0.11a2,2,0,0,0,2.35.23h0a1.48,1.48,0,0,0,.59-0.7,4.86,4.86,0,0,0,.33-1.94v-8.76a2.49,2.49,0,0,1,2.49-2.49h0.69a13.53,13.53,0,0,0,13.49-13.49V359.77a13.53,13.53,0,0,0-13.49-13.49m-66.46-5H446.3a18.52,18.52,0,0,1,18.47,18.47v39.16a18.53,18.53,0,0,1-16.67,18.38v6.32a9.68,9.68,0,0,1-.78,4,6.35,6.35,0,0,1-2.64,3h0a7,7,0,0,1-8.12-.8l-0.06,0L421.92,417.4h-42a18.52,18.52,0,0,1-18.47-18.47V359.77a18.52,18.52,0,0,1,18.46-18.47Z" transform="translate(0 -0.01)" style="fill:#c6f7ea"/><path d="M379.91,343.79h66.46a16,16,0,0,1,16,16V399a16,16,0,0,1-16,16h-0.65v8.72c0,1.88-.5,3.82-2.17,4.79a4.51,4.51,0,0,1-5.24-.52l-15.45-13h-43a16,16,0,0,1-16-16V359.77a16,16,0,0,1,16-16" transform="translate(0 -0.01)" style="fill:#fff"/><path d="M394.72,369c4.83-9.6,16-14,25.52-12.25,13,2.4,18.6,15.18,17.53,26a22,22,0,0,1-22.46,20.41,23.45,23.45,0,0,1-20.6-34.2" transform="translate(0 -0.01)" style="fill:url(#3df51deb-4d61-4933-8b9a-a8ae5e5bbb9e)"/><path d="M403,372.67a3.44,3.44,0,0,1,3.65-1.75,3.3,3.3,0,0,1,2.51,3.72,3.14,3.14,0,0,1-3.21,2.92,3.35,3.35,0,0,1-2.94-4.89" transform="translate(0 -0.01)" style="fill:#fff"/><path d="M421.25,372.67a3.44,3.44,0,0,1,3.65-1.75,3.3,3.3,0,0,1,2.51,3.72,3.14,3.14,0,0,1-3.21,2.92,3.35,3.35,0,0,1-2.94-4.89" transform="translate(0 -0.01)" style="fill:#fff"/><path d="M406.21,386.7h17.84a9.29,9.29,0,0,1-17.84,0" transform="translate(0 -0.01)" style="fill:#fff"/><path d="M421.24,388.48H409a7.52,7.52,0,0,0,12.23,0m-15-3.56h17.84a1.78,1.78,0,0,1,1.66,2.44,11.06,11.06,0,0,1-21.2-.17,1.78,1.78,0,0,1,1.7-2.27h0Z" transform="translate(0 -0.01)" style="fill:#fff"/><path d="M21.31,361.87c5.44-10.83,18-15.8,28.79-13.82,14.69,2.7,21,17.12,19.78,29.38-1.47,15-13.51,23.17-25.34,23a26.45,26.45,0,0,1-23.23-38.56" transform="translate(0 -0.01)" style="fill:url(#26c80596-fa7c-463a-a774-95b1222fbdb0)"/><path d="M30.63,365.95a3.88,3.88,0,0,1,4.12-2,3.72,3.72,0,0,1,2.83,4.2A3.55,3.55,0,0,1,34,371.44a3.78,3.78,0,0,1-3.32-5.51" transform="translate(0 -0.01)" style="fill:#414141"/><path d="M51.24,365.95a3.88,3.88,0,0,1,4.12-2,3.72,3.72,0,0,1,2.83,4.2,3.55,3.55,0,0,1-3.62,3.29,3.78,3.78,0,0,1-3.32-5.51" transform="translate(0 -0.01)" style="fill:#414141"/><path d="M84.25,361.87c5.44-10.83,18-15.8,28.79-13.82,14.69,2.7,21,17.12,19.78,29.38-1.47,15-13.51,23.17-25.34,23a26.45,26.45,0,0,1-23.23-38.56" transform="translate(0 -0.01)" style="fill:url(#7decdb32-d6ba-4218-a27a-215921f1b926)"/><path d="M93.57,365.95a3.88,3.88,0,0,1,4.12-2,3.72,3.72,0,0,1,2.83,4.2,3.55,3.55,0,0,1-3.62,3.29,3.78,3.78,0,0,1-3.32-5.51" transform="translate(0 -0.01)" style="fill:#fff"/><path d="M114.17,365.95a3.88,3.88,0,0,1,4.12-2,3.72,3.72,0,0,1,2.83,4.2,3.55,3.55,0,0,1-3.62,3.29,3.78,3.78,0,0,1-3.32-5.51" transform="translate(0 -0.01)" style="fill:#fff"/><path d="M96.94,380.53c0.07,5.7,5.31,8.34,10.11,8.34,5,0,10.21-2.57,10.29-8.34H96.94Z" transform="translate(0 -0.01)" style="fill:#fff"/><path d="M97.27,382.87c1.36,4,5.66,6,9.79,6s8.7-1.93,9.94-5.92c0.55-1.77-.42-2.2-1.81-2.2H99.11c-1.58,0-2.35.63-1.84,2.11" transform="translate(0 -0.01)" style="fill:#fff"/><path d="M38.86,389.87a1.78,1.78,0,1,1,1-3.41l0.26,0.1a10.5,10.5,0,0,0,7.48,0h0a10.49,10.49,0,0,0,5.61-5,1.78,1.78,0,0,1,3.15,1.66,14,14,0,0,1-7.5,6.62h0a14,14,0,0,1-10,0" transform="translate(0 -0.01)" style="fill:#414141"/><path d="M202.51,384.18c4.86-9.66,16.09-14.1,25.7-12.34,13.11,2.41,18.73,15.28,17.66,26.23a22.15,22.15,0,0,1-22.62,20.55,23.61,23.61,0,0,1-20.74-34.44" transform="translate(0 -0.01)" style="fill:url(#2e0459c1-4fbd-4e5c-99cd-980ab55a96ef)"/><path d="M218.86,388.82c0,4.45-6.68,4.45-6.68,0s6.68-4.45,6.68,0" transform="translate(0 -0.01)" style="fill:#fff"/><path d="M235.08,388.82c0,4.45-6.68,4.45-6.68,0s6.68-4.45,6.68,0" transform="translate(0 -0.01)" style="fill:#fff"/><path d="M228.72,399.37h0a21.22,21.22,0,0,1-4.75.69,21,21,0,0,1-4.75-.69c-1.9-.44-3.4-0.77-4.39,0a2.65,2.65,0,0,0-.84,2.23c0,4.07,4.11,6.91,10,6.91s10-2.84,10-6.91a2.65,2.65,0,0,0-.84-2.21C232.09,398.6,230.59,398.94,228.72,399.37Z" transform="translate(0 -0.01)" style="fill:#fff"/><path d="M307.11,401.12a76.85,76.85,0,0,0-25.88,0A75.91,75.91,0,0,0,268,404.66a25.58,25.58,0,0,0-4.18,19h43.31V401.12Z" transform="translate(0 -0.01)" style="fill:#fff"/><path d="M496.72,345.59h50.6a16.54,16.54,0,0,1,16.5,16.5V394a16.57,16.57,0,0,1-16.5,16.5H517.14l-11.49,9.67-0.08.07a7.14,7.14,0,0,1-8.28.81,6.59,6.59,0,0,1-2.74-3.06,9.32,9.32,0,0,1-.76-3.84v-3.91A16.56,16.56,0,0,1,480.19,394V362.09a16.54,16.54,0,0,1,16.5-16.5m50.63,6.93h-50.6a9.61,9.61,0,0,0-9.57,9.57V394a9.61,9.61,0,0,0,9.57,9.57h0.57a3.47,3.47,0,0,1,3.43,3.47v7.12a2.9,2.9,0,0,0,.12.94h0a0.24,0.24,0,0,0,.13-0.06l0.18-.15,12.52-10.49a3.43,3.43,0,0,1,2.22-.81h31.38a9.59,9.59,0,0,0,9.57-9.57v-32A9.61,9.61,0,0,0,547.32,352.52Z" transform="translate(0 -0.01)" style="fill:#c6f7ea"/><path d="M547,349H497a13.08,13.08,0,0,0-13,13V394a13.07,13.07,0,0,0,13,13h0.57v7.12a4.25,4.25,0,0,0,1.77,3.91,3.68,3.68,0,0,0,4.27-.42L516.26,407H547a13.08,13.08,0,0,0,13-13v-31.9a13.08,13.08,0,0,0-13-13" transform="translate(0 -0.01)" style="fill:#fff;stroke:#fff;stroke-miterlimit:10;stroke-width:2px"/><path d="M540,377.43a3.08,3.08,0,0,0-.42,2.15,3.59,3.59,0,0,1-.53,2.78,1.51,1.51,0,0,0-.16,1.11,4.21,4.21,0,0,1-.9,3.25,1.36,1.36,0,0,0-.3.92c0,2.82-1.69,4.46-4.51,4.7a28.64,28.64,0,0,1-12-1.38c-0.88-.32-6.34-1-7.28-1.18a1.46,1.46,0,0,1-1.4-1.76V376a1.74,1.74,0,0,1,1.38-2c1-.31,1.63-1.32,2.32-2.11,1.14-1.31,2.14-2.73,3.32-4a4.58,4.58,0,0,0,1.21-3.21c-0.08-3.52,1.81-4.37,3.2-3.39,2.94,2.06,1.87,10.16,2.79,10.18,1.66,0,8.44-.1,10.1.08A4,4,0,0,1,540,377.43Z" transform="translate(0 -0.01)" style="fill:#ffea8f"/><rect x="505.92" y="374.44" width="5.03" height="14.99" rx="1.08" ry="1.08" style="fill:#ffea8f"/><path d="M279.22,371.29H363.9a20.06,20.06,0,0,1,20,20V434.2a20.06,20.06,0,0,1-20,20h-58l-16.11,13.57-0.07.1a7.44,7.44,0,0,1-8.62.85h0a6.73,6.73,0,0,1-2.8-3.13,10.38,10.38,0,0,1-.83-4.27v-7.14a20.07,20.07,0,0,1-18.27-19.93v-43a20.06,20.06,0,0,1,20-20m84.68,5H279.22a15.07,15.07,0,0,0-15,15V434.2a15.07,15.07,0,0,0,15,15H280a2.49,2.49,0,0,1,2.49,2.49v9.56a5.55,5.55,0,0,0,.38,2.22,1.85,1.85,0,0,0,.74.87h0a2.46,2.46,0,0,0,2.85-.28l0.13-.11,16.84-14.17a2.47,2.47,0,0,1,1.6-.58h58.88a15.07,15.07,0,0,0,15-15V391.29a15.07,15.07,0,0,0-15-15Z" transform="translate(0 -0.01)" style="fill:#c6f7ea"/><path d="M363.9,373.78H279.22a17.57,17.57,0,0,0-17.5,17.51V434.2a17.56,17.56,0,0,0,17.51,17.51H280v9.56c0,2.06.54,4.19,2.38,5.25a5,5,0,0,0,5.74-.57L305,451.7h58.88a17.56,17.56,0,0,0,17.51-17.51v-42.9a17.56,17.56,0,0,0-17.51-17.51" transform="translate(0 -0.01)" style="fill:#fff"/><path d="M315.62,400.77c5.44-10.82,18-15.8,28.79-13.82,14.69,2.7,21,17.12,19.78,29.38-1.47,15-13.51,23.17-25.34,23a26.45,26.45,0,0,1-23.23-38.56" transform="translate(0 -0.01)" style="fill:url(#62484711-932a-43fd-858b-844c1b427d67)"/><path d="M324.93,404.87a3.88,3.88,0,0,1,4.12-2,3.72,3.72,0,0,1,2.83,4.2,3.55,3.55,0,0,1-3.62,3.29,3.78,3.78,0,0,1-3.32-5.52" transform="translate(0 -0.01)" style="fill:#414141"/><path d="M345.54,404.87a3.88,3.88,0,0,1,4.12-2,3.72,3.72,0,0,1,2.83,4.2,3.55,3.55,0,0,1-3.62,3.29,3.78,3.78,0,0,1-3.32-5.52" transform="translate(0 -0.01)" style="fill:#414141"/><path d="M326.87,421.2a1.78,1.78,0,1,1,3.41-1,8.7,8.7,0,0,0,16.72,0,1.78,1.78,0,1,1,3.41,1,12.25,12.25,0,0,1-23.54,0" transform="translate(0 -0.01)" style="fill:#414141"/><path d="M281.79,413.87a2.49,2.49,0,1,1-3.94-3,10.35,10.35,0,1,1,0,12.63,2.49,2.49,0,0,1,3.94-3,5.37,5.37,0,1,0,0-6.55" transform="translate(0 -0.01)" style="fill:url(#ddafe54d-6bce-4235-b97c-1a7df9478bb6)"/><path d="M298.16,393.87a2.5,2.5,0,0,1,5,0v27.62a2.49,2.49,0,0,1-4.93.51l-8.07-28.59a2.49,2.49,0,0,1,4.79-1.34l3.23,11.43v-9.63h0Z" transform="translate(0 -0.01)" style="fill:url(#de304524-ccdb-4626-8ffb-35e45cf2258e)"/><path d="M296.06,428.06a2,2,0,0,0,.78-0.56c-0.26.2-.52,0.39-0.78,0.56m-12.15-27.83a2.49,2.49,0,0,1,3.31-3.72A55.29,55.29,0,0,1,303,420.76a2.49,2.49,0,0,1,.12.76h0a17.6,17.6,0,0,1-1.23,7.14,7.12,7.12,0,0,1-4.67,4.25,10.11,10.11,0,0,1-6.07-.47A35.44,35.44,0,0,1,281,426.11l-0.09-.08h0a2.49,2.49,0,0,1,3.18-3.83h0a5.13,5.13,0,0,0,2.37,1.1h0a5.16,5.16,0,0,0,2.62-.21,7.32,7.32,0,0,0,2.73-2,6.7,6.7,0,0,0,1.63-2.8,2.49,2.49,0,0,1,2.47-2,50.13,50.13,0,0,0-12-16.06h0Z" transform="translate(0 -0.01)" style="fill:url(#996e15d7-9036-4dbf-9e14-6ac085f9a870)"/></svg>