<svg xmlns="http://www.w3.org/2000/svg" xmlns:xlink="http://www.w3.org/1999/xlink" viewBox="0 0 266.05 171.79"><defs><clipPath id="a" transform="translate(-16.2 -61.17)"><rect x="145.34" y="68.7" width="140.47" height="170.88" style="fill:none"/></clipPath></defs><title>hero</title><path d="M231.12,156.12H31.1a15.11,15.11,0,0,0,0-30.18h200A15.1,15.1,0,1,0,231.12,156.12Z" transform="translate(-16.2 -61.17)" style="fill:#9bcccc"/><path d="M252,188.83H34.18c-10.4.41-18.59-8.33-17.95-17.62,0.59-8.51,8.47-15.69,17.95-15.25H252c9.54-.56,17.58,6.91,17.88,15.87C270.22,181.19,262,189.4,252,188.83Z" transform="translate(-16.2 -61.17)" style="fill:#9bcccc"/><path d="M235.78,211.41H97.64c5.72-.45,10.07-5.77,9.85-11.75-0.21-5.66-4.45-10.43-9.85-10.85H235.78c-5.77-.08-10.54,4.9-10.72,10.93C224.87,206,229.75,211.49,235.78,211.41Z" transform="translate(-16.2 -61.17)" style="fill:#9bcccc"/><path d="M233.67,232.94H90.93c-6.81.27-12.18-5.46-11.76-11.54a11.18,11.18,0,0,1,11.76-10H233.67A10.81,10.81,0,1,1,233.67,232.94Z" transform="translate(-16.2 -61.17)" style="fill:#9bcccc"/><path d="M227.79,126.14H34.6c-9.22.37-16.49-7.38-15.91-15.62C19.21,103,26.19,96.6,34.6,97H227.79a15,15,0,0,1,15.86,14.07C243.92,119.35,236.63,126.64,227.79,126.14Z" transform="translate(-16.2 -61.17)" style="fill:#9bcccc"/><path d="M233.31,152.43h-200a15.11,15.11,0,0,0,0-30.18h200A15.1,15.1,0,1,0,233.31,152.43Z" transform="translate(-16.2 -61.17)" style="fill:#d0fafc"/><path d="M254.22,185.14H36.37c-10.4.41-18.59-8.33-17.95-17.62C19,159,26.89,151.83,36.37,152.27H254.22c9.54-.56,17.58,6.91,17.88,15.87C272.41,177.49,264.2,185.7,254.22,185.14Z" transform="translate(-16.2 -61.17)" style="fill:#d0fafc"/><path d="M238,207.72H99.83c5.72-.45,10.07-5.77,9.85-11.75-0.21-5.66-4.45-10.43-9.85-10.85H238C232.2,185,227.43,190,227.25,196,227.07,202.34,231.94,207.79,238,207.72Z" transform="translate(-16.2 -61.17)" style="fill:#d0fafc"/><path d="M235.87,229.24H93.12c-6.81.27-12.18-5.46-11.76-11.54a11.18,11.18,0,0,1,11.76-10H235.87A10.81,10.81,0,1,1,235.87,229.24Z" transform="translate(-16.2 -61.17)" style="fill:#d0fafc"/><path d="M230,122.44H36.79c-9.22.37-16.49-7.38-15.91-15.62,0.52-7.55,7.51-13.92,15.91-13.53H230a15,15,0,0,1,15.86,14.07C246.11,115.66,238.83,122.94,230,122.44Z" transform="translate(-16.2 -61.17)" style="fill:#d0fafc"/><g style="clip-path:url(#a)"><path d="M231.12,156.12H31.1a15.11,15.11,0,0,0,0-30.18h200A15.1,15.1,0,1,0,231.12,156.12Z" transform="translate(-16.2 -61.17)" style="fill:#cccc9e"/><path d="M252,188.83H34.18c-10.4.41-18.59-8.33-17.95-17.62,0.59-8.51,8.47-15.69,17.95-15.25H252c9.54-.56,17.58,6.91,17.88,15.87C270.22,181.19,262,189.4,252,188.83Z" transform="translate(-16.2 -61.17)" style="fill:#cccc9e"/><path d="M235.78,211.41H97.64c5.72-.45,10.07-5.77,9.85-11.75-0.21-5.66-4.45-10.43-9.85-10.85H235.78c-5.77-.08-10.54,4.9-10.72,10.93C224.87,206,229.75,211.49,235.78,211.41Z" transform="translate(-16.2 -61.17)" style="fill:#cccc9e"/><path d="M233.67,232.94H90.93c-6.81.27-12.18-5.46-11.76-11.54a11.18,11.18,0,0,1,11.76-10H233.67A10.81,10.81,0,1,1,233.67,232.94Z" transform="translate(-16.2 -61.17)" style="fill:#cccc9e"/><path d="M227.79,126.14H34.6c-9.22.37-16.49-7.38-15.91-15.62C19.21,103,26.19,96.6,34.6,97H227.79a15,15,0,0,1,15.86,14.07C243.92,119.35,236.63,126.64,227.79,126.14Z" transform="translate(-16.2 -61.17)" style="fill:#cccc9e"/><path d="M233.31,152.43h-200a15.11,15.11,0,0,0,0-30.18h200A15.1,15.1,0,1,0,233.31,152.43Z" transform="translate(-16.2 -61.17)" style="fill:#faffc5"/><path d="M254.22,185.14H36.37c-10.4.41-18.59-8.33-17.95-17.62C19,159,26.89,151.83,36.37,152.26H254.22c9.54-.56,17.58,6.91,17.88,15.87C272.41,177.49,264.2,185.7,254.22,185.14Z" transform="translate(-16.2 -61.17)" style="fill:#faffc5"/><path d="M238,207.72H99.83c5.72-.45,10.07-5.77,9.85-11.75-0.21-5.66-4.45-10.43-9.85-10.85H238C232.2,185,227.43,190,227.25,196,227.07,202.34,231.94,207.79,238,207.72Z" transform="translate(-16.2 -61.17)" style="fill:#faffc5"/><path d="M235.87,229.24H93.12c-6.81.27-12.18-5.46-11.76-11.54a11.18,11.18,0,0,1,11.76-10H235.87A10.81,10.81,0,1,1,235.87,229.24Z" transform="translate(-16.2 -61.17)" style="fill:#faffc5"/><path d="M230,122.44H36.79c-9.22.37-16.49-7.38-15.91-15.62,0.52-7.55,7.51-13.92,15.91-13.53H230a15,15,0,0,1,15.86,14.07C246.11,115.66,238.83,122.94,230,122.44Z" transform="translate(-16.2 -61.17)" style="fill:#faffc5"/></g><rect x="52.33" y="159.94" width="1.33" height="8.5" transform="translate(-132.89 71.85) rotate(-61.7)" style="fill:#f2f2f2;stroke:#414141;stroke-linejoin:round"/><rect x="60.84" y="164.52" width="1.33" height="8.5" transform="translate(-132.45 81.75) rotate(-61.7)" style="fill:#f2f2f2;stroke:#414141;stroke-linejoin:round"/><path d="M71.42,161.61L73,158.75l2.86,1.54A3.89,3.89,0,0,1,71.42,161.61Z" transform="translate(-16.2 -61.17)" style="fill:#f2f2f2;stroke:#414141;stroke-linejoin:round"/><path d="M53.51,152a3.89,3.89,0,0,1-1.32-4.4l2.86,1.54Z" transform="translate(-16.2 -61.17)" style="fill:#ddd;stroke:#414141;stroke-linejoin:round"/><path d="M90.23,132.68a0.57,0.57,0,0,1,.24.79l-4.15,7.7A14.25,14.25,0,0,0,85,136.88a12,12,0,0,0,4.86-4.29h0l0.3,0.16Z" transform="translate(-16.2 -61.17)" style="fill:#efefef"/><path d="M66.58,120.49a0.57,0.57,0,0,1,.79-0.24l0.37,0.2a11.32,11.32,0,0,0-.9,6.42,14.33,14.33,0,0,0-4.29,1.29l4.11-7.63Z" transform="translate(-16.2 -61.17)" style="fill:#efefef"/><path d="M58.63,165.14a4.39,4.39,0,0,1,5.6-1.44,4.32,4.32,0,0,1,1.88,5.46Z" transform="translate(-16.2 -61.17)" style="fill:#f2f2f2;stroke:#414141;stroke-linejoin:round"/><path d="M50.12,160.53a4.39,4.39,0,0,1,5.6-1.44,4.32,4.32,0,0,1,1.88,5.46Z" transform="translate(-16.2 -61.17)" style="fill:#f2f2f2;stroke:#414141;stroke-linejoin:round"/><path d="M66.58,120.49a0.57,0.57,0,0,1,.79-0.24l0.37,0.2a11.32,11.32,0,0,0-.9,6.42,14.33,14.33,0,0,0-4.29,1.29l4.11-7.63Z" transform="translate(-16.2 -61.17)" style="fill:#dd9d57"/><path d="M90.23,132.68a0.57,0.57,0,0,1,.24.79l-4.15,7.7A14.25,14.25,0,0,0,85,136.88a12,12,0,0,0,4.86-4.29h0l0.3,0.16Z" transform="translate(-16.2 -61.17)" style="fill:#ffc578"/><path d="M77.26,160.05L73.37,158,78,149.3l-1-.51-9.76,18.12A5.25,5.25,0,0,0,64.61,163a5.49,5.49,0,0,0-4.88-.07l3.87-7.19-0.88-.47-3.87,7.19a5.49,5.49,0,0,0-2.75-4,5.24,5.24,0,0,0-4.77-.11l9.76-18.12-1-.51-4.66,8.66-3.89-2.09,6.68-12.4a11.21,11.21,0,0,1,8.6-5.59,12.39,12.39,0,0,0,6.28,8.21l0.29,0.16,0.29,0.16a12.67,12.67,0,0,0,10.31.72,11.21,11.21,0,0,1,.06,10.26l-6.68,12.4Z" transform="translate(-16.2 -61.17)" style="fill:#fff383"/><path d="M56.14,158.4a5.58,5.58,0,0,0-1.7-.57,5.37,5.37,0,0,0-3.07.47l9.76-18.12-1-.51-4.66,8.66-3.89-2.09,6.68-12.4a11.21,11.21,0,0,1,8.6-5.59,10.69,10.69,0,0,0,2,4.46,12.1,12.1,0,0,0,2.74,2.5S59.62,159.9,56.14,158.4Z" transform="translate(-16.2 -61.17)" style="fill:#dbc961"/><rect x="63.93" y="141.1" width="9.75" height="7.84" transform="translate(-107.7 75.69) rotate(-61.7)" style="fill:#ffc578"/><path d="M84.14,115.67l0.29,0.16L84.73,116a10.92,10.92,0,1,1-10.35,19.23l-0.29-.16-0.29-.16A10.92,10.92,0,1,1,84.14,115.67Z" transform="translate(-16.2 -61.17)" style="fill:#f2f2f2;stroke:#414141;stroke-linejoin:round"/><path d="M74.36,134.48h0l0.29,0.16,0.29,0.16a10.33,10.33,0,0,0,14-4.31,6.86,6.86,0,0,0,1-4.55,1.07,1.07,0,0,1,0-.3l0-.11c-0.3-1-1.6-3.7-6.52-6.35L83.14,119l-0.07,0L83,119l-0.22-.12c-4.91-2.65-7.87-2.25-8.89-1.95l-0.12,0a0.46,0.46,0,0,0-.27.14,7,7,0,0,0-3.23,3.37A10.34,10.34,0,0,0,74.36,134.48Z" transform="translate(-16.2 -61.17)" style="fill:#a4f9ff"/><path d="M72.49,133.41c2.9-.25,5.16-15,2.45-16.13a1.59,1.59,0,0,0-1.31.19l-0.12,0a0.46,0.46,0,0,0-.27.14A7,7,0,0,0,70,121a9.94,9.94,0,0,0-1.24,4.37C68.62,129.24,70.87,133.55,72.49,133.41Z" transform="translate(-16.2 -61.17)" style="fill:#9aebed"/><path d="M77.4,159.82l-3.89-2.09,4.66-8.66-1-.51-9.76,18.12a5.25,5.25,0,0,0-2.71-3.92,5.49,5.49,0,0,0-4.88-.07l3.87-7.19L62.86,155,59,162.2a5.49,5.49,0,0,0-2.75-4,5.24,5.24,0,0,0-4.77-.11l9.76-18.12-1-.51-4.66,8.66L51.72,146l6.68-12.4A11.21,11.21,0,0,1,67,128a12.39,12.39,0,0,0,6.28,8.21l0.29,0.16,0.29,0.16a12.67,12.67,0,0,0,10.31.72,11.21,11.21,0,0,1,.06,10.26l-6.68,12.4Zm-6,1.8L73,158.75l2.86,1.54A3.89,3.89,0,0,1,71.42,161.61Zm-12.79,3.53a4.39,4.39,0,0,1,5.6-1.44,4.32,4.32,0,0,1,1.88,5.46Zm6.3,6.23-7.48-4,0.63-1.17,7.48,4ZM50.12,160.56a4.39,4.39,0,0,1,5.6-1.44,4.32,4.32,0,0,1,1.88,5.46Zm6.3,6.23-7.48-4,0.63-1.17,7.48,4ZM53.51,152a3.89,3.89,0,0,1-1.32-4.4l2.86,1.54Zm13.07-31.48a0.57,0.57,0,0,1,.79-0.24l0.37,0.2a11.32,11.32,0,0,0-.9,6.42,14.33,14.33,0,0,0-4.29,1.29l4.11-7.63ZM84.06,116l0.29,0.16,0.29,0.16a10.92,10.92,0,1,1-10.35,19.23L74,135.37l-0.29-.16A10.92,10.92,0,1,1,84.06,116Zm6.17,16.67a0.57,0.57,0,0,1,.24.79l-4.15,7.7A14.25,14.25,0,0,0,85,136.85a12,12,0,0,0,4.86-4.29h0l0.3,0.16Zm-3.86,10.7,5.1-9.47a1.67,1.67,0,0,0-.68-2.26l-0.37-.2-0.16.29a12.13,12.13,0,0,0-5.17-16.41l-0.29-.16L84.5,115A12.19,12.19,0,0,0,68,119.71l0.16-.29-0.37-.2a1.67,1.67,0,0,0-2.26.68l-5.1,9.47A10.9,10.9,0,0,0,57.29,133L50.1,146.35l1,0.55a4.88,4.88,0,0,0,1.76,5.87l-5.57,10.35,18.12,9.76L71,162.53a5,5,0,0,0,5.87-1.76l1,0.55L85.1,148A11,11,0,0,0,86.36,143.35Zm-16.42,7.82L63,147.45l4.62-8.58,6.9,3.71ZM67.4,138l-5.25,9.76,8.07,4.34,5.25-9.76Zm6.17-20.25,0.23-.07,0.11,0c0.75-.16,3.56-0.64,8.4,2l0.22,0.12,0.07,0,0.07,0,0.22,0.12c4.84,2.61,6,5.21,6.27,5.93l0,0.11,0.07,0.23a6.27,6.27,0,0,1-.91,4.15,9.73,9.73,0,0,1-13.06,4L75,134.2,74.71,134a9.62,9.62,0,0,1-3.81-13.13C71.75,118.63,73,118,73.56,117.72Zm0.54,16.76h0l0.29,0.16,0.29,0.16a10.33,10.33,0,0,0,14-4.31,6.86,6.86,0,0,0,1-4.55,1.07,1.07,0,0,1,0-.3l0-.11c-0.3-1-1.6-3.7-6.52-6.35L82.88,119l-0.07,0-0.07,0-0.22-.12c-4.91-2.65-7.87-2.25-8.89-1.95l-0.12,0a0.46,0.46,0,0,0-.27.14A7,7,0,0,0,70,120.44,10.34,10.34,0,0,0,74.1,134.48Z" transform="translate(-16.2 -61.17)" style="fill:#414141;stroke:#414141;stroke-linejoin:round"/><circle cx="67.63" cy="147.57" r="0.92" transform="translate(-110.56 76) rotate(-61.7)" style="fill:#414141"/><polygon points="52.65 84.14 54.63 85.21 54.31 85.8 50.35 83.67 50.66 83.08 52.65 84.14" style="fill:#414141"/><polygon points="53.44 82.68 55.42 83.74 55.1 84.33 51.14 82.2 51.46 81.61 53.44 82.68" style="fill:#414141"/><polygon points="54.27 81.14 56.25 82.2 55.93 82.79 51.97 80.66 52.29 80.07 54.27 81.14" style="fill:#414141"/><path d="M245.88,200.29c0,1.71-4.15,3.52-11.85,3.65v-7.27C241.72,196.79,245.88,198.58,245.88,200.29Z" transform="translate(-16.2 -61.17)" style="fill:#f9f9f9"/><path d="M245.88,200.29c0.3,0.54-1.31,1.92-1.59,2.16-3.84,3.3-9.52,1.7-10.26,1.48C239.09,201.78,245.34,199.32,245.88,200.29Z" transform="translate(-16.2 -61.17)" style="fill:#efefef"/><path d="M224.69,211.38l-2.14,1.67c-6,4.71-6,4.71-11.35,4.72H190.1l1-.93a33.5,33.5,0,0,1,7.29-5.46l26.27,0h0Z" transform="translate(-16.2 -61.17)" style="fill:#50a1d1"/><path d="M224.69,211.4l-2.14.75c-6,2.1-6,2.1-11.35,2.11H190.1l1-.42a44.89,44.89,0,0,1,7.29-2.43l26.27,0h0Z" transform="translate(-16.2 -61.17)" style="fill:#3f82b2"/><path d="M232.26,191v18.65l-29.31,0a31.39,31.39,0,0,1,8.24-1h1.31c5.64,0,11.62-2.92,11.62-8.33s-6-8.31-11.63-8.31h-1.3a31,31,0,0,1-8.23-1Z" transform="translate(-16.2 -61.17)" style="fill:#f9f9f9"/><path d="M232.28,209.62l-29.39,0a31.21,31.21,0,0,1,8.32-1h1.31a24.59,24.59,0,0,0,7.92-2.14,10.1,10.1,0,0,0,1.6-1.27s0.32-.32.58-0.65a10.46,10.46,0,0,0,1.52-4.25,13,13,0,0,1,2.85.75C230.48,203.27,231.78,207.44,232.28,209.62Z" transform="translate(-16.2 -61.17)" style="fill:#efefef"/><path d="M175.63,211.53h2.63V218C177.42,216.2,176.42,213.84,175.63,211.53Z" transform="translate(-16.2 -61.17)" style="fill:#f2f2f2"/><path d="M174.23,216.64v-3.78c0.46,1.3,1,2.59,1.49,3.78h-1.49Z" transform="translate(-16.2 -61.17)" style="fill:#f2f2f2"/><path d="M168,209.46l1.92,0.54v0.67a0.87,0.87,0,0,0,.36.71,0.86,0.86,0,0,0,.79.12l1.39-.45v3.87L168,216.15v-6.7h0Z" transform="translate(-16.2 -61.17)" style="fill:#ffc111"/><polygon points="155.49 147.26 156.27 147.04 156.27 148.03 155.49 148.29 155.49 147.26" style="fill:#f2f2f2"/><path d="M174.22,203.4h4.52a3.19,3.19,0,0,1,0,6.38h-4.52V203.4Z" transform="translate(-16.2 -61.17)" style="fill:#f2f2f2"/><polygon points="154.16 142.51 156.27 143.1 156.27 145.21 154.17 145.81 154.16 142.51" style="fill:#ffc111"/><path d="M169.41,200.38a94.74,94.74,0,0,1,11.24-1.28,1.27,1.27,0,1,1,0,2.54A94.74,94.74,0,0,1,169.41,200.38Z" transform="translate(-16.2 -61.17)" style="fill:#f2f2f2"/><path d="M174.22,197.34V191h4.52a3.19,3.19,0,0,1,0,6.38h-4.52Z" transform="translate(-16.2 -61.17)" style="fill:#f2f2f2"/><polygon points="154.16 132.61 156.26 133.19 156.26 135.31 154.16 135.9 154.16 132.61" style="fill:#ffc111"/><polygon points="155.47 131.15 155.47 130.13 156.26 130.38 156.26 131.37 155.47 131.15" style="fill:#f2f2f2"/><path d="M168,184.59l4.46,1.24v3.87l-1.39-.45a0.87,0.87,0,0,0-1.15.83v0.67l-1.92.54v-6.7h0Z" transform="translate(-16.2 -61.17)" style="fill:#ffc111"/><path d="M175.7,184.1c-0.5,1.19-1,2.48-1.49,3.78V184.1h1.49Z" transform="translate(-16.2 -61.17)" style="fill:#f2f2f2"/><path d="M220.94,203.81a6.49,6.49,0,0,1,0-7A5,5,0,0,1,220.94,203.81Z" transform="translate(-16.2 -61.17)" style="fill:#f06364"/><path d="M220.8,204a10,10,0,0,1-1-1.26c-0.66-1-1-1.52-.84-2,0.32-.82,2.08-0.75,2.29-0.74a3,3,0,0,1,1.81.58,1.87,1.87,0,0,1,.78,1.07C223.93,202.49,222.74,203.53,220.8,204Z" transform="translate(-16.2 -61.17)" style="fill:#db5e64"/><path d="M178.23,182.7v6.51H175.6C176.4,186.9,177.4,184.55,178.23,182.7Z" transform="translate(-16.2 -61.17)" style="fill:#f2f2f2"/><path d="M183.55,201.21h3.67v2.12a0.88,0.88,0,0,0,1.76,0V201.2h4.19v2.12a0.88,0.88,0,0,0,1.76,0V201.2h4.19v2.12a0.88,0.88,0,0,0,1.76,0V201.2h4.19v2.12a0.88,0.88,0,0,0,1.76,0v-6a0.88,0.88,0,0,0-1.76,0v2.12h-4.19v-2.12a0.88,0.88,0,0,0-1.76,0v2.12h-4.19v-2.12a0.88,0.88,0,0,0-1.76,0v2.12H189v-2.12a0.88,0.88,0,0,0-1.76,0v2.12h-3.67a3,3,0,0,0-1.42-1.75,4.92,4.92,0,0,0,1.55-3.59,3.08,3.08,0,0,0,0-.35l28.86,0a13.65,13.65,0,0,1,7.06,1.93,8.28,8.28,0,0,0,0,9.24,13.64,13.64,0,0,1-7,1.94l-28.85,0a3.09,3.09,0,0,0,0-.35,4.92,4.92,0,0,0-1.56-3.58A3,3,0,0,0,183.55,201.21Z" transform="translate(-16.2 -61.17)" style="fill:#56acdf"/><path d="M183.55,201.19h3.67v2.12a0.88,0.88,0,0,0,1.76,0v-2.12h4.19v2.12a0.88,0.88,0,0,0,1.76,0v-2.12h4.19v2.12a0.88,0.88,0,0,0,1.76,0v-2.12h4.19v2.12a0.88,0.88,0,0,0,1.76,0,10,10,0,0,1,0-3h11.34a25,25,0,0,1,1.41,4.62,13.64,13.64,0,0,1-7,1.94l-28.85,0a3.1,3.1,0,0,0,0-.35,4.92,4.92,0,0,0-1.56-3.58A3,3,0,0,0,183.55,201.19Z" transform="translate(-16.2 -61.17)" style="fill:#3f82b2"/><path d="M216.63,200.33a5.28,5.28,0,0,0-2.94-4.73,0.88,0.88,0,1,0-.79,1.57,3.52,3.52,0,0,1,0,6.32,0.87,0.87,0,0,0-.49.79,0.89,0.89,0,0,0,.09.39,0.88,0.88,0,0,0,1.18.4A5.25,5.25,0,0,0,216.63,200.33ZM180,221v-2.18h1.31a0.88,0.88,0,1,0,0-1.76H180v-2.51h1.31a0.88,0.88,0,1,0,0-1.76H180v-1.48a5,5,0,0,0,3.19-2.66h17.14c-4.74,1.75-7.77,4.52-10.41,6.92C186.94,218.33,184.32,220.71,180,221Zm-4.39-9.49h2.63V218C177.43,216.18,176.43,213.82,175.64,211.52Zm-1.39,5.11v-3.78c0.46,1.3,1,2.59,1.49,3.78h-1.49ZM168,209.44l1.92,0.54v0.67a0.87,0.87,0,0,0,.36.71,0.86,0.86,0,0,0,.79.12l1.39-.45v3.87L168,216.14v-6.7h0Zm3.67-1,0.79-.22v1l-0.79.26v-1Zm2.54-5h4.52a3.19,3.19,0,0,1,0,6.38h-4.52v-6.38Zm-3.86.28,2.1,0.59v2.12l-2.1.59v-3.3Zm13.18-2.43h3.67v2.12a0.88,0.88,0,0,0,1.76,0v-2.12h4.19v2.12a0.88,0.88,0,0,0,1.76,0v-2.12h4.19v2.12a0.88,0.88,0,0,0,1.76,0v-2.12h4.19v2.12a0.88,0.88,0,0,0,1.76,0v-6a0.88,0.88,0,0,0-1.76,0v2.12h-4.19v-2.12a0.88,0.88,0,0,0-1.76,0v2.12h-4.19v-2.12a0.88,0.88,0,0,0-1.76,0v2.12H189v-2.12a0.88,0.88,0,0,0-1.76,0v2.12h-3.67a3,3,0,0,0-1.42-1.75,4.92,4.92,0,0,0,1.55-3.59,3.09,3.09,0,0,0,0-.35l28.86,0a13.65,13.65,0,0,1,7.06,1.93,8.28,8.28,0,0,0,0,9.24,13.64,13.64,0,0,1-7,1.94l-28.85,0a3.09,3.09,0,0,0,0-.35,4.92,4.92,0,0,0-1.56-3.58A3,3,0,0,0,183.55,201.23Zm-14.13-.87a94.74,94.74,0,0,1,11.24-1.28,1.27,1.27,0,1,1,0,2.54A94.74,94.74,0,0,1,169.42,200.36Zm4.81-3V191h4.52a3.19,3.19,0,0,1,0,6.38h-4.52Zm-3.86-3.57,2.1,0.58v2.12l-2.1.59v-3.29Zm1.32-1.46v-1l0.79,0.26v1ZM168,184.58l4.46,1.24v3.87l-1.39-.45a0.87,0.87,0,0,0-1.15.83v0.67l-1.92.54v-6.7h0Zm7.7-.49c-0.5,1.19-1,2.48-1.49,3.78v-3.78h1.49Zm2.54-1.4v6.51h-2.63C176.41,186.89,177.41,184.53,178.25,182.68Zm3.06-.81H180V179.7c4.29,0.28,6.92,2.67,9.93,5.41,2.64,2.4,5.67,5.16,10.41,6.91H183.2a5,5,0,0,0-3.2-2.66v-1.48h1.31a0.88,0.88,0,1,0,0-1.76H180v-2.51h1.31a0.88,0.88,0,0,0,.88-0.88A0.87,0.87,0,0,0,181.31,181.87Zm29.88,1c5.35,0,5.35,0,11.36,4.69l2.16,1.68-26.3,0a33.65,33.65,0,0,1-7.3-5.45l-1-.93h21.11Zm9.75,21a6.49,6.49,0,0,1,0-7A5,5,0,0,1,220.94,203.83ZM232.26,191v18.65l-29.31,0a31.39,31.39,0,0,1,8.24-1h1.31c5.64,0,11.62-2.92,11.62-8.33s-6-8.31-11.63-8.31h-1.3a31,31,0,0,1-8.23-1Zm13,6c-2.59-1.43-6.92-2-11.21-2.11V191C238.86,191.22,243.56,193.12,245.23,197Zm0.65,3.28c0,1.71-4.15,3.52-11.85,3.65v-7.27C241.72,196.81,245.88,198.6,245.88,200.31ZM234,209.62v-3.9c4.28-.08,8.61-0.7,11.21-2.12C243.56,207.5,238.87,209.41,234,209.62Zm-9.34,1.79-2.14,1.67c-6,4.71-6,4.71-11.35,4.72H190.1l1-.93a33.5,33.5,0,0,1,7.29-5.46l26.27,0h0Zm-13.48,8.14c5.84,0,6.07-.1,12.44-5.09,1.09-.85,2.38-1.87,3.92-3.06h5.59c8.67,0,14.49-4.46,14.48-11.09s-5.83-11.08-14.5-11.07h-5.57c-1.55-1.19-2.86-2.21-4-3.06-6.37-5-6.6-5.07-12.44-5.07l-23.19,0a13.74,13.74,0,0,0-8.87-3.21,0.87,0.87,0,0,0-.77.48h0c-0.09.17-.89,1.74-1.87,3.93h-3.13a0.88,0.88,0,0,0-.88.88V184l-5.1-1.42a0.88,0.88,0,0,0-1.11.85v9a0.88,0.88,0,0,0,.88.88,0.84,0.84,0,0,0,.42-0.11l1.05-.29v5.29a0.85,0.85,0,0,0,.18.51c-1.44.41-2.41,0.94-2.41,1.61s1,1.2,2.44,1.61a0.85,0.85,0,0,0-.21.53v5.27l-1.24-.35a0.88,0.88,0,0,0-1.11.85v9a0.88,0.88,0,0,0,1.12.85l5.1-1.43v0.79a0.88,0.88,0,0,0,.88.88h3.13c1,2.19,1.78,3.76,1.88,3.93h0a0.87,0.87,0,0,0,.76.47,13.76,13.76,0,0,0,8.87-3.22h23.19Z" transform="translate(-16.2 -61.17)" style="fill:#414141"/><path d="M180,221v-2.18h1.31a0.88,0.88,0,1,0,0-1.76H180v-2.51h1.31a0.88,0.88,0,1,0,0-1.76H180V211.3a5,5,0,0,0,3.19-2.66h17.14c-4.74,1.75-7.77,4.52-10.41,6.92C186.94,218.31,184.32,220.69,180,221Z" transform="translate(-16.2 -61.17)" style="fill:#f9f9f9"/><path d="M181.31,181.85H180v-2.17c4.29,0.28,6.92,2.67,9.93,5.41,2.64,2.4,5.67,5.16,10.41,6.91H183.2a5,5,0,0,0-3.2-2.66v-1.48h1.31a0.88,0.88,0,1,0,0-1.76H180v-2.51h1.31a0.88,0.88,0,0,0,.88-0.88A0.87,0.87,0,0,0,181.31,181.85Z" transform="translate(-16.2 -61.17)" style="fill:#f9f9f9"/><path d="M211.18,182.85c5.35,0,5.35,0,11.36,4.69l2.16,1.68-26.3,0a33.65,33.65,0,0,1-7.3-5.45l-1-.93h21.11Z" transform="translate(-16.2 -61.17)" style="fill:#50a1d1"/><path d="M245.23,197c-2.59-1.43-6.92-2-11.21-2.11V191C238.86,191.2,243.56,193.1,245.23,197Z" transform="translate(-16.2 -61.17)" style="fill:#f9f9f9"/><path d="M234,209.6v-3.9c4.28-.08,8.61-0.7,11.21-2.12C243.56,207.48,238.87,209.39,234,209.6Z" transform="translate(-16.2 -61.17)" style="fill:#efefef"/><circle cx="251.56" cy="46.58" r="14.49" style="fill:#fffc99"/><rect x="83.53" y="164.82" width="3.06" height="3.06" style="fill:#d4ebeb"/><rect x="84.55" y="118.92" width="6.12" height="2.04" style="fill:#f6efe4"/><rect x="85.57" y="109.74" width="5.1" height="3.06" style="fill:#f6efe4"/><rect x="86.59" y="99.55" width="3.06" height="3.06" style="fill:#f6efe4"/><rect x="87.61" y="95.47" width="1.02" height="2.04" style="fill:#f6efe4"/><rect x="85.57" y="104.65" width="5.1" height="3.06" style="fill:#f6efe4"/><rect x="84.55" y="114.84" width="6.12" height="2.04" style="fill:#f6efe4"/><rect x="106.99" y="118.92" width="6.12" height="2.04" style="fill:#f6efe4"/><rect x="106.99" y="109.74" width="5.1" height="3.06" style="fill:#f6efe4"/><rect x="108.01" y="99.55" width="3.06" height="3.06" style="fill:#f6efe4"/><rect x="109.03" y="95.47" width="1.02" height="2.04" style="fill:#f6efe4"/><rect x="106.99" y="104.65" width="5.1" height="3.06" style="fill:#f6efe4"/><rect x="106.99" y="114.84" width="6.12" height="2.04" style="fill:#f6efe4"/><rect x="111.07" y="164.82" width="3.06" height="3.06" style="fill:#d4ebeb"/><path d="M130.33,190.29v4.19h-3.69a1,1,0,0,0-.81-0.41h-3.68v-3.77h8.16Z" transform="translate(-16.2 -61.17)" style="fill:#d4ebeb"/><rect x="105.97" y="123" width="8.16" height="4.08" style="fill:#f6efe4"/><path d="M130.33,200.49h-3.06v-1a1.23,1.23,0,0,0-1-1v-2h4.08v4.08Z" transform="translate(-16.2 -61.17)" style="fill:#f6efe4"/><rect x="111.07" y="141.36" width="3.06" height="3.06" style="fill:#f6efe4"/><rect x="111.07" y="146.46" width="3.06" height="4.08" style="fill:#d4ebeb"/><rect x="111.07" y="152.58" width="3.06" height="4.08" style="fill:#f6efe4"/><rect x="105.97" y="165.84" width="3.06" height="2.04" style="fill:#d4ebeb"/><rect x="106.88" y="135" width="1.14" height="1.83" style="fill:#f6efe4"/><rect x="106.04" y="158.23" width="2.82" height="1.79" style="fill:#b4ab8e"/><rect x="106.04" y="154.35" width="2.82" height="1.79" style="fill:#f6efe4"/><rect x="106.04" y="150.48" width="2.82" height="1.78" style="fill:#f6efe4"/><rect x="106.04" y="146.6" width="2.82" height="1.79" style="fill:#f6efe4"/><rect x="106.04" y="142.72" width="2.82" height="1.79" style="fill:#f6efe4"/><rect x="106.04" y="138.91" width="2.82" height="1.72" style="fill:#f6efe4"/><rect x="106.04" y="162.1" width="2.82" height="1.78" style="fill:#d4ebeb"/><rect x="111.07" y="158.7" width="3.06" height="4.08" style="fill:#f6efe4"/><rect x="88.63" y="165.84" width="3.06" height="2.04" style="fill:#d4ebeb"/><rect x="83.53" y="158.7" width="3.06" height="4.08" style="fill:#f6efe4"/><rect x="83.53" y="152.58" width="3.06" height="4.08" style="fill:#f6efe4"/><rect x="83.53" y="146.46" width="3.06" height="4.08" style="fill:#d4ebeb"/><rect x="83.53" y="141.36" width="3.06" height="3.06" style="fill:#f6efe4"/><path d="M99.73,196.41h4.08v2a1.24,1.24,0,0,0-1,1v1H99.73v-4.08Z" transform="translate(-16.2 -61.17)" style="fill:#f6efe4"/><path d="M99.73,190.29h8.16l-0.05,3.78h-3a1,1,0,0,0-.81.4l-4.27-.11v-4.08Z" transform="translate(-16.2 -61.17)" style="fill:#d4ebeb"/><rect x="83.53" y="123" width="8.16" height="4.08" style="fill:#f6efe4"/><rect x="88.82" y="142.72" width="2.82" height="1.79" style="fill:#f6efe4"/><rect x="88.82" y="146.6" width="2.82" height="1.79" style="fill:#f6efe4"/><rect x="88.82" y="150.48" width="2.82" height="1.78" style="fill:#f6efe4"/><rect x="88.82" y="154.35" width="2.82" height="1.79" style="fill:#f6efe4"/><rect x="88.82" y="158.23" width="2.82" height="1.79" style="fill:#b4ab8e"/><rect x="89.66" y="135" width="1.14" height="1.83" style="fill:#f6efe4"/><rect x="88.82" y="138.91" width="2.82" height="1.72" style="fill:#f6efe4"/><rect x="88.82" y="162.1" width="2.82" height="1.78" style="fill:#d4ebeb"/><path d="M99.57,225.89h4.77q-0.08-17.94,0-36.12,0.07-17.77.27-35.31c-1.15-.42-2.06-0.4-2.29,0a0.63,0.63,0,0,0,0,.54,123.89,123.89,0,0,1-.86,15.76c-0.5,4.23-1.08,7.28-1.22,8.05C99.11,184.84,98.35,197.46,99.57,225.89Z" transform="translate(-16.2 -61.17)" style="opacity:0.2"/><path d="M120.87,225.89h4.77q-0.08-17.94,0-36.12,0.07-17.77.27-35.31c-1.15-.42-2.06-0.4-2.29,0a0.63,0.63,0,0,0,0,.54,123.89,123.89,0,0,1-.86,15.76c-0.5,4.23-1.08,7.28-1.22,8.05C120.41,184.84,119.65,197.46,120.87,225.89Z" transform="translate(-16.2 -61.17)" style="opacity:0.2"/><path d="M99.73,226h3.06m-2-45.9h6.12v2h-6.12v-2Zm1-9.18h5.1V174h-5.1V170.9Zm1-10.2h3.06v3.06h-3.06V160.7Zm1-4.08h1v2h-1v-2Zm3.06,9.18v3.06h-5.1V165.8h5.1Zm0,12.24h-6.12v-2h6.12v2Zm16.32,2h6.12v2h-6.12v-2Zm0-9.18h5.1V174h-5.1V170.9Zm1-10.2h3.06v3.06H124.2V160.7Zm1-4.08h1v2h-1v-2Zm3.06,9.18v3.06h-5.1V165.8h5.1Zm1,12.24h-6.12v-2h6.12v2Zm1,12.24v4.19h-3.69a1,1,0,0,0-.81-0.41h-3.68v-3.77h8.16Zm0-2h-8.16v-4.08h8.16v4.08Zm0,12.24h-3.06v-1a1.23,1.23,0,0,0-1-1v-2h4.08v4.08Zm0,5.1h-3.06v-3.06h3.06v3.06Zm0,6.12h-3.06v-4.08h3.06v4.08Zm0,6.12h-3.06v-4.08h3.06v4.08ZM124.21,198h-1.14v-1.83h1.14V198ZM125,221.17h-2.82v-1.79H125v1.79Zm-2.82-5.66H125v1.79h-2.82v-1.79Zm0-3.87H125v1.78h-2.82v-1.78Zm0-3.88H125v1.79h-2.82v-1.79Zm0-3.88H125v1.79h-2.82v-1.79Zm0-3.81H125v1.72h-2.82v-1.72ZM125,225h-2.82v-1.78H125V225Zm5.28-1.1h-3.06v-4.08h3.06v4.08Zm-20.4-24.48h10.2V229l-10.2,0V199.46ZM104.83,227h3.06m-8.16-7.14h3.06v4.08H99.73v-4.08Zm0-6.12h3.06v4.08H99.73v-4.08Zm0-6.12h3.06v4.08H99.73v-4.08Zm0-5.1h3.06v3.06H99.73v-3.06Zm0-6.12h4.08v2a1.24,1.24,0,0,0-1,1v1H99.73V196.4Zm0-6.12h8.16l-0.05,3.78h-3a1,1,0,0,0-.81.4l-4.27-.11v-4.08Zm8.16-2H99.73v-4.08h8.16v4.08Zm-0.05,17.43H105v-1.79h2.82v1.79Zm0,3.88H105v-1.79h2.82v1.79Zm0,3.87H105v-1.78h2.82v1.78Zm0,3.88H105V215.5h2.82v1.79Zm0,3.88H105v-1.79h2.82v1.79ZM107,198h-1.14v-1.83H107V198Zm-2,2.09h2.82v1.72H105v-1.72Zm2.82,25H105v-1.78h2.82V225Zm24.53,4V184.16a1,1,0,1,0,0-2h-1V176a1,1,0,0,0,0-2h-1V165.8a1,1,0,1,0,0-2h-1V160.7a1.22,1.22,0,0,0,1-1,1,1,0,0,0-1-1h-1v-2a1.15,1.15,0,0,0,1-1,1,1,0,0,0-1-1v-1c0-.07,0-1,0-1v-1a2.39,2.39,0,0,0-1.34-1.77v-7.34a1.18,1.18,0,0,0-1.19-1,1.08,1.08,0,0,0-1.15,1l0,7.41a2.55,2.55,0,0,0-1.44,1.77v1c0,0.07,0,1,0,1v1a1,1,0,0,0-1,1,1.15,1.15,0,0,0,1,1v2h-1a1,1,0,0,0-1,1,1.23,1.23,0,0,0,1,1v3.06h-1a1,1,0,1,0,0,2V174a1,1,0,1,0,0,2v6.12h-1a1,1,0,0,0,0,2v11.22h-10.2V184.16a1,1,0,1,0,0-2h-1V176a1,1,0,0,0,0-2V165.8a1,1,0,0,0,0-2h-1V160.7a1.23,1.23,0,0,0,1-1,1,1,0,0,0-1-1h-1v-2a1.15,1.15,0,0,0,1-1,1,1,0,0,0-1-1v-1c0-.07,0-1,0-1v-1a3,3,0,0,0-1.44-2v-7.14a1.07,1.07,0,0,0-1.11-1,1,1,0,0,0-1.06,1v7.14a3,3,0,0,0-1.49,2v2c0,0.07,0,1,0,1a1,1,0,0,0-1,1,1.15,1.15,0,0,0,1,1v2h-1a1,1,0,0,0-1,1,1.23,1.23,0,0,0,1,1v3.06h-1a1,1,0,1,0,0,2V174h-1a1,1,0,1,0,0,2v6.12h-1a1,1,0,0,0,0,2v44.77l12.2,0Q121.16,229,132.36,229Z" transform="translate(-16.2 -61.17)" style="fill:#414141"/><path d="M114.88,229.11a3.47,3.47,0,0,0-3.37-2.7,2.87,2.87,0,0,0-.82.1c0-.26.05-0.52,0.05-0.77a5.64,5.64,0,0,0-11.1-1.44,4.14,4.14,0,0,0-2.16-.59,4.24,4.24,0,0,0-4.22,4.22,4.19,4.19,0,0,0,.15,1.16h21.48v0Z" transform="translate(-16.2 -61.17)" style="fill:#d0fafc"/><path d="M141.16,229.21a3.47,3.47,0,0,0-3.37-2.7,2.87,2.87,0,0,0-.82.1c0-.26.05-0.52,0.05-0.77a5.64,5.64,0,0,0-11.1-1.44,4.14,4.14,0,0,0-2.16-.59,4.24,4.24,0,0,0-4.22,4.22,4.19,4.19,0,0,0,.15,1.16h21.48v0Z" transform="translate(-16.2 -61.17)" style="fill:#d0fafc"/><path d="M118.84,217.71a6.41,6.41,0,0,0-12-1.71,5.13,5.13,0,0,0,.55,10.23h11.14a4.28,4.28,0,0,0,4.27-4.29A4.21,4.21,0,0,0,118.84,217.71Z" transform="translate(-16.2 -61.17)" style="fill:#f8ffff"/><path d="M133.59,213.38a3.11,3.11,0,0,0-3.11,3.11,3.08,3.08,0,0,0,.07.65,2.67,2.67,0,0,0,1.56,4.83h6.81a2.37,2.37,0,0,0,.14-4.73,1.93,1.93,0,0,0-2.82-2.37A3.1,3.1,0,0,0,133.59,213.38Z" transform="translate(-16.2 -61.17)" style="fill:#fff"/><rect x="98.34" y="166.77" width="5.74" height="1.26" style="fill:#d0fafc"/><polygon points="144.5 52.78 143.4 48.94 166.61 48.94 169.73 52.77 144.5 52.78" style="fill:#dbc961"/><polygon points="142.1 44.41 162.91 44.41 166.15 48.39 143.24 48.39 142.1 44.41" style="fill:#dbc961"/><polygon points="132.19 9.72 130.94 5.35 134.52 9.72 132.19 9.72" style="fill:#dbc961"/><path d="M151.24,80.85L150,76.43h4.09a0.28,0.28,0,1,0,0-.56H149.8l-1.27-4.42h2.62l7.7,9.41h-7.62Z" transform="translate(-16.2 -61.17)" style="fill:#dbc961"/><polygon points="136.46 24.67 135.19 20.25 143.13 20.25 146.75 24.67 136.46 24.67" style="fill:#dbc961"/><polygon points="150.83 29.65 137.89 29.65 136.62 25.23 147.2 25.23 150.83 29.65" style="fill:#dbc961"/><polygon points="154.9 34.63 139.3 34.63 138.03 30.2 151.27 30.2 154.9 34.63" style="fill:#dbc961"/><path d="M165.65,101.05h9.76l3.25,4h-20.5l-1.14-4h5.76a0.28,0.28,0,1,0,0-.56h-5.91l-1.19-4.15h15.89l3.4,4.15h-9.3a0.28,0.28,0,0,0-.28.28A0.27,0.27,0,0,0,165.65,101.05Z" transform="translate(-16.2 -61.17)" style="fill:#dbc961"/><path d="M145.23,62.53L159.93,115h14.68Z" transform="translate(-16.2 -61.17)" style="fill:#c1ae52"/><polygon points="97.01 48.94 141.67 48.94 142.76 52.78 94.28 52.83 97.01 48.94" style="fill:#fff383"/><path d="M144.94,64.89l1.72,6h-5.33a0.28,0.28,0,0,0,0,.56h5.49l1.27,4.43H137.24Z" transform="translate(-16.2 -61.17)" style="fill:#fff383"/><polygon points="120.66 15.26 132.05 15.26 133.32 19.68 117.55 19.68 120.66 15.26" style="fill:#fff383"/><path d="M129.85,86.39H135a0.28,0.28,0,1,0,0-.56h-4.71l3.11-4.42h16.31l1.27,4.42H137a0.28,0.28,0,1,0,0,.56h14.1l1.27,4.42H126.74Z" transform="translate(-16.2 -61.17)" style="fill:#fff383"/><polygon points="110.16 30.2 136.31 30.2 137.58 34.63 107.05 34.63 110.16 30.2" style="fill:#fff383"/><polygon points="106.67 35.18 137.74 35.18 138.93 39.34 103.75 39.34 106.67 35.18" style="fill:#fff383"/><path d="M116.38,105.58h37.9a0.28,0.28,0,0,0,0-.56H116.77l2.78-4h35.73l2.42,8.49H113.59Z" transform="translate(-16.2 -61.17)" style="fill:#fff383"/><path d="M160.69,114l-1.1-3.84H182.8l3.13,3.83Zm-47.49-3.84h44.66L159,114l-48.49,0Zm45.1-4.52h20.8l3.25,4H159.43Zm-9.91-34.7-1.25-4.37,3.58,4.37h-2.33Zm2.85,10L150,76.43h4.09a0.28,0.28,0,0,0,0-.56H149.8l-1.27-4.42h2.62l7.7,9.41h-7.62Zm1.42,5-1.27-4.43h7.93L163,85.84H152.66Zm14.37,5H154.08l-1.27-4.42H163.4Zm4.07,5H155.5l-1.27-4.42h13.24ZM144.94,64.89l1.72,6h-5.33a0.28,0.28,0,0,0,0,.56h5.49l1.27,4.43H137.24Zm-8.09,11.54h11.39l1.27,4.42H133.74Zm-7,10H135a0.28,0.28,0,1,0,0-.56h-4.71l3.11-4.42h16.31l1.27,4.42H137a0.28,0.28,0,1,0,0,.56h14.1l1.27,4.42H126.74Zm-3.5,5h26.15l1.27,4.42H123.25Zm-3.49,5h31.08l1.19,4.15H119.94Zm-6.48,9.23h37.9a0.28,0.28,0,0,0,0-.56H116.77l2.78-4h35.73l2.42,8.49H113.59Zm49.27-4.53h9.76l3.25,4h-20.5l-1.14-4h5.76a0.28,0.28,0,1,0,0-.56h-5.91l-1.19-4.15h15.89l3.4,4.15h-9.3a0.28,0.28,0,0,0-.28.28A0.27,0.27,0,0,0,165.65,101.05Zm-20.4-39.47L108.44,114h-5a0.83,0.83,0,1,0,0,1.66l90.67-.07a0.83,0.83,0,1,0,0-1.66h-6Z" transform="translate(-16.2 -61.17)" style="fill:#414141;stroke:#414141;stroke-miterlimit:10;stroke-width:0.5px"/><path d="M228.2,123.66h-2.64a5.3,5.3,0,0,0-5.3,5.3,5.3,5.3,0,0,0-5.3-5.3h-2.64a2.65,2.65,0,0,1-2.65-2.65v4a6.62,6.62,0,0,0,6.62,6.62h1.32a1.33,1.33,0,0,1,1.32,1.32v2.2a7.06,7.06,0,0,1-7.06,7.06h-41v3.53a17.65,17.65,0,0,0,17.65,17.65h4.85a29.19,29.19,0,0,0,3.27-.19,14,14,0,0,0,9.53,3.72,9.92,9.92,0,0,1-5-4.62,28.25,28.25,0,0,0,20.47-27.15v-2.2a1.33,1.33,0,0,1,1.32-1.32h1.32a6.62,6.62,0,0,0,6.62-6.62v-4A2.65,2.65,0,0,1,228.2,123.66Z" transform="translate(-16.2 -61.17)" style="fill:#a4f9ff;stroke:#414141;stroke-linejoin:round;stroke-width:1.75px"/><path d="M206.15,166.9A14.12,14.12,0,0,1,192,152.78,14.12,14.12,0,0,0,206.15,166.9Z" transform="translate(-16.2 -61.17)" style="fill:none;stroke:#414141;stroke-linejoin:round;stroke-width:1.75px"/><path d="M192.49,156.31H185a14.11,14.11,0,0,1-14.12-14.12v3.53a17.65,17.65,0,0,0,17.65,17.65h4.85a28.4,28.4,0,0,0,3.28-.19A14.06,14.06,0,0,1,192.49,156.31Z" transform="translate(-16.2 -61.17)" style="fill:#9aebed;stroke:#414141;stroke-linejoin:round;stroke-width:1.75px"/><path d="M206.15,156.31h-6.06a10,10,0,0,0,1,6A28.25,28.25,0,0,0,215.2,153,14,14,0,0,1,206.15,156.31Z" transform="translate(-16.2 -61.17)" style="fill:#fff;stroke:#414141;stroke-linejoin:round;stroke-width:2px"/><path d="M182.77,151a1.32,1.32,0,0,1-2.65,0,1.32,1.32,0,1,1,2.65,0" transform="translate(-16.2 -61.17)" style="fill:#fff;stroke:#414141;stroke-linejoin:round"/></svg>