<svg id="fc4ade3e-f65f-497f-b496-bc3b09275a8b" data-name="Layer 1" xmlns="http://www.w3.org/2000/svg" xmlns:xlink="http://www.w3.org/1999/xlink" viewBox="0 0 585.22 394.1"><defs><linearGradient id="1e9f08c4-5885-4322-ac11-abc6321e6e05" x1="589.15" y1="233.83" x2="231.63" y2="591.35" gradientUnits="userSpaceOnUse"><stop offset="0" stop-color="#fffce9"/><stop offset="1" stop-color="#e9fff7"/></linearGradient><linearGradient id="7c711bf1-4757-4d58-b66c-5d9f2f3abfd9" x1="-5.43" y1="623.16" x2="14.12" y2="623.16" gradientTransform="matrix(-0.81, 0.58, -0.58, -0.81, 958.28, 846.56)" gradientUnits="userSpaceOnUse"><stop offset="0" stop-color="#a2ff94"/><stop offset="1" stop-color="#c1fff7"/></linearGradient><linearGradient id="aed6c39a-6aa4-45a0-9054-6ffd0fa46bb4" x1="274.19" y1="839.04" x2="289.03" y2="839.04" xlink:href="#7c711bf1-4757-4d58-b66c-5d9f2f3abfd9"/><linearGradient id="3c047b4d-e0a4-4377-868b-510e7694d6b7" x1="506.37" y1="223.25" x2="451.92" y2="262.23" gradientTransform="matrix(1, 0, 0, 1, 0, 0)" xlink:href="#7c711bf1-4757-4d58-b66c-5d9f2f3abfd9"/><linearGradient id="8ab2efd6-9276-4c9d-b5a2-ef5af17bd80a" x1="3.93" y1="769.89" x2="71.89" y2="769.9" xlink:href="#7c711bf1-4757-4d58-b66c-5d9f2f3abfd9"/><linearGradient id="6db43d0a-8125-42c9-a137-f88ffdbc10ab" x1="23.37" y1="520.99" x2="53.37" y2="520.99" xlink:href="#7c711bf1-4757-4d58-b66c-5d9f2f3abfd9"/><linearGradient id="de33ceff-5d39-4230-852d-5a3fa06b5d3d" x1="22.87" y1="520.99" x2="53.87" y2="520.99" xlink:href="#7c711bf1-4757-4d58-b66c-5d9f2f3abfd9"/><linearGradient id="6522f976-d79c-4448-b80d-7f20b1c36a11" x1="393.36" y1="810.54" x2="422.17" y2="810.54" xlink:href="#7c711bf1-4757-4d58-b66c-5d9f2f3abfd9"/></defs><title>Untitled-1</title><path d="M666.18,337c51.37,107.07,33.48,224.17-128.32,230.75-169.08,6.88-225.68,12.93-302.37-13-399.07-135,238-619.43,430.69-217.73" transform="translate(-106.55 -180.84)" style="fill-rule:evenodd;fill:url(#1e9f08c4-5885-4322-ac11-abc6321e6e05)"/><path d="M304.66,253.39l7-23.06,16.46,17.49ZM302.13,256h0a1.22,1.22,0,0,0,1,.21l27.55-6.55a1.23,1.23,0,0,0,.62-2L312,227.11a1.23,1.23,0,0,0-2.06.49l-8.2,27.11A1.23,1.23,0,0,0,302.13,256Z" transform="translate(-106.55 -180.84)" style="fill:#c7f9ec"/><path d="M408,315.91a13.64,13.64,0,1,1,3.15-19A13.63,13.63,0,0,1,408,315.91Zm0.79,1.11a15,15,0,1,0-20.93-3.46A15,15,0,0,0,408.83,317Z" transform="translate(-106.55 -180.84)" style="fill:#92f7df;stroke:#92f7df;stroke-miterlimit:10"/><path d="M595.12,351.44a1.45,1.45,0,0,0,1.78-2l-3.08-6.27,6.27-3.08a1.45,1.45,0,0,0-1.28-2.61l-6.27,3.08-3.08-6.27a1.45,1.45,0,0,0-2.61,1.28l3.08,6.27-6.27,3.08a1.45,1.45,0,0,0,1.28,2.61l6.27-3.08,3.08,6.27A1.45,1.45,0,0,0,595.12,351.44Z" transform="translate(-106.55 -180.84)" style="fill:url(#7c711bf1-4757-4d58-b66c-5d9f2f3abfd9)"/><path d="M249.93,331a1.45,1.45,0,0,0-.61-2.62l-6.89-1.14,1.14-6.89a1.45,1.45,0,1,0-2.87-.47l-1.14,6.89-6.89-1.14a1.45,1.45,0,1,0-.47,2.87l6.89,1.14-1.14,6.89a1.45,1.45,0,0,0,2.87.47l1.14-6.89,6.89,1.14A1.45,1.45,0,0,0,249.93,331Z" transform="translate(-106.55 -180.84)" style="fill:url(#aed6c39a-6aa4-45a0-9054-6ffd0fa46bb4)"/><path d="M512.75,330.18l15.53,39.45a1.73,1.73,0,0,0,3.22-1.27L516,328.91C515.18,326.87,512,328.14,512.75,330.18Z" transform="translate(-106.55 -180.84)" style="fill:#caede5"/><path d="M245.41,537.73c-2.44-2.84-.22-7,1.91-11.07,1.87-3.58,3.8-7.21,2.07-9.23s-5.62-.67-9.44.63c-4.31,1.5-8.8,3-11.24.2s-0.22-7,1.91-11.07c1.87-3.58,3.8-7.21,2.06-9.23s-5.62-.67-9.44.63c-4.31,1.5-8.8,3-11.24.2s-0.22-7,1.91-11.07c1.87-3.58,3.8-7.21,2.07-9.23a0.83,0.83,0,0,1,1.26-1.08c2.44,2.84.23,7-1.91,11.07-1.87,3.58-3.8,7.21-2.07,9.23s5.62,0.67,9.44-.63c4.31-1.5,8.8-3,11.23-.2s0.23,7-1.91,11.07c-1.87,3.58-3.8,7.21-2.07,9.23s5.62,0.67,9.44-.63c4.31-1.5,8.8-3,11.24-.2s0.23,7-1.91,11.07c-1.87,3.58-3.8,7.21-2.07,9.23A0.83,0.83,0,0,1,245.41,537.73Z" transform="translate(-106.55 -180.84)" style="fill:#92f7df;stroke:#92f7df;stroke-miterlimit:10"/><path d="M509.3,228.66c-2.84,2.44-7,.23-11.07-1.91-3.58-1.87-7.21-3.8-9.23-2.06s-0.67,5.62.63,9.44c1.5,4.31,3,8.8.21,11.24s-7,.23-11.07-1.91c-3.58-1.87-7.21-3.8-9.23-2.06s-0.67,5.62.63,9.44c1.5,4.31,3,8.8.2,11.24s-7,.23-11.07-1.91c-3.58-1.87-7.21-3.8-9.23-2.06a0.83,0.83,0,1,1-1.08-1.26c2.84-2.44,7-.23,11.07,1.91,3.58,1.87,7.21,3.8,9.23,2.06s0.67-5.62-.63-9.44c-1.5-4.31-3-8.79-.2-11.23s7-.23,11.07,1.91c3.58,1.87,7.21,3.8,9.23,2.06s0.67-5.62-.64-9.44c-1.5-4.31-3-8.8-.2-11.24s7-.23,11.07,1.91c3.58,1.87,7.21,3.8,9.23,2.06A0.83,0.83,0,0,1,509.3,228.66Z" transform="translate(-106.55 -180.84)" style="stroke-miterlimit:10;fill:url(#3c047b4d-e0a4-4377-868b-510e7694d6b7);stroke:url(#8ab2efd6-9276-4c9d-b5a2-ef5af17bd80a)"/><path d="M631.65,456.45a13.64,13.64,0,1,1,3.15-19A13.63,13.63,0,0,1,631.65,456.45Zm0.79,1.11a15,15,0,1,0-20.93-3.46A15,15,0,0,0,632.44,457.56Z" transform="translate(-106.55 -180.84)" style="stroke-miterlimit:10;fill:url(#6db43d0a-8125-42c9-a137-f88ffdbc10ab);stroke:url(#de33ceff-5d39-4230-852d-5a3fa06b5d3d)"/><path d="M152.36,441.69l-10.87-21.5,24,1.28Zm0,3.67h0a1.22,1.22,0,0,0,.9-0.57L168.66,421a1.23,1.23,0,0,0-1-1.9l-28.2-1.51a1.23,1.23,0,0,0-1.15,1.78l12.79,25.27A1.23,1.23,0,0,0,152.35,445.36Z" transform="translate(-106.55 -180.84)" style="fill:url(#6522f976-d79c-4448-b80d-7f20b1c36a11)"/><polygon points="114.78 371.61 140.24 371.53 140.24 392.35 114.78 392.35 114.78 371.61" style="fill:#c9ad9b;fill-rule:evenodd"/><rect x="114.78" y="371.53" width="25.59" height="7.82" style="fill:#b79f91"/><polygon points="214.61 371.61 240.06 371.53 240.06 392.35 214.61 392.35 214.61 371.61" style="fill:#c9ad9b;fill-rule:evenodd"/><path d="M221.33,573.2c0.87-.87-1.06-17.91,0-18.52,2-1.15,23-.89,24.85-0.89,2,0-.51,19.41.6,19.41h74.38c1.64,0-1.45-19.41,0-19.41,4.27,0,24.81-.71,24.81,0,0,6.19.64,19.41,0.64,19.41V542c-0.95-18.3-9-29-20.39-35.31-8.1-4.7-18.11-8.14-24.71-11.86-14.38-8.11-22.81-14.31-31.53-4-4.53,5.36-20.83,11.65-28.59,15.86-20.32,12.21-19.2,33.31-20.06,44.48v22" transform="translate(-106.55 -180.84)" style="fill:#f9a0a0;fill-rule:evenodd"/><rect x="214.61" y="371.53" width="25.59" height="7.82" style="fill:#b79f91"/><path d="M221.33,574.37c0.87-.87-1.06-19.24,0-19.85,2-1.15,23-.89,24.85-0.89,2,0-.51,19.57.6,19.57h15.8c0.4-.88.25-25.32,0.29-27.25,0.15-7.74.22-13.88,1.57-21.3,1-5.41,8.71-16.28,8.71-17,0-.52-2.89-3.06-4.05-5.73-1.24-2.86-.78-5.88-1.49-6.72-0.34-.4-9,4.47-9.63,4.61-1.29.65-2.61,1.29-3.93,1.92l-0.18.09c-4.66,2.22-9.3,4.31-12.49,6-20.32,12.21-19.2,32-20.06,43.15v23.33" transform="translate(-106.55 -180.84)" style="fill:#fcb1b1;fill-rule:evenodd"/><path d="M266.75,494.63c3.26,14.43,11.82,17.5,18.19,16.84,4.35-.45,14.32-3,15.39-16.62-3.25-3.91-2.37-3-2.4-12.22-8.9,3.67-18.55,2.83-28.25-.91,0,9.88,1.21,9.13-2.92,12.91" transform="translate(-106.55 -180.84)" style="fill:#c9ad9b;fill-rule:evenodd"/><path d="M270.86,482.47c-2-2.36-1.86,1.3-1.86,4.72,0,6,14.13,6,16.83,6,6.81-.14,13.07-1.61,13.07-4.91,0-4.23,2-8.6-3.39-5.24-3.39,2.1-13.73,1.64-17.73,1.06-1.05-.15-7-1.76-6.92-1.63" transform="translate(-106.55 -180.84)" style="fill:#b79f91;fill-rule:evenodd"/><path d="M245,547.66a1.75,1.75,0,1,1,3.5,0V573.2a1.75,1.75,0,1,1-3.5,0V547.66Z" transform="translate(-106.55 -180.84)" style="fill:#414141"/><path d="M319.41,547.66a1.75,1.75,0,1,1,3.5,0V573.2a1.75,1.75,0,0,1-3.5,0V547.66Z" transform="translate(-106.55 -180.84)" style="fill:#414141"/><path d="M317.94,390.24a7.79,7.79,0,0,1,6.69,4.75,52.13,52.13,0,0,1,3.16,17.75l2.17,0.76q1.41-8.88.21-27.76-3.43-17.5-28.69-22.86-5.21-6.14-30.23-3.15-24.17,5-32.34,20.77a9.06,9.06,0,0,0-3.16,3.16q-1.61,17.91,1.17,30.44,3.09,0.61,2.72,0-1.3-22.36,3.88-23.34a53.55,53.55,0,0,1,33.09,6.53q6.76,5.13,9,2.74,8.11-8,13.51-7.67a25.25,25.25,0,0,1,18.55,7q3.47-3.1.24-9.11" transform="translate(-106.55 -180.84)" style="fill:#68574b;fill-rule:evenodd"/><path d="M327.79,408.45v30.49c0,26.72-25.14,46.27-44.08,46.27s-44.08-19.55-44.08-46.27V404.66c0-4.15-1.91-14.29,8.31-14.29,19,0.88,22.63,4.18,32.32,9.55,3,1.65,4.56,0,7.43-2,5.18-3.68,5-5.47,14.77-5.39,5,0,9.6,3.65,14.8,6.56,3.06,1.71,1.9-8.78,2.88-8,7,5.77,7.63,17.37,7.63,17.37" transform="translate(-106.55 -180.84)" style="fill:#c9ad9b;fill-rule:evenodd"/><path d="M242.09,391.75c-0.67-3.54,10.64-1.87,13.29-1.38,4.23,0.78,18.54,6.89,21,4.47,2.75-2.68-5.12-9.6-.37-12.93,7.36-5.16,4.39-14.3,25.45-17.82,0.34-.06-2.84-3-5.61-3.87-4.14-1.28-16.33-1.62-20.2,0-4.05,1.67-17.4,2-20.63,5.19-0.25.24-4.73,3-6.58,4.66-1.18,1.06-9.46,9.45-9.77,10.47-0.86,2.84-2.9-1.79-2.9,8.68,0,4,1.1,5.75.58,10.56-0.08.73,0.34,15.85,3.19,12.21,0.71-.91-0.2-10.35,1.25-13.85a35.94,35.94,0,0,0,1.28-6.37" transform="translate(-106.55 -180.84)" style="fill:#75645a;fill-rule:evenodd"/><path d="M248.61,391.93c0,2.68-.89,18.33-0.69,28.95,0.69,37-2.78,35.05,10.86,54.16,2.67,3.74-8.26-4.6-10.5-8.7-2.88-5.28-6.53-13-7.31-19.85-1.38-12.18-.68-37.72-0.68-50.22,0.81,0,1.33-3,3.23-5s5.09,0,5.09.64" transform="translate(-106.55 -180.84)" style="fill:#d3b7a7;fill-rule:evenodd"/><path d="M275.79,402.64h0c2.59,1.7,5.53,4.7,8.46,4.33,5.75-.73,10.07-8.78,19.62-8.78,5.12,0,10.39,7.11,13.82,7.11a11.9,11.9,0,0,0,3.49-1.14c3.94-2,7.88,6.92,2.86-8.24-0.78-2.36,1.13-.68-1.69-3.2-5.7-5.08-1.86,0-3.2,6.49-3.53,1.37-5.63-5-12.59-5.59-12.33-1-11.32-1.19-15,2.25a54.41,54.41,0,0,1-7.38,5.83,3.92,3.92,0,0,1-.66-0.34,6.47,6.47,0,0,0-1,.11c-0.32-.11-0.6-0.22-0.77-0.29-3.69-1.52-12.46-7.76-15.82-8.25-4.16-.61-15.54-4-19-1.33a97.22,97.22,0,0,1,17.13,4.5,65.05,65.05,0,0,1,11.76,6.53" transform="translate(-106.55 -180.84)" style="fill:#b79f91;fill-rule:evenodd"/><path d="M257.55,427.29a1.74,1.74,0,1,1-3.49.11,7.45,7.45,0,0,1,1-3.9,7.62,7.62,0,0,1,2.84-2.87,7.79,7.79,0,0,1,7.82,0,7.63,7.63,0,0,1,2.84,2.87,7.45,7.45,0,0,1,1,3.9,1.74,1.74,0,0,1-3.49-.11,4,4,0,0,0-.51-2.08,4.13,4.13,0,0,0-1.54-1.55,4.36,4.36,0,0,0-4.32,0,4.13,4.13,0,0,0-1.54,1.55,4,4,0,0,0-.51,2.08" transform="translate(-106.55 -180.84)" style="fill:#414141"/><path d="M301.47,427.29a1.74,1.74,0,0,1-3.49.11,7.45,7.45,0,0,1,.95-3.9,7.63,7.63,0,0,1,2.84-2.87,7.79,7.79,0,0,1,7.82,0,7.63,7.63,0,0,1,2.84,2.87,7.46,7.46,0,0,1,.95,3.9,1.74,1.74,0,1,1-3.49-.11,4,4,0,0,0-.51-2.08,4.14,4.14,0,0,0-1.54-1.55,4.36,4.36,0,0,0-4.32,0,4.13,4.13,0,0,0-1.54,1.55,4,4,0,0,0-.51,2.08" transform="translate(-106.55 -180.84)" style="fill:#414141"/><path d="M301.19,364.61a1.75,1.75,0,0,1,.59-3.45c8.24,1.42,16,4.83,21.62,9.61C328.67,375.3,332,381,332,387.53c0,3.27.11,6.24,0.21,9.09,0.24,6.45.45,12.34-.56,17.23a1.75,1.75,0,0,1-.22.57h0a5.4,5.4,0,0,1-1.68,1.65l-0.06,1.15c0.4,11.9-.09,13.72-0.8,11.69-0.71,7.09-1.76,9.51-2.86-16.09h0c-0.4-8.46-1.37-13.73-2.91-16.9a7.26,7.26,0,0,0-2.33-2.91,12.16,12.16,0,0,1,.48,3.16,5.48,5.48,0,0,1-2.37,4.87,1.75,1.75,0,0,1-2.21-.21,31.93,31.93,0,0,0-9.38-5.7,17,17,0,0,0-8.66-.94c-4,.65-6.76,3-9,5-3.3,2.81-5.8,4.93-9.55,2.25a54.71,54.71,0,0,0-35.54-9.2,4.09,4.09,0,0,0-2.28,2.55c-0.67,1.91-1,5.09-.86,10.6a1.74,1.74,0,0,1-3.49.05c-0.1-6,.25-9.51,1.06-11.81a7.29,7.29,0,0,1,4.37-4.69h0a1.73,1.73,0,0,1,.57-0.15q20.33-1.88,38.1,9.73h0l0.07,0c1.56,1.14,3.17-.23,5.3-2,2.61-2.22,5.8-4.94,10.74-5.74a20.39,20.39,0,0,1,10.41,1.11,33.83,33.83,0,0,1,9.15,5.28,3.44,3.44,0,0,0,.12-1,13.86,13.86,0,0,0-1.44-5.24h0a1.74,1.74,0,0,1,1.77-2.44c3.48,0.34,6.21,1.86,8.18,5.9A34.12,34.12,0,0,1,328.93,405c0-2.6-.09-5.39-0.19-8.3s-0.23-6.21-.23-9.21c0-5.38-2.86-10.23-7.39-14.1-5.11-4.37-12.29-7.5-19.93-8.82" transform="translate(-106.55 -180.84)" style="fill:#414141"/><path d="M238.63,413.73c0.28,0.83.77,2.44,0.37,2.67s-1.9-1.46-2.26-1.88c-1.61-1.93-2.59-4.64-3.24-14.23a123,123,0,0,1,.52-16.78,1.74,1.74,0,0,1,.18-0.64h0a8.11,8.11,0,0,1,1.52-2h0a13.92,13.92,0,0,1,1.86-1.53,35.83,35.83,0,0,1,12.57-13.36q8.35-5.36,20.77-7.92l0.14,0h0q12.69-1.52,20.45-.71,8.26,0.86,11.32,4.47a1.75,1.75,0,0,1-2.67,2.26q-2.15-2.54-9-3.25-7.34-.76-19.65.7-11.68,2.42-19.46,7.42a32.32,32.32,0,0,0-11.56,12.42h0a1.74,1.74,0,0,1-.58.65,11.13,11.13,0,0,0-1.7,1.36h0a5.17,5.17,0,0,0-.73.89,84.75,84.75,0,0,0,1.76,30.54" transform="translate(-106.55 -180.84)" style="fill:#414141"/><path d="M292.2,460.07a1.75,1.75,0,0,1,1.65,3.08,23,23,0,0,1-11.07,2.64,19.81,19.81,0,0,1-10.48-3,15.43,15.43,0,0,1-3.76-3.42,15.2,15.2,0,0,1-2.41-4.45,1.74,1.74,0,1,1,3.29-1.13,11.74,11.74,0,0,0,1.86,3.43,11.93,11.93,0,0,0,2.91,2.64,16.3,16.3,0,0,0,8.62,2.44,19.44,19.44,0,0,0,9.37-2.23" transform="translate(-106.55 -180.84)" style="fill:#414141"/><path d="M268.26,483a1.75,1.75,0,0,1,3.5,0v7.49c0,2.64-2.78,5.16-7.12,7.51A105.73,105.73,0,0,1,250,504a42.46,42.46,0,0,0-10,5.12,39,39,0,0,0-8,7.26h0a42.13,42.13,0,0,0-6.15,11.18,49.6,49.6,0,0,0-2.81,13.15V573.2a1.75,1.75,0,0,1-3.5,0V540.69h0s0-.09,0-0.14a53.14,53.14,0,0,1,3-14.17,45.6,45.6,0,0,1,6.65-12.09h0l0,0a42.46,42.46,0,0,1,8.79-8,46,46,0,0,1,10.81-5.54,102.35,102.35,0,0,0,14.1-5.87c3.22-1.74,5.28-3.29,5.28-4.43V483Z" transform="translate(-106.55 -180.84)" style="fill:#414141"/><path d="M296.18,483a1.75,1.75,0,1,1,3.5,0v7.49c0,1.14,2.06,2.7,5.28,4.43a102.37,102.37,0,0,0,14.1,5.87,46,46,0,0,1,10.81,5.54,42.45,42.45,0,0,1,8.79,8l0,0h0a45.59,45.59,0,0,1,6.65,12.09,53.15,53.15,0,0,1,3,14.17,1.77,1.77,0,0,1,0,.27v29.55a1.74,1.74,0,0,1-3.49,0V540.83A49.66,49.66,0,0,0,342,527.59a42.13,42.13,0,0,0-6.15-11.18h0a39,39,0,0,0-8-7.26,42.47,42.47,0,0,0-10-5.12A105.79,105.79,0,0,1,303.3,498c-4.34-2.34-7.12-4.87-7.12-7.51V483Z" transform="translate(-106.55 -180.84)" style="fill:#414141"/><path d="M246.78,552.3a1.75,1.75,0,1,1,0,3.5H221.33a1.75,1.75,0,0,1,0-3.5h25.45Z" transform="translate(-106.55 -180.84)" style="fill:#414141"/><path d="M346,552.3a1.75,1.75,0,1,1,0,3.5H321.46a1.75,1.75,0,0,1,0-3.5H346Z" transform="translate(-106.55 -180.84)" style="fill:#414141"/><path d="M265.91,493.84a1.75,1.75,0,0,1,3.49.25,14.61,14.61,0,1,0,29.15,0,1.75,1.75,0,0,1,3.49-.25,18.11,18.11,0,1,1-36.12,0" transform="translate(-106.55 -180.84)" style="fill:#414141"/><path d="M326,412.75a1.75,1.75,0,1,1,3.5,0v24.77h0c0,14.28-6.51,26.64-15.46,35.42s-20.45,14-30.36,14h0c-9.9,0-21.39-5.23-30.36-14s-15.46-21.13-15.46-35.42h0V405.39a1.75,1.75,0,1,1,3.5,0v32.13h0c0,13.25,6.07,24.74,14.42,32.93s18.88,13,27.91,13h0c9,0,19.58-4.85,27.91-13S326,450.77,326,437.52h0V412.75Z" transform="translate(-106.55 -180.84)" style="fill:#414141"/><path d="M458.89,572.55H571.21V547c-0.85-15.76-8.05-29.92-23.07-37.17H482c-5.56,2.87-10.09,7.19-15.6,14-5,6.47-6.75,14.2-7.47,23.19v25.58" transform="translate(-106.55 -180.84)" style="fill:#ffea8f;fill-rule:evenodd"/><path d="M482.47,510.49c2.31-.29,20.43,9.54,16.93,9-11.89-2-8,47.15-8.94,53,0,0-24.6.15-28,.15,0,0-3.91-.11-3.91-0.87,0-10.09-.73-31.59,2-39.37,2.42-6.88,17.1-21.2,21.94-21.82" transform="translate(-106.55 -180.84)" style="fill:#fff3bf;fill-rule:evenodd"/><path d="M483.83,508.72c13,7.38,28,17.13,31.61,18.1,3.11,0.83,29.6-17,30.22-18.29,0,0-11.69-3.32-16.14-8.09-2.86-3.07-.77-3.19-0.81-12-8.56,5.18-17.93,5.05-26.48-.12,0,5.3,1.17,7.93-.89,11-4.71,7-17.52,9.44-17.52,9.44" transform="translate(-106.55 -180.84)" style="fill:#fbe3d5;fill-rule:evenodd"/><path d="M503.29,488.9c-1.78-2-1.66,1.1-1.66,4,0,5.06,12.67,5.1,15.09,5.05,6.1-.12,11.71-1.35,11.71-4.14,0-3.57,1.81-7.25-3-4.41-3,1.78-12.31,1.38-15.89.9-0.94-.13-6.31-1.49-6.21-1.37" transform="translate(-106.55 -180.84)" style="fill:#d5b6a5;fill-rule:evenodd"/><path d="M500.79,489.33a1.75,1.75,0,0,1,3.5,0v6.79c0,5.82-8.34,9.37-15.18,12.28-1.7.72-3.31,1.4-4.59,2a46.44,46.44,0,0,0-8,5,53.52,53.52,0,0,0-7.95,7.69,35.64,35.64,0,0,0-5.46,9.55,41,41,0,0,0-2.5,11.24v25.89a1.75,1.75,0,1,1-3.5,0V543.86h0s0-.1,0-0.14a44.52,44.52,0,0,1,2.73-12.28,39.1,39.1,0,0,1,6-10.49h0l0,0a57,57,0,0,1,8.49-8.21,50,50,0,0,1,8.57-5.39c1.39-.69,3-1.38,4.77-2.12,5.88-2.5,13-5.54,13-9.06v-6.79Z" transform="translate(-106.55 -180.84)" style="fill:#414141"/><path d="M482.87,510.64a1.75,1.75,0,0,1,1.75-3L515,525.2l30.34-17.62a1.74,1.74,0,0,1,1.55-.1h0l0.09,0a1.75,1.75,0,0,1-.3,3.32l-30.78,17.88a1.75,1.75,0,0,1-1.77,0Z" transform="translate(-106.55 -180.84)" style="fill:#414141"/><path d="M525.55,489.33a1.75,1.75,0,0,1,3.5,0v6.79c0,3.52,7.17,6.57,13,9.06,1.74,0.74,3.39,1.44,4.77,2.12a49.93,49.93,0,0,1,8.57,5.39,57,57,0,0,1,8.49,8.21l0,0h0a39.1,39.1,0,0,1,6,10.49,44.53,44.53,0,0,1,2.73,12.28s0,0.1,0,.14h0v27.82a1.75,1.75,0,1,1-3.5,0V543.92a41,41,0,0,0-2.5-11.24,35.65,35.65,0,0,0-5.46-9.55,53.5,53.5,0,0,0-7.95-7.69,46.43,46.43,0,0,0-8-5c-1.29-.64-2.89-1.32-4.59-2-6.84-2.91-15.18-6.45-15.18-12.28v-6.79Z" transform="translate(-106.55 -180.84)" style="fill:#414141"/><path d="M546.64,547.66a1.75,1.75,0,1,1,3.5,0v24a1.75,1.75,0,1,1-3.5,0v-24Z" transform="translate(-106.55 -180.84)" style="fill:#414141"/><path d="M480.32,547.66a1.75,1.75,0,1,1,3.5,0v24a1.75,1.75,0,1,1-3.5,0v-24Z" transform="translate(-106.55 -180.84)" style="fill:#414141"/><path d="M460.94,544.79a1.75,1.75,0,0,1,3.5,0v25.57a1.75,1.75,0,0,1-3.5,0V544.79Z" transform="translate(-106.55 -180.84)" style="fill:#20385e"/><path d="M330.25,573.17H464.49V541.75c-1-18.44-9.62-29.24-21.85-35.58-8.68-4.73-19.41-8.2-26.48-12-15.41-8.18-24.44-14.42-33.79-4-4.86,5.4-22.32,11.74-30.63,16-21.78,12.31-20.57,32.23-21.49,43.49v23.52" transform="translate(-106.55 -180.84)" style="fill:#b2d8f7;fill-rule:evenodd"/><path d="M370.77,498c1.24-.15,1.89,2.2,5.6,4.76,4.51,3.11,9.28,4,7,3.6-14.21-2.33-10.38,60-11.55,66.78H334.5s-4.68-.13-4.68-1c0-11.81-.88-30.55,2.39-39.65,1.42-4,3.09-12.13,10.29-19.47,7.38-7.53,25.34-14.63,28.27-15" transform="translate(-106.55 -180.84)" style="fill:#b9e1fc;fill-rule:evenodd"/><path d="M369.47,498.57c11.86,10.75,39.08,16.71,55.38-.17-15-7.61-12.49-7.21-12.53-16.51-9.53,3.7-19.87,2.85-30.27-.92,0,10,2.78,11.31-12.58,17.6" transform="translate(-106.55 -180.84)" style="fill:#fbe3d5;fill-rule:evenodd"/><path d="M383.32,481.73c-2.13-2.38-2,1.31-2,4.76,0,6,15.14,6.09,18,6,7.3-.14,14-1.62,14-5,0-4.27,2.17-8.66-3.63-5.28-3.63,2.12-14.71,1.66-19,1.07-1.13-.15-7.54-1.78-7.42-1.64" transform="translate(-106.55 -180.84)" style="fill:#d5b6a5;fill-rule:evenodd"/><path d="M355.77,547.66a1.75,1.75,0,1,1,3.5,0v25.51a1.75,1.75,0,1,1-3.5,0V547.66Z" transform="translate(-106.55 -180.84)" style="fill:#414141"/><path d="M435.47,547.66a1.75,1.75,0,0,1,3.5,0v25.51a1.75,1.75,0,0,1-3.5,0V547.66Z" transform="translate(-106.55 -180.84)" style="fill:#414141"/><path d="M369.74,499.47a1.75,1.75,0,1,1,2.49-2.45l0.38,0.38a34.52,34.52,0,0,0,48.91,0l0.38-.38a1.75,1.75,0,1,1,2.49,2.45l-0.43.43a38,38,0,0,1-53.8,0l-0.43-.43" transform="translate(-106.55 -180.84)" style="fill:#414141"/><path d="M380.67,482.22a1.75,1.75,0,1,1,3.5,0v7.55c0,2.68-3,5.22-7.61,7.58a117,117,0,0,1-15.62,6.13,46.79,46.79,0,0,0-10.72,5.17,41.07,41.07,0,0,0-8.64,7.35A41.77,41.77,0,0,0,335,527.24a47.37,47.37,0,0,0-3,13.23v32.7a1.75,1.75,0,1,1-3.5,0V540.41h0s0-.1,0-0.14a50.91,50.91,0,0,1,3.25-14.3,45.23,45.23,0,0,1,7.13-12.19l0,0a44.53,44.53,0,0,1,9.4-8,50.38,50.38,0,0,1,11.54-5.57A113.87,113.87,0,0,0,375,494.23c3.46-1.76,5.68-3.32,5.68-4.46v-7.55Z" transform="translate(-106.55 -180.84)" style="fill:#414141"/><path d="M410.57,482.22a1.75,1.75,0,1,1,3.5,0v7.55c0,1.13,2.22,2.7,5.68,4.46a113.86,113.86,0,0,0,15.13,5.92,50.37,50.37,0,0,1,11.54,5.57,44.53,44.53,0,0,1,9.4,8l0,0A45.22,45.22,0,0,1,463,526a50.91,50.91,0,0,1,3.25,14.3s0,0.1,0,.14h0v32.76a1.75,1.75,0,0,1-3.5,0v-32.7a47.37,47.37,0,0,0-3-13.23A41.77,41.77,0,0,0,453.17,516a41.08,41.08,0,0,0-8.64-7.35,46.78,46.78,0,0,0-10.72-5.17,117,117,0,0,1-15.62-6.13c-4.64-2.35-7.61-4.9-7.61-7.58v-7.55Z" transform="translate(-106.55 -180.84)" style="fill:#414141"/><path d="M569.66,487.38V412c0-31.68-30.81-54.86-54-54.86s-54,23.18-54,54.86v75.33h108Z" transform="translate(-106.55 -180.84)" style="fill:#393c3f;fill-rule:evenodd"/><path d="M472.36,421.42A37.92,37.92,0,0,0,487.62,408a36.23,36.23,0,0,0,4-8.4A52.9,52.9,0,0,1,503.94,373a45.73,45.73,0,0,1,16.8-11.9c2.3-.95,7.1-0.08,8.73-1.78a47.42,47.42,0,0,0-42.17,7.27,56.19,56.19,0,0,0-23.92,32.9c-1.09,2.56-1.62,4.91-1.57,10.66-0.89,17.23-1.1,27.75-.64,35.94l0.42,41.09,31.63,0,2-1.85-15.38-13.88-7-21Z" transform="translate(-106.55 -180.84)" style="fill:#4b4d4f;fill-rule:evenodd"/><path d="M461.61,487.21h3.23c1.89,0,.64-39.24,1.46-67.45,0.45-15.59,2.35-24.17,5.18-29.5a81.41,81.41,0,0,1,9.09-12.84c9.08-10.71,23.77-17.81,37.47-17.81,1.28,0,1.25-1.42-1.85-1.82a61.3,61.3,0,0,0-8-.24c-24.28,4-43.14,24.39-46.34,50-0.17,22.24-.24,70-0.2,79.63" transform="translate(-106.55 -180.84)" style="fill:#696b6d;fill-rule:evenodd"/><path d="M558.44,424v24.32c0,25.11-24.42,43.47-42.81,43.47s-42.81-18.37-42.81-43.47V421.42c0.31-.18,2.11-4,4-4.47,1.7-.41,1.4-0.85,4-1.33,5.44-1,19.32,4.5,27,3.44,8.08-1.11,12.81-5.94,18.63-8.17a54.74,54.74,0,0,1,16.29-3.39c6,9.52,15.65,16.5,15.65,16.5" transform="translate(-106.55 -180.84)" style="fill:#fbe3d5;fill-rule:evenodd"/><path d="M480.84,416.06c0,2.49-.79,4.86-0.61,14.72,0.62,34.34-2.47,32.55,9.66,50.29,2.37,3.47-7.35-4.27-9.34-8.08-2.56-4.91-5.81-12.06-6.5-18.44-1.22-11.31-.61-20.41-0.61-32,0.62,0-.1-2.59,1.39-4.15,1.91-2,6-3,6-2.32" transform="translate(-106.55 -180.84)" style="fill:#ffecde;fill-rule:evenodd"/><path d="M485.69,417c0,1.76,5.27,3.29,11.66,4.25,7.22,1.08,14.37,2.17,21.49.35,8.65-2.21,16.32-11.9,25.73-8.17,3.1,1.23-.84-3.28-1.21-5.64-0.21-1.31-18,.94-22.1,6.37-3.93,5.23-14.26,6.87-20.32,6.09-2.94-.38-12.52-1.41-14.75-2.37-0.54-.23-0.51.53-0.49-0.88" transform="translate(-106.55 -180.84)" style="fill:#d5b6a5;fill-rule:evenodd"/><path d="M463.19,446.55a1.59,1.59,0,1,1-3.17,0V412h0c0-16.33,7.92-30.45,18.82-40.47s24.8-16,36.79-16h0c12,0,25.89,6,36.79,16s18.82,24.14,18.82,40.47h0v34.5a1.59,1.59,0,1,1-3.17,0V412h0c0-15.35-7.49-28.66-17.8-38.15s-23.42-15.13-34.64-15.13h0c-11.23,0-24.33,5.64-34.64,15.13s-17.8,22.8-17.8,38.15h0v34.5Z" transform="translate(-106.55 -180.84)" style="fill:#414141"/><path d="M541.38,408.23a1.58,1.58,0,0,1,2.82-1.42,37.9,37.9,0,0,0,18.06,17.4,1.58,1.58,0,0,1-1.31,2.87,41,41,0,0,1-19.57-18.85" transform="translate(-106.55 -180.84)" style="fill:#414141"/><path d="M490.1,439.5a1.58,1.58,0,0,1-3.16.11,6.53,6.53,0,0,1,.93-3.59,7.12,7.12,0,0,1,2.73-2.59,7.77,7.77,0,0,1,7.4,0,7.12,7.12,0,0,1,2.73,2.59,6.53,6.53,0,0,1,.93,3.59,1.58,1.58,0,0,1-3.16-.11,3.39,3.39,0,0,0-.49-1.86,4,4,0,0,0-1.52-1.44,4.7,4.7,0,0,0-4.38,0,4,4,0,0,0-1.52,1.44,3.39,3.39,0,0,0-.49,1.86" transform="translate(-106.55 -180.84)" style="fill:#414141"/><path d="M532.76,439.5a1.58,1.58,0,0,1-3.16.11,6.53,6.53,0,0,1,.93-3.59,7.12,7.12,0,0,1,2.73-2.59,7.77,7.77,0,0,1,7.4,0,7.12,7.12,0,0,1,2.73,2.59,6.53,6.53,0,0,1,.93,3.59,1.58,1.58,0,0,1-3.16-.11,3.39,3.39,0,0,0-.49-1.86,4,4,0,0,0-1.52-1.44,4.7,4.7,0,0,0-4.38,0,4,4,0,0,0-1.52,1.44,3.39,3.39,0,0,0-.49,1.86" transform="translate(-106.55 -180.84)" style="fill:#414141"/><path d="M488.38,449a6.31,6.31,0,1,1-6.31,6.31,6.31,6.31,0,0,1,6.31-6.31" transform="translate(-106.55 -180.84)" style="fill:#ffd1c4;fill-rule:evenodd"/><path d="M542.53,449a6.31,6.31,0,1,1-6.31,6.31,6.31,6.31,0,0,1,6.31-6.31" transform="translate(-106.55 -180.84)" style="fill:#ffd1c4;fill-rule:evenodd"/><path d="M556.86,424a1.59,1.59,0,1,1,3.17,0v24.32h0c0,13-6.32,24.31-15,32.31s-19.8,12.74-29.37,12.74h0c-9.57,0-20.68-4.75-29.37-12.74s-15-19.27-15-32.31h0V423.49a1.59,1.59,0,1,1,3.17,0v24.83h0c0,12.06,5.89,22.53,14,30s18.41,11.9,27.23,11.9h0c8.82,0,19.11-4.43,27.23-11.9s14-17.92,14-30h0V424Z" transform="translate(-106.55 -180.84)" style="fill:#414141"/><path d="M542.79,405.93a1.59,1.59,0,1,1,0,3.17c-11.3,0-15.68,3-19.86,5.94-6.5,4.51-12.55,8.71-38.51,2.76a12.25,12.25,0,0,0-2.73-.31,9.09,9.09,0,0,0-4.69,1.17,5.19,5.19,0,0,0-2.45,3.34,6.69,6.69,0,0,0-.16,1.5,1.59,1.59,0,1,1-3.17,0,9.82,9.82,0,0,1,.24-2.2,8.27,8.27,0,0,1,3.88-5.33,12.25,12.25,0,0,1,6.34-1.64,15.43,15.43,0,0,1,3.43.39c24.6,5.64,30.1,1.82,36-2.28,4.57-3.18,9.37-6.51,21.65-6.51" transform="translate(-106.55 -180.84)" style="fill:#414141"/><path d="M568.07,445.61a1.59,1.59,0,1,1,3.17,0v41.76a1.59,1.59,0,0,1-1.59,1.59h-36a1.59,1.59,0,0,1,0-3.17h34.46V445.61Z" transform="translate(-106.55 -180.84)" style="fill:#414141"/><path d="M460,446.19a1.59,1.59,0,1,1,3.17,0v39.45l35.29,0a1.58,1.58,0,1,1,0,3.16l-36.74,0H461.6a1.59,1.59,0,0,1-1.59-1.59v-41Z" transform="translate(-106.55 -180.84)" style="fill:#414141"/><path d="M513.77,478.62c-2.53-.11-3.33.51-5.45-1.47a10,10,0,0,1-1.73-3,10,10,0,0,0-.88-1.76c0-1.91,4.93-3.7,7.83-2.64a10.89,10.89,0,0,0,2.21.71,10.53,10.53,0,0,0,2.14-.71c2.9-1.06,7.83.72,7.83,2.64a10,10,0,0,0-.88,1.76,10,10,0,0,1-1.73,3c-2.12,2-2.92,1.36-5.45,1.47-0.86,0-3,0-3.88,0" transform="translate(-106.55 -180.84)" style="fill:#f9a0a0;stroke:#414141;stroke-miterlimit:10;stroke-width:3px;fill-rule:evenodd"/><path d="M354,376.71c8.28-5.41,21.59,3.54,31.25,7.63,11.88,5,30.82,8,60.82-2.9l0.33,34.07q3.75-6,6.16-44.22a42.43,42.43,0,0,0-21-25.93c-5.52-3-11-3.93-20.57-4.46-21.18-1.18-32,1.9-59.85,2h-3.42a21,21,0,0,0,.15,24.32,21.2,21.2,0,0,0-5.47,16q2.75,26.78,6.65,34.94c-2.44-7.36-5.43-20.53-.31-33.59C351.11,378.73,353.39,377.13,354,376.71Z" transform="translate(-106.55 -180.84)" style="fill:#c3996b;fill-rule:evenodd"/><path d="M446.44,395.15c0.43,23.35.65,35,0,40.45-2.4,20.17-21.8,49.68-48.92,49.68-21,0-48.92-21-48.92-49.68V391.08c-2.14-5.69.3-11.67,4.78-13.7a10.24,10.24,0,0,1,10.32,1.6,123,123,0,0,0,38.52,9.35c18.56,1.22,34.82-3.56,43.9-6.89C446.2,384.58,446.33,389.35,446.44,395.15Z" transform="translate(-106.55 -180.84)" style="fill:#fbe3d5;fill-rule:evenodd"/><path d="M382.4,451.7c0.11,10.09,7.86,14.76,15,14.76,7.38,0,15.13-4.55,15.24-14.76H382.4Z" transform="translate(-106.55 -180.84)" style="fill:#fff;fill-rule:evenodd"/><path d="M387.36,463.74a15.6,15.6,0,0,1-5.82-8.42,6.68,6.68,0,0,1-.28-1.82,3.58,3.58,0,0,1,.71-2.25h0a3.56,3.56,0,0,1,1.91-1.24,6.36,6.36,0,0,1,1.74-.22h23.83a4.4,4.4,0,0,1,3.47,1.25c0.82,0.93,1.11,2.32.57,4.4a14.62,14.62,0,0,1-5.76,8.35A18,18,0,0,1,397.39,467a17.08,17.08,0,0,1-10-3.24m-3.12-9.19a12.81,12.81,0,0,0,4.78,6.92,14.25,14.25,0,0,0,8.38,2.69,15.13,15.13,0,0,0,8.71-2.66,11.85,11.85,0,0,0,4.67-6.77c0.27-1,.25-1.61,0-1.84a2.05,2.05,0,0,0-1.37-.29H385.62a3.63,3.63,0,0,0-1,.11,0.89,0.89,0,0,0-.45.24h0a0.91,0.91,0,0,0-.12.54A3.92,3.92,0,0,0,384.24,454.55Z" transform="translate(-106.55 -180.84)" style="fill:#414141;stroke:#414141;stroke-miterlimit:10"/><path d="M397.51,459.07c3.73,0,6.76,1.46,6.76,3.25s-3,3.25-6.76,3.25-6.76-1.46-6.76-3.25,3-3.25,6.76-3.25" transform="translate(-106.55 -180.84)" style="fill:#f9a0a0;fill-rule:evenodd"/><path d="M401.68,461.29a11.16,11.16,0,0,0-8.34,0,1,1,0,1,0,0,2.06,11.16,11.16,0,0,0,8.34,0,1,1,0,1,0,0-2.06m-4.17-3.63a12.73,12.73,0,0,1,5.38,1.09c1.72,0.83,2.78,2.08,2.78,3.56s-1.06,2.74-2.78,3.56a13.78,13.78,0,0,1-10.76,0c-1.72-.83-2.78-2.08-2.78-3.56s1.06-2.74,2.78-3.56A12.73,12.73,0,0,1,397.51,457.67Z" transform="translate(-106.55 -180.84)" style="fill:#414141"/><path d="M358.54,380.61a2.54,2.54,0,0,0-.05.38c-1,16.88-.71,34.56-0.71,34.56,0.14,6.81,0,5.17.19,20.51,0.18,13.6-.33,14.88,1,18.77a28.85,28.85,0,0,0,3.38,7.33c1.08,1.62,7.49,10.86,7.49,10.86a2.49,2.49,0,0,1,.43,1c-0.59.69-9.94-6.42-12.09-10.19-3.2-5.61-7.25-13.79-8.11-21.07-1.53-12.92-.76-43.33-0.76-56.61a10.38,10.38,0,0,1,1.8-7.67c4.43-5.68,14.08-2.89,14.16-2.07C365.33,377,359.21,377.45,358.54,380.61Z" transform="translate(-106.55 -180.84)" style="fill:#fff1e8;fill-rule:evenodd"/><path d="M368.67,422.45a2.15,2.15,0,1,1-4.3.15,7.81,7.81,0,0,1,1.11-4.3,8.48,8.48,0,0,1,3.25-3.09,9.22,9.22,0,0,1,8.79,0,8.48,8.48,0,0,1,3.25,3.09,7.81,7.81,0,0,1,1.12,4.3,2.15,2.15,0,1,1-4.3-.15,3.52,3.52,0,0,0-.51-1.93,4.19,4.19,0,0,0-1.61-1.52,5,5,0,0,0-4.68,0,4.19,4.19,0,0,0-1.61,1.52,3.52,3.52,0,0,0-.51,1.93" transform="translate(-106.55 -180.84)" style="fill:#414141"/><path d="M417.44,422.45a2.15,2.15,0,1,1-4.3.15,7.81,7.81,0,0,1,1.12-4.3,8.48,8.48,0,0,1,3.25-3.09,9.22,9.22,0,0,1,8.79,0,8.48,8.48,0,0,1,3.25,3.09,7.81,7.81,0,0,1,1.12,4.3,2.15,2.15,0,1,1-4.3-.15,3.53,3.53,0,0,0-.51-1.93,4.19,4.19,0,0,0-1.61-1.52,5,5,0,0,0-4.68,0,4.19,4.19,0,0,0-1.61,1.52,3.52,3.52,0,0,0-.51,1.93" transform="translate(-106.55 -180.84)" style="fill:#414141"/><path d="M444.28,415.5a2.16,2.16,0,1,1,4.32,0v20.1h0c0,15-7.27,28-17.28,37.18s-22.77,14.65-33.8,14.65h0c-11,0-23.81-5.46-33.8-14.65s-17.27-22.17-17.27-37.18h0V405.91a2.16,2.16,0,1,1,4.32,0V435.6h0c0,13.68,6.69,25.55,15.89,34s20.89,13.51,30.88,13.51h0c10,0,21.67-5,30.88-13.52s15.88-20.33,15.88-34h0V415.5Z" transform="translate(-106.55 -180.84)" style="fill:#414141"/><path d="M359.82,340.06a17.89,17.89,0,0,1,2.2-.12c0.92,0,1.6.07,1.74,0.08,1.46,0.13,16.83-2.15,20.6,1.31a5.17,5.17,0,0,1,.75,1.16s-6,14-4.48,22.64c2.17,12.6,10.28,22.68,10.28,22.68s-6.11-.77-16.37-4.55c-5.8-2.14-8.7-3.2-9.72-3.85-2.88-1.83-5-3.94-7.62-3.41a11.19,11.19,0,0,0-3.37,1.56,20.14,20.14,0,0,0-3.35,2.56c-1.65,1.56-.59,12.94-1.81,17.13-0.43,1.48-.56,3.74-1.7,5.7-1.87,3.2-.33,3.46-1.16-2.56-0.7-5.07-3.67-13.27-3.52-18.17,0.2-6.14-1.36-1.66,1.84-9.19,2.59-6.1,4.43-2.77,2.46-12.4a26.47,26.47,0,0,0-.85-3.22c-0.86-2.55-1.2-2.84-1.54-4.09-0.77-2.84.17-5.41,1.08-7.9,1-2.73,1.5-4.09,2.74-4.6,1.48-.6,3,0.28,5.93-0.08,0.26,0,.72-0.1,1.42-0.16,1.34-.12,1.58,0,2.53-0.16S358.76,340.2,359.82,340.06Z" transform="translate(-106.55 -180.84)" style="fill:#e4c09d;fill-rule:evenodd"/><path d="M362.12,379.52c22.38,17.27,49,16.15,55.48,15.79,0,0,16.88-1.14,28.88-7.39,0.53-.28,1.06-0.57,1.06-0.57h0a19.46,19.46,0,0,0-.88-6.57l-2,.82c-6.4,2.54-16.83,5.6-32.44,6.13h0a121.3,121.3,0,0,1-24-.09,53.92,53.92,0,0,1-13.45-3,59.18,59.18,0,0,1-5.47-2.36,97.45,97.45,0,0,1-10.76-5.78C359.28,377.22,360.53,378.29,362.12,379.52Z" transform="translate(-106.55 -180.84)" style="fill:#d5b6a5;fill-rule:evenodd"/><path d="M448.58,416.42l0.11,0.18m-0.28-18.49c0.35-1.34.79-3.11,1.2-5.23a88,88,0,0,0,1.27-9.17,38.06,38.06,0,0,0,.14-8.82,30.68,30.68,0,0,0-.6-3.34A43.79,43.79,0,0,0,444,359a40.85,40.85,0,0,0-10.06-9.68c-7.32-4.94-16.56-7.63-27.33-7.06l-0.26,0L350,344.37a22.18,22.18,0,0,0,1.81,25.58h0l0,0a106.21,106.21,0,0,0,93.47,9.43l0.13,0h0a2.15,2.15,0,0,1,2.78,2Zm6.33-26.69c1.63,5.87-.35,16.44-3.22,37.73q-2.6,19.25-7.08,8.59a2.15,2.15,0,0,1-.16-1l-0.3-32.4a107.08,107.08,0,0,1-95.76-12.06h0a26.78,26.78,0,0,1-5.59-14.63c-0.32-5.8,1.91-11.28,3.14-14.47,0.47-1.23.92-2.23,1.24-2.93l3.5-.4,55.8-2h0a47,47,0,0,1,30,7.79C438,346.86,450.33,355.49,454.75,371.41Z" transform="translate(-106.55 -180.84)" style="fill:#414141"/><path d="M345,366.73c0.43-.29,2-1.33,2.94-0.77a1.92,1.92,0,0,1,.77,2.94c-5,8.53-4.5,12.17-3.31,20.73,0.32,2.26.68,4.85,1,8l0,0.2V386.43a2.26,2.26,0,0,1,0-.25,18.49,18.49,0,0,1,1.78-6.95,10.18,10.18,0,0,1,2.95-3.23,9.82,9.82,0,0,1,3.34-1.9c0.85-.27,2.05-0.64,2.58-0.1s0,2-.1,2.3c-1,2.64-3.38,2.78-5,4.94a7.78,7.78,0,0,0-1.29,5.28v35h0a2.15,2.15,0,0,1-4.27.39l-4.32-23.57a2.16,2.16,0,0,1,0-.24c0-.25-0.63-4-1-7.91-0.6-6.36-.91-9.55-0.61-12.52C340.82,374.56,341.42,369.12,345,366.73Z" transform="translate(-106.55 -180.84)" style="fill:#414141"/></svg>