<svg id="69dff4bd-1847-41f0-8223-ed29afceca85" data-name="Layer 1" xmlns="http://www.w3.org/2000/svg" xmlns:xlink="http://www.w3.org/1999/xlink" viewBox="0 0 581.29 412.95"><defs><linearGradient id="ef0a22da-cbc8-475a-a4b2-10e7fe2c7e4b" x1="207.14" y1="263.86" x2="732" y2="263.86" gradientTransform="matrix(0.99, -0.16, 0.14, 0.9, -92.08, 218.34)" gradientUnits="userSpaceOnUse"><stop offset="0" stop-color="#fffce9"/><stop offset="1" stop-color="#e9fff7"/></linearGradient><linearGradient id="598e310d-8fda-4a19-9c91-4d12b5406d4f" x1="198.7" y1="279.45" x2="216.96" y2="279.45" gradientUnits="userSpaceOnUse"><stop offset="0" stop-color="#a2ff94"/><stop offset="1" stop-color="#c1fff7"/></linearGradient><linearGradient id="8255114e-9d98-4f06-b990-8759f2d57700" x1="515.45" y1="487.54" x2="529.32" y2="487.54" xlink:href="#598e310d-8fda-4a19-9c91-4d12b5406d4f"/><linearGradient id="4bbcc2a7-6291-4065-9ba5-3bd78627d930" x1="261.15" y1="487.63" x2="323.69" y2="487.63" xlink:href="#598e310d-8fda-4a19-9c91-4d12b5406d4f"/><linearGradient id="80b01cf8-a2db-44a1-a0cf-30e925ae604a" x1="260.65" y1="487.63" x2="324.19" y2="487.63" xlink:href="#598e310d-8fda-4a19-9c91-4d12b5406d4f"/><linearGradient id="be850186-614a-4a1f-b70d-5604cffb8652" x1="269.38" y1="238.62" x2="297.4" y2="238.62" xlink:href="#598e310d-8fda-4a19-9c91-4d12b5406d4f"/><linearGradient id="62edebc0-eead-4b04-b505-2e202a8c1e74" x1="268.88" y1="238.62" x2="297.9" y2="238.62" xlink:href="#598e310d-8fda-4a19-9c91-4d12b5406d4f"/><linearGradient id="f97c455f-8732-46b9-ab66-b594f5d1bc8d" x1="522.4" y1="277.62" x2="549.3" y2="277.62" xlink:href="#598e310d-8fda-4a19-9c91-4d12b5406d4f"/></defs><title>Untitled-5</title><path d="M151.28,419.31c-33-110.47-2.13-226.35,144.9-222.16,153.64,4.38,205.55,2.09,271.6,33.14C911.44,391.87,275,833.75,151.28,419.31" transform="translate(-106.82 -178.85)" style="fill-rule:evenodd;fill:url(#ef0a22da-cbc8-475a-a4b2-10e7fe2c7e4b)"/><path d="M364.65,557.47l-17.84,13.72-3-22.23Zm3.37-.63h0a1.14,1.14,0,0,0-.68-0.72l-24.48-10a1.15,1.15,0,0,0-1.57,1.21l3.51,26.14a1.15,1.15,0,0,0,1.84.75l21-16.12A1.15,1.15,0,0,0,368,556.84Z" transform="translate(-106.82 -178.85)" style="fill:#c7f9ec"/><path d="M438.87,479.86a12.74,12.74,0,1,1-12.74,12.74A12.73,12.73,0,0,1,438.87,479.86Zm0-1.27a14,14,0,1,0,14,14A14,14,0,0,0,438.87,478.58Z" transform="translate(-106.82 -178.85)" style="fill:#92f7df;stroke:#92f7df;stroke-miterlimit:10"/><path d="M210.24,270.89a1.36,1.36,0,0,0-2.45.57l-1.07,6.43-6.43-1.08a1.36,1.36,0,1,0-.45,2.68l6.43,1.08L205.2,287a1.36,1.36,0,1,0,2.68.45l1.07-6.43,6.43,1.08a1.36,1.36,0,1,0,.45-2.68l-6.43-1.08,1.07-6.43A1.35,1.35,0,0,0,210.24,270.89Z" transform="translate(-106.82 -178.85)" style="fill:url(#598e310d-8fda-4a19-9c91-4d12b5406d4f)"/><path d="M516.81,480.61a1.36,1.36,0,0,0-1,2.32l4.61,4.61-4.61,4.61a1.36,1.36,0,0,0,1.92,1.92l4.61-4.61,4.61,4.61a1.36,1.36,0,1,0,1.92-1.92l-4.61-4.61,4.61-4.61A1.36,1.36,0,1,0,527,481l-4.61,4.61L517.77,481A1.35,1.35,0,0,0,516.81,480.61Z" transform="translate(-106.82 -178.85)" style="fill:url(#8255114e-9d98-4f06-b990-8759f2d57700)"/><path d="M374.61,382.36l9.66-38.4a1.62,1.62,0,0,0-3.14-.79l-9.66,38.4A1.62,1.62,0,0,0,374.61,382.36Z" transform="translate(-106.82 -178.85)" style="fill:#caede5"/><path d="M261.86,481.92c3.49-.31,5.47,3.66,7.37,7.47,1.7,3.36,3.41,6.8,5.89,6.59s3.56-3.9,4.65-7.51c1.2-4.09,2.47-8.34,6-8.64s5.47,3.66,7.37,7.47c1.7,3.36,3.41,6.8,5.89,6.59s3.56-3.9,4.65-7.51c1.2-4.09,2.47-8.34,6-8.64s5.47,3.66,7.37,7.47c1.7,3.36,3.41,6.8,5.89,6.59a0.78,0.78,0,0,1,.14,1.55c-3.49.31-5.47-3.66-7.37-7.47-1.7-3.36-3.41-6.81-5.89-6.59s-3.56,3.9-4.65,7.51c-1.2,4.09-2.47,8.34-6,8.64s-5.47-3.66-7.37-7.47c-1.7-3.36-3.41-6.8-5.89-6.59s-3.56,3.9-4.65,7.51c-1.2,4.09-2.47,8.34-6,8.64s-5.47-3.66-7.37-7.47c-1.7-3.36-3.41-6.81-5.89-6.59A0.78,0.78,0,0,1,261.86,481.92Z" transform="translate(-106.82 -178.85)" style="stroke-miterlimit:10;fill:url(#4bbcc2a7-6291-4065-9ba5-3bd78627d930);stroke:url(#80b01cf8-a2db-44a1-a0cf-30e925ae604a)"/><path d="M283.39,225.88a12.74,12.74,0,1,1-12.74,12.74A12.73,12.73,0,0,1,283.39,225.88Zm0-1.27a14,14,0,1,0,14,14A14,14,0,0,0,283.39,224.61Z" transform="translate(-106.82 -178.85)" style="stroke-miterlimit:10;fill:url(#be850186-614a-4a1f-b70d-5604cffb8652);stroke:url(#62edebc0-eead-4b04-b505-2e202a8c1e74)"/><path d="M546.74,266.33l-3.44,22.24-17.51-14Zm2-2.78h0a1.14,1.14,0,0,0-1-.06l-24.62,9.66a1.15,1.15,0,0,0-.31,2l20.59,16.48a1.15,1.15,0,0,0,1.84-.73l4-26.14A1.15,1.15,0,0,0,548.74,263.54Z" transform="translate(-106.82 -178.85)" style="fill:url(#f97c455f-8732-46b9-ab66-b594f5d1bc8d)"/><path d="M629.87,324.13c-1.15,3.3-5.58,3.48-9.84,3.65-3.77.17-7.6,0.31-8.42,2.66s2.09,4.85,4.94,7.33c3.23,2.78,6.59,5.68,5.43,9s-5.58,3.48-9.84,3.65c-3.77.17-7.6,0.31-8.42,2.66s2.09,4.85,4.94,7.33c3.23,2.78,6.59,5.68,5.43,9s-5.58,3.48-9.84,3.65c-3.77.17-7.6,0.31-8.42,2.66a0.78,0.78,0,1,1-1.47-.51c1.15-3.3,5.58-3.49,9.84-3.65,3.77-.17,7.6-0.31,8.42-2.66s-2.1-4.85-4.94-7.33c-3.23-2.78-6.58-5.68-5.43-9s5.58-3.49,9.84-3.65c3.77-.17,7.6-0.31,8.43-2.66s-2.1-4.85-4.94-7.33c-3.23-2.78-6.58-5.68-5.43-9s5.58-3.49,9.84-3.65c3.77-.17,7.6-0.31,8.42-2.66A0.78,0.78,0,0,1,629.87,324.13Z" transform="translate(-106.82 -178.85)" style="fill:#92f7df;stroke:#92f7df;stroke-miterlimit:10"/><path d="M214.5,339.54l75.39-50.85a11.49,11.49,0,0,1,15.91,3.09c2.07,3.07,22.18,32.47,22.18,32.47a12.17,12.17,0,1,1,10.48,15.87c-0.07.09,16.46,24.5,18.19,27.05a11.49,11.49,0,0,1-3.09,15.91l-26.48,17.86a12.17,12.17,0,1,1-15.89,10.72l-33,22.27a11.49,11.49,0,0,1-15.91-3.09l-50.85-75.39a11.49,11.49,0,0,1,3.09-15.91" transform="translate(-106.82 -178.85)" style="fill:#fedf57;fill-rule:evenodd"/><path d="M290,288.18a11.49,11.49,0,0,1,15.91,3.09c2.07,3.07,22.18,32.47,22.18,32.47A12.17,12.17,0,1,1,338.6,339.6c-0.07.09,16.46,24.5,18.19,27.05a11.49,11.49,0,0,1-3.09,15.91l-26.48,17.86a12.17,12.17,0,1,1-15.89,10.72l-17.94,12.26A424.32,424.32,0,0,1,245.19,322" transform="translate(-106.82 -178.85)" style="fill:#ffe780;fill-rule:evenodd"/><path d="M213.28,361c-1.18-6-1.18-6.1-1.18-6.1a3.78,3.78,0,0,0-.29-1.53,3.66,3.66,0,0,0-.62-1c-0.06-.81-0.25-1.87-0.9-2.13-1.26-.51-3.5,2.3-4.27,3.27-10.11,12.74-13.26,29.2-13.26,29.2q-10.5,33.49-14.84,40.33l35.74,31.41q21.19-20.08,32.07-30.95l6.8-4.26C247.06,411.54,214.1,365.1,213.28,361Z" transform="translate(-106.82 -178.85)" style="fill:#fbe3d5;fill-rule:evenodd"/><path d="M592.46,364.55q3.43-7.45-.12-12.88a26.2,26.2,0,0,1,7.94,6q5.38,7.3,10.93,30.16Q619,422,622.84,429.21l-38.1,28.5Q565.2,436,555.2,424.33l-6.44-4.78,43.7-55" transform="translate(-106.82 -178.85)" style="fill:#c9ad9b;fill-rule:evenodd"/><path d="M210.31,373.78c0.12,0.22-2,4-3.36.75-0.53-1.29,1-4.39,1.57-9.56,0.13-1.19,1.57-5.23,1.38-6.27,0-.15.68-3.94,0.86-3.08,0.88,4.15,6.61,10.59,6.23,11.48,0,0-5.92,7.22-6.77,6.57-0.35-.27-0.12-0.29.09,0.1" transform="translate(-106.82 -178.85)" style="fill:#d5b6a5;fill-rule:evenodd"/><path d="M594.43,377.57c-0.13.21,1.72,4.11,3.29,1,0.63-1.24-.66-4.46-0.81-9.66,0-1.19-1.16-5.34-.88-6.35,0-.15-0.37-4-0.62-3.14-1.2,4.06-7.42,10-7.11,11,0,0,5.33,7.66,6.23,7.08,0.37-.24.14-0.28-0.1,0.1" transform="translate(-106.82 -178.85)" style="fill:#b79f91;fill-rule:evenodd"/><path d="M572.21,413.68c2.93,3.07-7.18,6.78-9.72,6.9-3,.15-6.77-1.65-9.3-3.15-2.35-1.39-1.34-1,.92-4.19,2.82-3.95,5.6-7.94,8.46-11.82,0.89-1.2,8.57-11.74,8.72-11.55,0.5,0.63-.67,6.61-0.85,7.86-0.66,4.61-1.73,7.49-.79,12.15a20.91,20.91,0,0,0,2.56,3.79" transform="translate(-106.82 -178.85)" style="fill:#b79f91;fill-rule:evenodd"/><path d="M229.61,411.53c-3.16,2.83,6.62,7.32,9.15,7.64,3,0.38,6.88-1.12,9.52-2.41,2.45-1.2,1.42-.91-0.59-4.25-2.5-4.15-5-8.35-7.51-12.45-0.79-1.27-7.62-12.37-7.78-12.2-0.55.59,0.15,6.64,0.23,7.91,0.3,4.65,1.14,7.6-.17,12.17a20.92,20.92,0,0,1-2.85,3.57" transform="translate(-106.82 -178.85)" style="fill:#d5b6a5;fill-rule:evenodd"/><path d="M290.78,290.74c-2.23,1.54-32.39,21.87-75.28,50.78h0A9.16,9.16,0,0,0,213,354.21h0l50.78,75.28,0.14,0.2a9.16,9.16,0,0,0,12.52,2.43l0.2-.14,32.91-22.2h0a2.33,2.33,0,0,1,3.62,2.09,9.84,9.84,0,1,0,13-8.62,2.33,2.33,0,0,1-.72-4.18L352,381.2a9.16,9.16,0,0,0,2.46-12.68h0l-1.63-2.41-0.08-.1q-8.37-11.68-17-23.11a4,4,0,0,1,.1-2.92,3.52,3.52,0,0,1,2.53-2.11,9.84,9.84,0,1,0-8.46-12.9,2.32,2.32,0,0,1-4.15.65c-0.06-.09-19.44-28.39-22.12-32.36l-0.14-.21a9.11,9.11,0,0,0-5.77-3.75,9.42,9.42,0,0,0-4.82.36A8.94,8.94,0,0,0,290.78,290.74Zm-77.87,46.92,75.39-50.85h0a13.83,13.83,0,0,1,19.13,3.74h0c1.43,2.11,14.61,21.4,19.95,29.2A14.49,14.49,0,0,1,352.47,334a15,15,0,0,1-4.35,5.51,15.28,15.28,0,0,1-7.46,3.11q15.95,20.73,15.91,20.77l0,0,1.73,2.56h0a13.83,13.83,0,0,1-3.73,19.14l-23.2,15.65a14.48,14.48,0,1,1-22.45,15.14l-29.74,20.06h0A13.83,13.83,0,0,1,260,432.19h0L209.18,356.8h0a13.74,13.74,0,0,1-2.08-10.33,14,14,0,0,1,3.39-6.72A13.62,13.62,0,0,1,212.91,337.66Z" transform="translate(-106.82 -178.85)" style="fill:#414141"/><polygon points="176.57 197.97 188.74 141.79 165.74 202.9 180.47 215.08 176.57 197.97" style="fill:#e2eaf0;fill-rule:evenodd"/><polygon points="176.57 197.97 188.74 141.79 203.43 186.41 176.57 197.97" style="fill:#fff;fill-rule:evenodd"/><polygon points="180.47 215.08 176.57 197.97 186.62 193.64 186.63 193.64 180.47 215.08" style="fill:#afbdc6;fill-rule:evenodd"/><polygon points="146.75 209.47 188.74 141.79 165.74 202.9 146.75 209.47" style="fill:#fff;fill-rule:evenodd"/><path d="M285,342L259,384l11.77-4.08ZM251.59,387.1l42-67.68a2.33,2.33,0,0,1,4.12,2.11l-23,61A2.32,2.32,0,0,1,273.2,384l-18.88,6.54a2.32,2.32,0,0,1-2.73-3.42h0Z" transform="translate(-106.82 -178.85)" style="fill:#414141"/><path d="M286.61,372.9L307.37,364,296,329.48Zm-5.46,4.57a2.31,2.31,0,0,1,0-1.28l12.11-55.9a2.32,2.32,0,0,1,4.5-.36l14.66,44.54a2.33,2.33,0,0,1-1.27,2.93l-25.08,10.8,3.47,15.23a2.32,2.32,0,0,1-3.75,2.3h0l-14.73-12.18a2.32,2.32,0,1,1,3-3.58l9.47,7.83Z" transform="translate(-106.82 -178.85)" style="fill:#414141"/><path d="M289.51,394.57a2.32,2.32,0,1,1-4.46-1.28l6.1-21.23a2.32,2.32,0,0,1,.38-0.9h0a2.32,2.32,0,0,1,4.13,2Z" transform="translate(-106.82 -178.85)" style="fill:#414141"/><path d="M420.67,185l60.5,67.89a11.49,11.49,0,0,1-.93,16.18c-2.76,2.46-29.2,26.33-29.2,26.33a12.17,12.17,0,1,1-14.32,12.52c-0.1-.06-22.07,19.6-24.37,21.65a11.49,11.49,0,0,1-16.18-.93L374.9,304.79a12.17,12.17,0,1,0-12.75-14.31l-26.49-29.73a11.49,11.49,0,0,1,.93-16.18l67.89-60.49a11.49,11.49,0,0,1,16.18.93" transform="translate(-106.82 -178.85)" style="fill:#7fd67f;stroke:#000;stroke-miterlimit:10"/><path d="M412.48,181c6-.21,10.24,4.73,16.93,12.43,0,0,6.16,7.09,22.19,25.47,5.5,6.3,5.22,5.66,15.13,16.8,6.4,7.19,11.57,13.14,15,17.1,1.4,1.39,4,4.43,3.86,8.23s-3.18,6.51-4.79,8c-13.67,12.18-29.2,26.33-29.2,26.33a12.17,12.17,0,1,1-14.32,12.52,289.52,289.52,0,0,1-75.82-85L405,184A13,13,0,0,1,412.48,181Z" transform="translate(-106.82 -178.85)" style="fill:#7fde95"/><path d="M479.42,254.45l-60.49-67.88h0a9.17,9.17,0,0,0-12.89-.75h0l-67.89,60.49a9.17,9.17,0,0,0-.74,12.9L361.26,286a14.49,14.49,0,1,1,18,20.22l18.61,20.89h0a9.17,9.17,0,0,0,12.89.74h0l2.46-2.2q5.18-4.54,10.38-9.14t10.31-9.18a5.28,5.28,0,0,1,2.65-1.71,2.7,2.7,0,0,1,.58,0,2.32,2.32,0,0,1,.71.28h0a2.32,2.32,0,0,1,1.13,1.89,9.85,9.85,0,1,0,11.59-10.12h0a2.32,2.32,0,0,1-1.14-4c0.08-.07,26.84-24.24,29.21-26.35a9.06,9.06,0,0,0,1.33-1.47,9.4,9.4,0,0,0,1.7-4.82,9.5,9.5,0,0,0-1.16-5A8.74,8.74,0,0,0,479.42,254.45Zm-57-70.93,60.44,67.84a13.82,13.82,0,0,1-1.12,19.47c-2.51,2.23-19.39,17.46-26.28,23.68a14.49,14.49,0,0,1-11.17,26.65,14.84,14.84,0,0,1-5.64-3.44,15.08,15.08,0,0,1-3.87-6.35q-4.09,3.65-8.28,7.64-5.37,5.11-10.2,10.11L414,331.17l-0.22.21a13.82,13.82,0,0,1-19.33-1.12l-0.11-.13-21.2-23.79a2.33,2.33,0,0,1,1.69-3.87,9.84,9.84,0,1,0-10.41-11.58,2.33,2.33,0,0,1-4,1.14h0L333.92,262.3A13.82,13.82,0,0,1,335,242.83l67.83-60.44,0.14-.12a13.75,13.75,0,0,1,9.89-3.39,14,14,0,0,1,7.06,2.42A13.66,13.66,0,0,1,422.46,183.52Z" transform="translate(-106.82 -178.85)" style="fill:#414141"/><polygon points="294.77 55.01 302.05 57.47 307.93 57.84 311.87 59.17 315.1 61.33 319.18 62.71 323.75 64.8 321.71 54.63 312.14 51.39 302.56 48.15 294.77 55.01" style="fill:#fff;fill-rule:evenodd"/><path d="M389.6,229.81l53,17.89a4.79,4.79,0,0,1,3,6.05l-9.61,28.43a4.79,4.79,0,0,1-6.05,3l-53-17.89a4.79,4.79,0,0,1-3-6.05l9.61-28.43a4.79,4.79,0,0,1,6.05-3" transform="translate(-106.82 -178.85)" style="fill:#fff;fill-rule:evenodd"/><rect x="400.33" y="241.25" width="42.01" height="40.9" rx="3" ry="3" transform="translate(-5.73 -295.91) rotate(17.94)" style="fill:#e2eaf0"/><path d="M394.56,274.75l14.65-39.49,21.63,6.83c0.55,0.72,8.57,11.65,3.79,24.54-4.21,11.35-14.93,15-16.28,15.45Z" transform="translate(-106.82 -178.85)" style="fill:#afbdc6;fill-rule:evenodd"/><path d="M416.78,237.42a21.34,21.34,0,1,1-27,13.39,21.34,21.34,0,0,1,27-13.39" transform="translate(-106.82 -178.85)" style="fill:#fff;fill-rule:evenodd"/><path d="M441.67,249.86L388.86,232a2.45,2.45,0,0,0-3.11,1.54L376.15,262a2.45,2.45,0,0,0,1.54,3.11l53,17.89a2.45,2.45,0,0,0,3.11-1.54l9.56-28.3a2.22,2.22,0,0,1,.08-0.23,2.45,2.45,0,0,0-1.47-3m-51.56-22.33,53,17.89h0a7.12,7.12,0,0,1,4.42,9h0l-9.6,28.42a7.12,7.12,0,0,1-9,4.45L376.2,269.5a7.12,7.12,0,0,1-4.45-9l9.61-28.43A7.13,7.13,0,0,1,390.35,227.61Z" transform="translate(-106.82 -178.85)" style="fill:#414141"/><path d="M416.78,237.42a21.34,21.34,0,1,1-27,13.39,21.34,21.34,0,0,1,27-13.39" transform="translate(-106.82 -178.85)" style="fill:#e2eaf0;fill-rule:evenodd"/><path d="M413.69,246.57a11.68,11.68,0,1,1-14.81,7.33,11.68,11.68,0,0,1,14.81-7.33" transform="translate(-106.82 -178.85)" style="fill:#fff;fill-rule:evenodd"/><path d="M427,249.2a19,19,0,1,0,1,14.53,19,19,0,0,0-1-14.53m-9.47-14a23.68,23.68,0,1,1-18.07,1.21A23.59,23.59,0,0,1,417.53,235.22Z" transform="translate(-106.82 -178.85)" style="fill:#414141"/><path d="M420.08,252.63a11.31,11.31,0,1,0,.58,8.63,11.26,11.26,0,0,0-.58-8.63m-5-10.09a16,16,0,1,1-12.17.82A15.89,15.89,0,0,1,415.06,242.54Z" transform="translate(-106.82 -178.85)" style="fill:#414141"/><path d="M395.95,232.27l-4-1.36A2.45,2.45,0,0,1,390.4,228a1.46,1.46,0,0,1,.09-0.27,2.41,2.41,0,0,1,1.17-1.26,2.38,2.38,0,0,1,1.82-.13h0l4,1.36h0a2.45,2.45,0,0,1,1.53,3v0a2.41,2.41,0,0,1-1.21,1.39,2.38,2.38,0,0,1-1.84.12" transform="translate(-106.82 -178.85)" style="fill:#414141"/><path d="M403.12,235.6a2.32,2.32,0,0,1-3.06-3.48l7.79-6.85a2.32,2.32,0,0,1,2.27-.45h0L419.7,228a2.32,2.32,0,1,1-1.49,4.41l-8.31-2.81Z" transform="translate(-106.82 -178.85)" style="fill:#414141"/><path d="M432.85,243.2a2.32,2.32,0,1,1-4.55.9l-1.77-8.85-8.31-2.81A2.32,2.32,0,0,1,419.7,228l9.58,3.24h0a2.32,2.32,0,0,1,1.53,1.75Z" transform="translate(-106.82 -178.85)" style="fill:#414141"/><path d="M324,474l28.2-28.13a12.17,12.17,0,1,0,13.57-13.53l22.62-22.56a11.49,11.49,0,0,1,16.21,0l1.67,1.67,1.61,1.61,1.55,1.56,1.5,1.5,1.44,1.45,1.39,1.4,1.34,1.35,1.29,1.3,1.25,1.25,1.2,1.21,1.16,1.17,1.12,1.13,1.08,1.09,1,1,1,1,1,1,0.95,0.95,0.92,0.92L428,433.3l0.86,0.87,0.84,0.84,0.82,0.82,0.8,0.8,0.78,0.78,0.62,0.62a12.17,12.17,0,1,0,13.54,13.57l0.31,0.31,0.81,0.81,0.83,0.83,0.85,0.85,0.88,0.88,0.9,0.91,0.93,0.93,1,1,1,1,1,1,1.06,1.07,1.1,1.1,1.14,1.14,1.18,1.18,1.22,1.23,1.27,1.27,1.32,1.32,1.36,1.37,1.42,1.42,1.47,1.47,1.52,1.52a11.49,11.49,0,0,1,0,16.21l-64.38,64.22a11.49,11.49,0,0,1-16.21,0L324,490.24A11.49,11.49,0,0,1,324,474" transform="translate(-106.82 -178.85)" style="fill:#3e9de5;fill-rule:evenodd"/><path d="M324,474l28.2-28.13a12.17,12.17,0,1,0,13.57-13.53l22.62-22.56a11.49,11.49,0,0,1,16.21,0L432.73,438a12.17,12.17,0,1,0,13.54,13.57l22.56,22.62a11.49,11.49,0,0,1,0,16.21c-31.88,31.8-144.81-.18-144.81-0.18A11.49,11.49,0,0,1,324,474" transform="translate(-106.82 -178.85)" style="fill:#4ba9ef;fill-rule:evenodd"/><path d="M433.39,440.26a2.32,2.32,0,0,1-1.81-.68M355,445.65a2.32,2.32,0,0,1-.68,1.81m-2.8,2.79-25.4,25.33a9.15,9.15,0,0,0,0,12.92l64.22,64.38a9.15,9.15,0,0,0,12.92,0l64.38-64.22a9.15,9.15,0,0,0,0-12.92l-1.52-1.52-1.47-1.47-1.42-1.42L461.9,470l-1.32-1.32-1.27-1.27-1.22-1.23L456.91,465l-1.14-1.14-1.1-1.1-1.06-1.07-1-1-1-1-1-1-0.93-.93-0.9-.91-0.88-.88h0a14.51,14.51,0,0,1-3.77,5l-0.11.1a14.45,14.45,0,0,1-9.92,3.4H434a14.49,14.49,0,0,1-5.2-27.71l-0.22-.22-0.84-.84-0.86-.87L426,434l-0.92-.92-0.95-.95-1-1-1-1-1-1L420,428l-1.12-1.13-1.16-1.17-1.2-1.21-1.25-1.25-1.29-1.3-1.34-1.35-1.39-1.4-1.44-1.45-1.5-1.5-1.55-1.56-1.61-1.61-1.67-1.67a9.15,9.15,0,0,0-12.92,0l-19.82,19.77a14.49,14.49,0,0,1,8.54,13.81s0,0.08,0,.11A14.49,14.49,0,0,1,351.55,450.26Zm-28.68,22,28.2-28.13a2.33,2.33,0,0,1,4,1.48,9.84,9.84,0,0,0,19.59-.82v-0.08A9.85,9.85,0,0,0,366,434.59a2.32,2.32,0,0,1-1.36-3.95h0l22.62-22.56a13.84,13.84,0,0,1,19.5,0l1.67,1.67,1.61,1.61,1.55,1.56,1.5,1.5,1.44,1.45,1.39,1.4,1.34,1.35,1.29,1.3,1.25,1.25,1.2,1.21,1.16,1.17,1.12,1.13,1.08,1.09,1,1,1,1,1,1,0.95,0.95,0.92,0.92,0.89,0.89,0.86,0.87,0.84,0.84,0.82,0.82,0.8,0.8,0.78,0.78,0.62,0.62a2.33,2.33,0,0,1-1.48,4,9.84,9.84,0,0,0,.82,19.59h0.08a9.83,9.83,0,0,0,6.73-2.31l0.11-.08a9.81,9.81,0,0,0,3.33-6.24,2.32,2.32,0,0,1,3.95-1.36h0l0.31,0.31,0.81,0.81,0.83,0.83,0.85,0.85,0.88,0.88,0.9,0.91,0.93,0.93,1,1,1,1,1,1,1.06,1.07,1.1,1.1,1.14,1.14,1.18,1.18,1.22,1.23,1.27,1.27,1.32,1.32,1.36,1.37,1.42,1.42,1.47,1.47,1.52,1.52a13.84,13.84,0,0,1,0,19.5L406.56,556.2a13.84,13.84,0,0,1-19.5,0L322.84,491.8A13.84,13.84,0,0,1,322.86,472.3Z" transform="translate(-106.82 -178.85)" style="fill:#414141"/><path d="M379.92,463a4.63,4.63,0,1,1,4.62,4.63,4.63,4.63,0,0,1-4.62-4.63" transform="translate(-106.82 -178.85)" style="fill:#fff;fill-rule:evenodd"/><path d="M408,479.3a3.31,3.31,0,1,1,3.31,3.32A3.31,3.31,0,0,1,408,479.3" transform="translate(-106.82 -178.85)" style="fill:#fff;fill-rule:evenodd"/><path d="M390.38,524.93a3.31,3.31,0,1,1-1.22,4.52,3.31,3.31,0,0,1,1.22-4.52" transform="translate(-106.82 -178.85)" style="fill:#fff;fill-rule:evenodd"/><path d="M368.74,478.51a33.21,33.21,0,0,0,66.4,1.78,42.08,42.08,0,0,1-66.4-1.78" transform="translate(-106.82 -178.85)" style="fill:#fff;fill-rule:evenodd"/><path d="M369.2,481.09c-1.53,1,.35,6.79,1.61,9.67a27.91,27.91,0,0,0,3.51,5.78c5,6,17.56,9.8,29.46,8.21,2.93-.39,17.53-2.67,26.57-15.26a35.21,35.21,0,0,0,4.77-9.33,40.56,40.56,0,0,1-32.82,15.52,43.15,43.15,0,0,1-21.78-6.77C373.9,484.73,370.7,480.1,369.2,481.09Z" transform="translate(-106.82 -178.85)" style="fill:#e2eaf0;fill-rule:evenodd"/><path d="M376.22,503.73a35.43,35.43,0,0,1-9.81-25.27h0a2.32,2.32,0,0,1,4.19-1.33,39.74,39.74,0,0,0,62.68,1.75,2.32,2.32,0,0,1,4.18,1.48,35.54,35.54,0,0,1-61.24,23.37m-4.54-18.32a30.9,30.9,0,0,0,60.16,1.6A44.4,44.4,0,0,1,371.68,485.41Z" transform="translate(-106.82 -178.85)" style="fill:#414141"/><path d="M382.93,461.35a2.3,2.3,0,1,0,3.93,1.64h0a2.32,2.32,0,0,0-2.3-2.31h0a2.3,2.3,0,0,0-1.63.68M377.6,463a6.93,6.93,0,0,1,6.7-6.94,2.31,2.31,0,0,1,.51,0,6.93,6.93,0,0,1,6.68,6.7,2.32,2.32,0,0,1,0,.51A6.95,6.95,0,0,1,377.6,463Z" transform="translate(-106.82 -178.85)" style="fill:#414141"/><path d="M410.66,478.61a1,1,0,0,0-.3.69h0a1,1,0,0,0,1,1h0a1,1,0,1,0-.69-1.69m-4.93.42a5.64,5.64,0,1,1,5.89,5.91,2.33,2.33,0,0,1-.54,0,5.61,5.61,0,0,1-5.34-5.36A2.32,2.32,0,0,1,405.73,479Z" transform="translate(-106.82 -178.85)" style="fill:#414141"/><path d="M393,525.47a2.22,2.22,0,0,0-1.69.22,2.2,2.2,0,0,0-1,1.34,2.22,2.22,0,0,0,.22,1.69,2.2,2.2,0,0,0,1.34,1,2.22,2.22,0,0,0,1.69-.22,2.19,2.19,0,0,0,1-1.34,2.22,2.22,0,0,0-.22-1.69,2.2,2.2,0,0,0-1.34-1m-4-3.81a6.85,6.85,0,1,1-3.2,4.16A6.82,6.82,0,0,1,389,521.67Z" transform="translate(-106.82 -178.85)" style="fill:#414141"/><path d="M595,360.05l-56.24,71.46a11.49,11.49,0,0,1-16.09,1.92c-2.91-2.29-31-24.13-31-24.13a12.17,12.17,0,1,1-14.83-11.91c0-.11-23.16-18.29-25.58-20.2a11.49,11.49,0,0,1-1.92-16.09L469,336a12.17,12.17,0,1,0,11.85-15.06l24.63-31.3a11.49,11.49,0,0,1,16.09-1.92L593.05,344A11.49,11.49,0,0,1,595,360.05" transform="translate(-106.82 -178.85)" style="fill:#f9a0a0;fill-rule:evenodd"/><path d="M598,348.58c2.24,5.24-2.55,11.83-9.65,21-5.6,7.21-12.72,16.13-21.27,26.24a255.09,255.09,0,0,1-41.82-23.36,260.86,260.86,0,0,1-36.64-30.53,0.42,0.42,0,0,0,.28.2c1.24,0.22,4.47-5.66,4-10.11-0.47-4.85-5.41-9.14-12.08-11.06l24.63-31.3a11.49,11.49,0,0,1,16.09-1.92L593,344A9.59,9.59,0,0,1,598,348.58Z" transform="translate(-106.82 -178.85)" style="fill:#fcb1b1;fill-rule:evenodd"/><path d="M536.91,430.08l56.24-71.46a9.16,9.16,0,0,0-1.53-12.83l-71.46-56.24a9.16,9.16,0,0,0-12.83,1.53l-22.18,28.19a14.49,14.49,0,1,1-16.74,21.28l-17.31,22a9.1,9.1,0,0,0-1.88,6.72,9.89,9.89,0,0,0,2,4.72,12.14,12.14,0,0,0,1.3,1.55l0.59,0.41,1.88,1.48,5.31,3.83,5.69,4.12c4.8,3.52,7.85,5.89,8.53,6.42,1.38,1.07,2.52,2,3.31,2.61a3.4,3.4,0,0,1,1.2,2.49,3.18,3.18,0,0,1-1.76,2.77,9.85,9.85,0,1,0,12,9.64h0a2.32,2.32,0,0,1,3.74-1.83c0.08,0.06,28.42,22.06,31.06,24.14a9.08,9.08,0,0,0,1.86,1.13,9.36,9.36,0,0,0,4.86.75,9.48,9.48,0,0,0,4.72-2A8.76,8.76,0,0,0,536.91,430.08Zm59.89-68.58L540.56,433a13.83,13.83,0,0,1-19.36,2.31c-2.52-2-20.58-16-27.93-21.72a14.49,14.49,0,1,1-25.79-12.47,15,15,0,0,1,6-5.08c-2.85-2.29-5.9-4.62-9.15-7-4.12-3-8.14-5.6-12-8l-2.6-2h0a13.83,13.83,0,0,1-2.31-19.36l19.76-25.1a2.33,2.33,0,0,1,4.11,1,9.84,9.84,0,1,0,9.57-12.27,2.32,2.32,0,0,1-1.82-3.76h0l24.63-31.3A13.83,13.83,0,0,1,523,285.9l71.46,56.24A13.83,13.83,0,0,1,596.8,361.49Z" transform="translate(-106.82 -178.85)" style="fill:#414141"/><path d="M544,339.13l-8.32,6.23c-8-6.06-18.57-6.33-26.14-.67s-10.29,15.91-6.73,25.26l-8.32,6.23a5.17,5.17,0,0,0,6.2,8.29l49.51-37a5.17,5.17,0,1,0-6.2-8.29" transform="translate(-106.82 -178.85)" style="fill:#fff;fill-rule:evenodd"/><path d="M548.58,337.88c-3.31-.93-8.38,2.09-12.92,7.48a21.64,21.64,0,0,0-9.94-4.71c-4.65-.84-13-0.68-16.2,4-5.27,7.69.55,19,1.55,20.85,2,3.6,3.67,6.69,6.76,7.33,5.3,1.09,6.65-6.73,19.33-14.58,0,0,4.38-2.71,13.25-10.78a6.48,6.48,0,0,0,2.11-3.46,5.52,5.52,0,0,0-.87-4.23A6.1,6.1,0,0,0,548.58,337.88Z" transform="translate(-106.82 -178.85)" style="fill:#e2eaf0;fill-rule:evenodd"/><path d="M509.78,346.77c-1.24-.15-3.91-0.47-5.85,1-5,3.69-.78,15.7.83,20.28a16.86,16.86,0,0,0,3.08,5,6.19,6.19,0,0,0,3.68,2.32c4.22,0.71,9.61-2.19,11.35-6.75,1.11-2.92.39-5.56-.43-8.57a18.91,18.91,0,0,0-5.6-9.53A12.62,12.62,0,0,0,509.78,346.77Z" transform="translate(-106.82 -178.85)" style="fill:#cad6db;fill-rule:evenodd"/><path d="M505,369.13a2.32,2.32,0,0,1-4.35,1.64,25.16,25.16,0,0,1-.87-15.44,22.72,22.72,0,0,1,22.75-17,25.17,25.17,0,0,1,14.57,5.2,2.32,2.32,0,1,1-2.82,3.7A20.52,20.52,0,0,0,522.38,343a18.1,18.1,0,0,0-18.15,13.58,20.54,20.54,0,0,0,.74,12.6" transform="translate(-106.82 -178.85)" style="fill:#414141"/><path d="M508.33,375.82l31.41-23.49,0.16-.11a4.16,4.16,0,0,1,5.52.76,2.31,2.31,0,0,1,.3.4,4.16,4.16,0,0,1-1,5.63l-31.42,23.5a4.17,4.17,0,0,1-5.84-.84l0,0a4.17,4.17,0,0,1,.86-5.81h0Z" transform="translate(-106.82 -178.85)" style="fill:#414141"/><path d="M545.37,341l-49.51,37a2.88,2.88,0,0,0-.58,4h0a2.88,2.88,0,0,0,4,.57l49.51-37a2.85,2.85,0,0,0-3.41-4.57m-52.3,33.32,49.51-37a7.5,7.5,0,0,1,9,12l-49.51,37a7.49,7.49,0,0,1-10.49-1.51h0A7.5,7.5,0,0,1,493.08,374.31Z" transform="translate(-106.82 -178.85)" style="fill:#414141"/><path d="M533.56,380.69a2.32,2.32,0,0,1,3.72-2.79l4.92,6.57a2.32,2.32,0,0,1-3.72,2.79Z" transform="translate(-106.82 -178.85)" style="fill:#414141"/><path d="M522.35,384a2.32,2.32,0,0,1,4.61-.56l1,8.15a2.32,2.32,0,0,1-4.61.56Z" transform="translate(-106.82 -178.85)" style="fill:#414141"/><path d="M541.79,372.36a2.32,2.32,0,0,1,1.83-4.26l7.55,3.23a2.32,2.32,0,0,1-1.83,4.26Z" transform="translate(-106.82 -178.85)" style="fill:#414141"/><path d="M685.78,506c-20,19.38-31.48,5.09-50.94,24,0,0-11.9-19.32-41.31-60.53q-0.26-1.15-8.79-11.74l38.1-28.5C665.56,481.76,685.78,506,685.78,506" transform="translate(-106.82 -178.85)" style="fill:#fff3bf;fill-rule:evenodd"/><path d="M620.11,428.7l-4.19,3.09,64.46,78.79c0.84-.62,1.71-1.31,2.59-2.08,0.62-.54,1.2-1.07,1.74-1.59Z" transform="translate(-106.82 -178.85)" style="fill:#ffea8f;fill-rule:evenodd"/><path d="M596.31,357a2.32,2.32,0,0,1,2.95-3.57q0.86,0.71,1.51,1.35a18.94,18.94,0,0,1,1.31,1.42l0.08,0.11h0a48,48,0,0,1,5.74,11.78,187.3,187.3,0,0,1,5.57,19.21l0,0.1q3.9,17,6.78,27.27,2.84,10.09,4.62,13.46a2.32,2.32,0,0,1-4.1,2.17q-2-3.79-5-14.39-2.92-10.39-6.83-27.46l0-.06a182.55,182.55,0,0,0-5.43-18.72,44,44,0,0,0-5.07-10.55q-0.43-.51-0.94-1t-1.2-1.09" transform="translate(-106.82 -178.85)" style="fill:#414141"/><path d="M547.38,421.42a2.32,2.32,0,1,1,2.77-3.73l6.44,4.78a2.33,2.33,0,0,1,.38.35h0q8.47,9.8,15.76,18,6.58,7.44,12.31,13.73l36.41-27.24a2.32,2.32,0,0,1,2.79,3.72l-38.1,28.5h0a2.32,2.32,0,0,1-3.11-.29q-6.41-7-13.77-15.33T553.61,426Z" transform="translate(-106.82 -178.85)" style="fill:#414141"/><path d="M582.93,459.17a2.32,2.32,0,1,1,3.62-2.92q4.26,5.29,6.51,8.3a27.88,27.88,0,0,1,2.46,3.69c29.34,41.12,41.26,60.47,41.29,60.52a2.32,2.32,0,0,1-3.95,2.44c0-.06-11.82-19.2-41.23-60.41h0a2.31,2.31,0,0,1-.37-0.84q0-.08-1.92-2.62-2.14-2.86-6.41-8.17" transform="translate(-106.82 -178.85)" style="fill:#414141"/><path d="M621,430.67a2.32,2.32,0,1,1,3.6-2.93c42.46,52.23,62.87,76.69,62.93,76.76a2.33,2.33,0,0,1-3.57,3c-0.06-.07-20-24-63-76.81" transform="translate(-106.82 -178.85)" style="fill:#414141"/><path d="M572.93,416.37c0-.1,11.16-17.61,12.89-22.32,0.58-1.59,10.15-17.82,9.86-14.2-0.22.15,0.06,0.5,0.18,0.76q-3.07-7.39-8-10.73-1.78-1.86-10-5.7-6.31-3.21-13.08-7.35c-1-.9-5-3.67-6-4.62-4.88-2.54-8.16,5.56-6.72,10.44q2,6.6,11.67,13.39,6.22,7.91,8.32,14-4.6,21.37,1,26.31" transform="translate(-106.82 -178.85)" style="fill:#c9ad9b;fill-rule:evenodd"/><path d="M598,379.73a2.32,2.32,0,0,1-4.29,1.78,27.22,27.22,0,0,0-3.26-5.87,16.36,16.36,0,0,0-3.93-3.82,2.34,2.34,0,0,1-.38-0.32h0a14.16,14.16,0,0,0-2.85-1.94q-2.36-1.35-6.45-3.26l-0.07,0h0q-3.09-1.57-6.51-3.49t-6.73-4a2.34,2.34,0,0,1-.32-0.23h0c-0.41-.36-1.52-1.18-2.67-2s-2.41-1.78-3.14-2.38a1.23,1.23,0,0,0-.82-0.08,1.87,1.87,0,0,0-.74.48,5,5,0,0,0-.9,1.26,8.88,8.88,0,0,0-.75,6.15,15.86,15.86,0,0,0,3.42,5.78,40.59,40.59,0,0,0,7.35,6.37,2.31,2.31,0,0,1,.56.56,72.61,72.61,0,0,1,5.29,7.61,38.26,38.26,0,0,1,3.33,7,2.31,2.31,0,0,1,.05,1.33q-2.21,10.31-2,16.59,0.2,5.59,2.25,7.4a2.33,2.33,0,1,1-3.1,3.47q-3.52-3.13-3.79-10.69a74,74,0,0,1,2-17.18,35.08,35.08,0,0,0-2.72-5.53,67.39,67.39,0,0,0-4.8-6.94,44.64,44.64,0,0,1-7.91-6.93,20.42,20.42,0,0,1-4.37-7.51,13.83,13.83,0,0,1,1.1-9.61,9.62,9.62,0,0,1,1.76-2.43,6.46,6.46,0,0,1,2.68-1.62,5.83,5.83,0,0,1,4.43.49,2.31,2.31,0,0,1,.54.37c0.45,0.41,1.78,1.38,3,2.32s2.22,1.64,2.82,2.14q3.25,2,6.41,3.76t6.33,3.39q4.1,1.92,6.72,3.41a19.77,19.77,0,0,1,3.73,2.58,21,21,0,0,1,4.85,4.75,31.88,31.88,0,0,1,3.83,6.88" transform="translate(-106.82 -178.85)" style="fill:#414141"/><path d="M109.14,494.63c18.38,20.89,31,7.55,48.9,27.92,0,0,13.38-18.33,45.94-57.1q0.35-1.12,9.68-11L177.92,423c-46.72,49-68.78,71.6-68.78,71.6" transform="translate(-106.82 -178.85)" style="fill:#b2d8f7;fill-rule:evenodd"/><path d="M110.63,496.27q16.65-17.18,33.34-34.55,17.13-17.83,34.08-35.6l3.34,2.76-67.67,70.39c-0.59-.52-1.19-1.08-1.8-1.68Q111.23,496.92,110.63,496.27Z" transform="translate(-106.82 -178.85)" style="fill:#9abed6;fill-rule:evenodd"/><path d="M207.39,349.33a2.32,2.32,0,0,1,2.66,3.81q-0.74.52-1.29,1t-1,.92a44,44,0,0,0-5.9,10.14A182.78,182.78,0,0,0,195,383.39h0q-10.58,33.77-15.1,40.88a2.32,2.32,0,1,1-3.92-2.5q4.17-6.57,14.58-39.77h0v0a187.09,187.09,0,0,1,7.07-18.71A48,48,0,0,1,204.27,352h0l0.09-.1a19,19,0,0,1,1.41-1.31q0.8-.67,1.61-1.24" transform="translate(-106.82 -178.85)" style="fill:#414141"/><path d="M251.3,417.25a2.32,2.32,0,0,1,2.46,3.94l-6.58,4.12q-9,8.9-17,16.6t-14.94,14.21a2.32,2.32,0,0,1-3.12,0h0l-35.74-31.41a2.32,2.32,0,1,1,3.08-3.49l34.15,30q6.25-5.86,13.35-12.72,7.95-7.67,17.07-16.68a2.32,2.32,0,0,1,.47-0.38Z" transform="translate(-106.82 -178.85)" style="fill:#414141"/><path d="M212,452.84a2.32,2.32,0,0,1,3.38,3.19q-4.59,4.87-7,7.64-2.09,2.38-2.12,2.47a2.31,2.31,0,0,1-.44.81h0c-32.53,38.74-45.81,56.92-45.85,57a2.32,2.32,0,1,1-3.74-2.75c0-.05,13.41-18.38,45.92-57.08a27.93,27.93,0,0,1,2.74-3.49q2.4-2.73,7.14-7.76" transform="translate(-106.82 -178.85)" style="fill:#414141"/><path d="M176.24,421.42a2.32,2.32,0,1,1,3.36,3.21c-46.66,49-68.74,71.56-68.81,71.63a2.32,2.32,0,1,1-3.31-3.25c0.06-.07,22-22.49,68.76-71.58" transform="translate(-106.82 -178.85)" style="fill:#414141"/><path d="M228.68,414.15c0-.09-9.74-18.43-11.1-23.26-0.46-1.63-8.72-18.57-8.72-14.93,0.21,0.17-.1.5-0.24,0.75q3.65-7.12,8.84-10.06,1.92-1.71,10.42-4.9,6.54-2.7,13.62-6.3c1.09-.81,5.27-3.26,6.39-4.13,5.07-2.15,7.7,6.19,5.88,10.93q-2.47,6.42-12.68,12.43-6.82,7.4-9.4,13.31,2.91,21.66-3,26.15" transform="translate(-106.82 -178.85)" style="fill:#fbe3d5;fill-rule:evenodd"/><path d="M210.69,377.76a2.32,2.32,0,0,1-4.13-2.11,31.89,31.89,0,0,1,4.35-6.56,21,21,0,0,1,5.22-4.36,19.57,19.57,0,0,1,3.91-2.27q2.62-1.23,7-2.86h0q3.3-1.36,6.58-2.88t6.76-3.29c0.66-.46,1.77-1.15,2.92-1.87,1.3-.81,2.65-1.65,3.21-2.08a2.33,2.33,0,0,1,.67-0.36,5.81,5.81,0,0,1,4.36-.1,6.45,6.45,0,0,1,2.54,1.83,9.62,9.62,0,0,1,1.57,2.56,13.83,13.83,0,0,1,.34,9.67,20.42,20.42,0,0,1-4.95,7.15,44.61,44.61,0,0,1-8.43,6.28,67.32,67.32,0,0,0-5.33,6.55l-0.1.14a34.78,34.78,0,0,0-3,5.16,73.94,73.94,0,0,1,.62,17.27q-0.87,7.53-4.63,10.38a2.33,2.33,0,1,1-2.81-3.71q2.17-1.64,2.81-7.19,0.72-6.24-.67-16.7a2.32,2.32,0,0,1,.16-1.32,38,38,0,0,1,3.77-6.56l0.1-.15a72.76,72.76,0,0,1,5.88-7.18,2.32,2.32,0,0,1,.6-0.51,40.55,40.55,0,0,0,7.83-5.77,15.87,15.87,0,0,0,3.86-5.49,8.88,8.88,0,0,0-.27-6.19,5,5,0,0,0-.79-1.33,1.85,1.85,0,0,0-.7-0.53,1.23,1.23,0,0,0-.81,0c-0.73.51-2,1.33-3.32,2.12-1.09.68-2.16,1.34-2.67,1.7a2.33,2.33,0,0,1-.48.32q-3.46,1.76-7,3.41t-6.77,3h0l-0.07,0q-4.11,1.54-6.69,2.75a15.34,15.34,0,0,0-2.95,1.65,2.32,2.32,0,0,1-.47.34,16.33,16.33,0,0,0-4.2,3.5,27.21,27.21,0,0,0-3.71,5.6" transform="translate(-106.82 -178.85)" style="fill:#414141"/><path d="M288.94,395.58l19.93-27.2-13.66,5.82" transform="translate(-106.82 -178.85)" style="fill:#ddca78"/><path d="M295.56,343.35a7.63,7.63,0,0,0,4.21-2.46l0.33,1,0.58,1.76,0.45,1.38,0.29,0.88,1.51,4.58a11.2,11.2,0,0,0-4.78.75l-1.28-3.89Z" transform="translate(-106.82 -178.85)" style="fill:#fff"/><path d="M299.91,341.28a5.6,5.6,0,0,0,4.79-1.69c0.65,1.45,1.3,3.05,1.89,4.8,0.43,1.26.8,2.48,1.11,3.64a19.93,19.93,0,0,1-5,1.78l-1.28-3.89Z" transform="translate(-106.82 -178.85)" style="fill:#ffe780"/><circle cx="302.11" cy="340.54" r="2.33" transform="translate(-161.86 -120.59) rotate(-10.1)" style="fill:#414141"/><path d="M307.24,348.75a2.33,2.33,0,0,1-1.88,2.7,2.66,2.66,0,0,1-1.73-.38,2.24,2.24,0,0,1-.54-0.49,2.44,2.44,0,0,1-.42-1,2.47,2.47,0,0,1,1.88-2.7A2.33,2.33,0,0,1,307.24,348.75Z" transform="translate(-106.82 -178.85)" style="fill:#414141"/></svg>