<svg id="1471108e-cff0-4ec4-88e0-de3a190c3521" data-name="Layer 1" xmlns="http://www.w3.org/2000/svg" xmlns:xlink="http://www.w3.org/1999/xlink" viewBox="0 0 585.52 410.71"><defs><linearGradient id="60308ce1-ad90-4781-aea0-7e1ed2df4cf7" x1="596.27" y1="250.16" x2="238.75" y2="607.68" gradientUnits="userSpaceOnUse"><stop offset="0" stop-color="#fffce9"/><stop offset="1" stop-color="#e9fff7"/></linearGradient><clipPath id="62aff9c3-9897-44d5-ae2f-0d82d1bad23f" transform="translate(-113.37 -197.17)"><rect id="e2c6f664-e06a-4fb9-ac5b-c175979dfbd5" data-name="SVGID" x="113.99" y="183.08" width="292.8" height="412.42" style="fill:none"/></clipPath><linearGradient id="f3ddc09d-cb32-4ab7-b1a2-cda8187e48f4" x1="595.97" y1="250.19" x2="238.45" y2="607.71" gradientUnits="userSpaceOnUse"><stop offset="0" stop-color="#576479"/><stop offset="1" stop-color="#4e596c"/></linearGradient><linearGradient id="c32436fc-b168-4b4a-b61b-b612ff1d285d" x1="597.71" y1="426.74" x2="615.49" y2="426.74" gradientUnits="userSpaceOnUse"><stop offset="0" stop-color="#ffff94"/><stop offset="1" stop-color="#ffcf3f"/></linearGradient><linearGradient id="0936e318-4d09-498f-88ef-5b10126fcfbc" x1="366.26" y1="595.24" x2="366.26" y2="601.55" gradientUnits="userSpaceOnUse"><stop offset="0" stop-color="#ff6d94"/><stop offset="1" stop-color="#ffcf3f"/></linearGradient><linearGradient id="7f75e455-b8b9-4100-8739-80b3a4eb3280" x1="372.14" y1="575.92" x2="387.74" y2="575.92" xlink:href="#0936e318-4d09-498f-88ef-5b10126fcfbc"/><linearGradient id="ea62ccb5-4f50-4b7a-8abe-ed753e49dcdd" x1="360.61" y1="564.3" x2="346.56" y2="588.64" xlink:href="#0936e318-4d09-498f-88ef-5b10126fcfbc"/><linearGradient id="fd6cca15-c7af-4b45-8cfe-b7fd166bcd0b" x1="250.72" y1="354.49" x2="255.33" y2="354.49" xlink:href="#0936e318-4d09-498f-88ef-5b10126fcfbc"/><clipPath id="7dfa20bc-b9fd-474c-a9b2-69ac7a647b87" transform="translate(-113.37 -197.17)"><rect id="5ec8df9d-8fdd-4c96-9e8a-a43dc322645e" data-name="SVGID" x="406.88" y="229.39" width="140.47" height="170.88" style="fill:none"/></clipPath></defs><title>Untitled-4</title><path d="M673.3,353.32C724.66,460.39,706.78,577.49,545,584.07,375.9,590.95,319.3,597,242.61,571c-399.07-135,238-619.43,430.69-217.73" transform="translate(-113.37 -197.17)" style="fill-rule:evenodd;fill:url(#60308ce1-ad90-4781-aea0-7e1ed2df4cf7)"/><g style="clip-path:url(#62aff9c3-9897-44d5-ae2f-0d82d1bad23f)"><path d="M673,353.35c51.37,107.07,33.48,224.17-128.32,230.75C375.6,591,319,597,242.31,571.07-156.76,436,480.29-48.36,673,353.35" transform="translate(-113.37 -197.17)" style="fill-rule:evenodd;fill:url(#f3ddc09d-cb32-4ab7-b1a2-cda8187e48f4)"/></g><path d="M492.66,316.81h-200a15.11,15.11,0,0,0,0-30.18h200A15.1,15.1,0,1,0,492.66,316.81Z" transform="translate(-113.37 -197.17)" style="fill:#9bcccc"/><path d="M513.57,349.53H295.72c-10.4.41-18.59-8.33-17.95-17.62,0.59-8.51,8.47-15.69,17.95-15.25H513.57c9.54-.56,17.58,6.91,17.88,15.87C531.76,341.88,523.55,350.09,513.57,349.53Z" transform="translate(-113.37 -197.17)" style="fill:#9bcccc"/><path d="M497.32,372.1H359.18c5.72-.45,10.07-5.77,9.85-11.75-0.21-5.66-4.45-10.43-9.85-10.85H497.32c-5.77-.08-10.54,4.9-10.72,10.93C486.42,366.73,491.29,372.18,497.32,372.1Z" transform="translate(-113.37 -197.17)" style="fill:#9bcccc"/><path d="M495.22,393.63H352.47c-6.81.27-12.18-5.46-11.76-11.54a11.18,11.18,0,0,1,11.76-10H495.22A10.81,10.81,0,1,1,495.22,393.63Z" transform="translate(-113.37 -197.17)" style="fill:#9bcccc"/><path d="M489.33,286.83H296.14c-9.22.37-16.49-7.38-15.91-15.62,0.52-7.55,7.51-13.92,15.91-13.53H489.33a15,15,0,0,1,15.86,14.07C505.46,280,498.18,287.33,489.33,286.83Z" transform="translate(-113.37 -197.17)" style="fill:#9bcccc"/><path d="M494.85,313.12h-200a15.11,15.11,0,0,0,0-30.18h200A15.1,15.1,0,1,0,494.85,313.12Z" transform="translate(-113.37 -197.17)" style="fill:#d0fafc"/><path d="M515.76,345.83H297.91c-10.4.41-18.59-8.33-17.95-17.62,0.59-8.51,8.47-15.69,17.95-15.25H515.76c9.54-.56,17.58,6.91,17.88,15.87C534,338.18,525.74,346.39,515.76,345.83Z" transform="translate(-113.37 -197.17)" style="fill:#d0fafc"/><path d="M499.51,368.41H361.37c5.72-.45,10.07-5.77,9.85-11.75-0.21-5.66-4.45-10.43-9.85-10.85H499.51c-5.77-.08-10.54,4.9-10.72,10.93C488.61,363,493.48,368.49,499.51,368.41Z" transform="translate(-113.37 -197.17)" style="fill:#d0fafc"/><path d="M497.41,389.93H354.66c-6.81.27-12.18-5.46-11.76-11.54a11.18,11.18,0,0,1,11.76-10H497.41A10.81,10.81,0,1,1,497.41,389.93Z" transform="translate(-113.37 -197.17)" style="fill:#d0fafc"/><path d="M491.52,283.13H298.33c-9.22.37-16.49-7.38-15.91-15.62,0.52-7.55,7.51-13.92,15.91-13.53H491.52a15,15,0,0,1,15.86,14.07C507.66,276.35,500.37,283.63,491.52,283.13Z" transform="translate(-113.37 -197.17)" style="fill:#d0fafc"/><rect x="33.95" y="357.45" width="50.98" height="50.98" style="fill:#c7ab9a;stroke:#414141;stroke-linecap:round;stroke-linejoin:round;stroke-width:3.5px"/><rect x="168.92" y="357.45" width="50.98" height="50.98" style="fill:#c7ab9a;stroke:#414141;stroke-linecap:round;stroke-linejoin:round;stroke-width:3.5px"/><rect x="37.59" y="291.91" width="43.7" height="65.55" style="fill:#c3cad7;stroke:#414141;stroke-linecap:round;stroke-linejoin:round;stroke-width:3.5px"/><path d="M183.73,532.77c0,14.57-21.84,14.57-21.84,0s21.84-14.56,21.84,0" transform="translate(-113.37 -197.17)" style="fill:#d7dde9;stroke:#414141;stroke-linecap:round;stroke-miterlimit:10;stroke-width:3.5px"/><path d="M183.73,510.93c0,14.56-21.84,14.56-21.84,0s21.84-14.57,21.84,0" transform="translate(-113.37 -197.17)" style="fill:#d7dde9;stroke:#414141;stroke-linecap:round;stroke-miterlimit:10;stroke-width:3.5px"/><rect x="74.02" y="368.38" width="10.92" height="40.06" style="fill:#969696;stroke:#414141;stroke-linecap:round;stroke-miterlimit:10;stroke-width:3.5px"/><rect x="63.09" y="368.38" width="10.92" height="40.06" style="fill:#969696;stroke:#414141;stroke-linecap:round;stroke-miterlimit:10;stroke-width:3.5px"/><rect x="52.17" y="368.38" width="10.92" height="40.06" style="fill:#969696;stroke:#414141;stroke-linecap:round;stroke-linejoin:round;stroke-width:3.5px"/><rect x="208.98" y="375.66" width="10.92" height="32.77" style="fill:#969696;stroke:#414141;stroke-linecap:round;stroke-miterlimit:10;stroke-width:3.5px"/><rect x="198.05" y="375.66" width="10.93" height="32.77" style="fill:#969696;stroke:#414141;stroke-linecap:round;stroke-miterlimit:10;stroke-width:3.5px"/><rect x="187.13" y="375.66" width="10.92" height="32.77" style="fill:#969696;stroke:#414141;stroke-linecap:round;stroke-miterlimit:10;stroke-width:3.5px"/><path d="M311.55,539.93H295.41a2.6,2.6,0,0,1-2.59-2.59,2.56,2.56,0,0,1,2.59-2.59h16.14a2.6,2.6,0,0,1,2.59,2.59A2.56,2.56,0,0,1,311.55,539.93Zm-9.61,45.34a3.23,3.23,0,0,1-3.22,3.22h-0.08v-4.76A20.68,20.68,0,0,0,278,563.08h-9.27V555.9h21.86a8.09,8.09,0,0,0,8.06-8.06l0.17-3.07H302v40.5h0Zm-8.15,3.31h-75v-4.84a15.83,15.83,0,0,1,15.81-15.81H278a15.83,15.83,0,0,1,15.81,15.81v4.84h0Zm-82.62-3.31V544.68h2.74v3.07a8.09,8.09,0,0,0,8.06,8.06h21.71V563h-9.12a20.69,20.69,0,0,0-20.65,20.65v4.77A3.14,3.14,0,0,1,211.17,585.27Zm-10.41-45.34a2.61,2.61,0,0,1-2.59-2.59,2.56,2.56,0,0,1,2.59-2.59H216.9a2.61,2.61,0,0,1,2.59,2.59,2.56,2.56,0,0,1-2.59,2.59H200.76Zm63.1,16v7.18H248.54V555.9h15.33Zm-29.29-81.26H278a15.83,15.83,0,0,1,15.81,15.81v39.7a7.37,7.37,0,0,0,0,14.37v3.31a3.23,3.23,0,0,1-3.22,3.22H222a3.23,3.23,0,0,1-3.22-3.22v-3.31a7.42,7.42,0,0,0,0-14.37V490.38A15.76,15.76,0,0,1,234.57,474.65Zm77,55.28h-12.9V490.4A20.68,20.68,0,0,0,278,469.75h-43.4a20.69,20.69,0,0,0-20.65,20.65v39.53H200.79a7.43,7.43,0,0,0,0,14.86h5.49v40.59a8.1,8.1,0,0,0,7.58,8.06v0.08h84.63v-0.08h0.08a8.09,8.09,0,0,0,8.06-8.06V544.79h4.76a7.41,7.41,0,0,0,7.43-7.43A7.28,7.28,0,0,0,311.55,529.93Z" transform="translate(-113.37 -197.17)" style="fill:#414141"/><path d="M233.92,473.81h44.36A16.18,16.18,0,0,1,294.43,490v40.57a7.53,7.53,0,0,0,0,14.69v3.38a3.31,3.31,0,0,1-3.29,3.29H221.05a3.31,3.31,0,0,1-3.29-3.29v-3.38a7.58,7.58,0,0,0,0-14.69V489.89A16.1,16.1,0,0,1,233.92,473.81Z" transform="translate(-113.37 -197.17)" style="fill:#c0dfb0"/><path d="M229.67,486.21a27.43,27.43,0,0,1,38.3,5.94,1.64,1.64,0,0,0,2.65-1.94,30.71,30.71,0,0,0-42.9-6.66A1.65,1.65,0,0,0,229.67,486.21Z" transform="translate(-113.37 -197.17)" style="fill:#414141"/><path d="M268.65,483.1a1.75,1.75,0,1,1,3.5,0v6.25c0,0.81,1.77,2,4.53,3.42,5,2.55,6.89,2.32,12.48,4.88a40.11,40.11,0,0,1,9.64,6,2.9,2.9,0,0,1-.68-0.29c-3.36-1.69-8.37-2.2-10-2.43a73.77,73.77,0,0,1-13-5.09c-3.94-2-6.46-4.19-6.46-6.54V483.1Z" transform="translate(-113.37 -197.17)" style="fill:#aac19d"/><path d="M239.49,482.85a1.75,1.75,0,1,1,3.5,0v6.25c0,2.35-2.52,4.54-6.46,6.54-2.33,1.18-3.07.72-8.14,2.83a47.85,47.85,0,0,1-4.88,1.91,35.76,35.76,0,0,1-4.62,1.11l-0.19,0-0.15,0a3.61,3.61,0,0,1-.79-1.46v-0.67c0.5-.24,1.32-0.61,2.36-1s1.93-.78,2.36-0.92A80.78,80.78,0,0,0,235,492.53c2.76-1.4,4.53-2.62,4.53-3.42v-6.25Z" transform="translate(-113.37 -197.17)" style="fill:#aac19d"/><rect x="467.68" y="178.21" width="54.83" height="81.73" style="fill:#e9ffed"/><rect x="474.92" y="185.45" width="40.35" height="67.24" style="fill:#ccffd3"/><path d="M619.09,421.43a1.52,1.52,0,0,1-.49-0.09A1.46,1.46,0,1,1,619.09,421.43Z" transform="translate(-113.37 -197.17)" style="fill:#a0edee"/><path d="M616.33,407h1.26a1.53,1.53,0,0,1,1.53,1.53v2.38a1.53,1.53,0,0,1-1.53,1.53h-1.26V407Z" transform="translate(-113.37 -197.17)" style="fill:#a0edee"/><path d="M612.55,435.18a8.83,8.83,0,0,1-11.92,0l-0.25-.23H612.8Z" transform="translate(-113.37 -197.17)" style="fill:#a0edee"/><path d="M615.49,428.6a8.82,8.82,0,0,1-1.62,5.1l0,0.06H599.36l0-.06a8.82,8.82,0,0,1-1.62-5.1v-7.86a1,1,0,0,1,1-1h15.73a1,1,0,0,1,1,1v7.86h0Z" transform="translate(-113.37 -197.17)" style="fill:url(#c32436fc-b168-4b4a-b61b-b612ff1d285d)"/><path d="M598.49,407.12a3.21,3.21,0,0,1,3.21-3.21h9.78a3.21,3.21,0,0,1,3.21,3.21v5.83a3.21,3.21,0,0,1-3.21,3.21h-0.93l0.27-.23a2.15,2.15,0,0,0-1.39-3.8h-5.68a2.15,2.15,0,0,0-1.39,3.8l0.27,0.23H601.7a3.21,3.21,0,0,1-3.21-3.21v-5.83Z" transform="translate(-113.37 -197.17)" style="fill:#a0edee"/><path d="M609.43,415.3h-0.81v-2h0.81A1,1,0,0,1,609.43,415.3Z" transform="translate(-113.37 -197.17)" style="fill:#a0edee"/><rect x="492.34" y="216.11" width="1.76" height="2.02" style="fill:#a0edee"/><path d="M604.56,415.3h-0.81a1,1,0,0,1,0-2h0.81v2Z" transform="translate(-113.37 -197.17)" style="fill:#a0edee"/><circle cx="497.68" cy="211.36" r="1.4" style="fill:#a0edee"/><circle cx="488.77" cy="211.36" r="1.4" style="fill:#a0edee"/><path d="M603,432.43a0.87,0.87,0,0,1-1.75,0,0.87,0.87,0,0,1,1.75,0" transform="translate(-113.37 -197.17)" style="fill:#414141"/><path d="M607.47,432.43a0.87,0.87,0,0,1-1.75,0,0.87,0.87,0,0,1,1.75,0" transform="translate(-113.37 -197.17)" style="fill:#414141"/><path d="M612,432.43a0.87,0.87,0,0,1-1.75,0,0.87,0.87,0,0,1,1.75,0" transform="translate(-113.37 -197.17)" style="fill:#414141"/><rect x="492.65" y="194.98" width="1.15" height="2.23" style="fill:#414141"/><rect x="497.16" y="200.57" width="2.23" height="1.15" style="fill:#414141"/><rect x="487.06" y="200.57" width="2.23" height="1.15" style="fill:#414141"/><rect x="609.05" y="394.17" width="2.23" height="1.15" transform="translate(-213.78 349.9) rotate(-45)" style="fill:#414141"/><rect x="602.44" y="393.63" width="1.15" height="2.23" transform="translate(-215.88 344.85) rotate(-45)" style="fill:#414141"/><path d="M602.13,407.14a1.4,1.4,0,1,1-1.4,1.4A1.4,1.4,0,0,1,602.13,407.14Zm0,3.94a2.55,2.55,0,1,0-2.55-2.55A2.55,2.55,0,0,0,602.13,411.08Z" transform="translate(-113.37 -197.17)" style="fill:#414141"/><path d="M611.05,407.14a1.4,1.4,0,1,1-1.4,1.4A1.4,1.4,0,0,1,611.05,407.14Zm0,3.94a2.55,2.55,0,1,0-2.55-2.55A2.55,2.55,0,0,0,611.05,411.08Z" transform="translate(-113.37 -197.17)" style="fill:#414141"/><path d="M594.06,408.52a1.53,1.53,0,0,1,1.53-1.53h1.26v5.44h-1.26a1.53,1.53,0,0,1-1.53-1.53v-2.38Zm4.43-1.4a3.21,3.21,0,0,1,3.21-3.21h9.78a3.21,3.21,0,0,1,3.21,3.21v5.83a3.21,3.21,0,0,1-3.21,3.21h-0.93l0.27-.23a2.15,2.15,0,0,0-1.39-3.8h-5.68a2.15,2.15,0,0,0-1.39,3.8l0.27,0.23H601.7a3.21,3.21,0,0,1-3.21-3.21v-5.83Zm6.76-9a1.34,1.34,0,1,1,1.34,1.34A1.34,1.34,0,0,1,605.25,398.12Zm4.18,17.17h-0.81v-2h0.81A1,1,0,0,1,609.43,415.3Zm-2,0h-1.76v-2h1.76v2Zm-2.91,0h-0.81a1,1,0,0,1,0-2h0.81v2ZM616.33,407h1.26a1.53,1.53,0,0,1,1.53,1.53v2.38a1.53,1.53,0,0,1-1.53,1.53h-1.26V407Zm-20.73,6.59h1.8l0,0.11a4.35,4.35,0,0,0,4.29,3.62h9.78a4.35,4.35,0,0,0,4.29-3.62l0-.11h1.8a2.68,2.68,0,0,0,2.68-2.68v-2.38a2.68,2.68,0,0,0-2.68-2.68h-1.94l0-.09a4.35,4.35,0,0,0-4.14-3H607.2v-2.23l0.09,0a2.49,2.49,0,1,0-1.38,0l0.09,0v2.23h-4.29a4.36,4.36,0,0,0-4.14,3l0,0.09H595.6a2.69,2.69,0,0,0-2.68,2.68v2.38A2.67,2.67,0,0,0,595.59,413.58Z" transform="translate(-113.37 -197.17)" style="fill:#414141"/><path d="M619.09,421.43a1.52,1.52,0,0,1-.49-0.09A1.46,1.46,0,1,1,619.09,421.43Zm-3.61,7.18a8.82,8.82,0,0,1-1.62,5.1l0,0.06H599.36l0-.06a8.82,8.82,0,0,1-1.62-5.1v-7.86a1,1,0,0,1,1-1h15.73a1,1,0,0,1,1,1v7.86h0Zm-2.93,6.58a8.83,8.83,0,0,1-11.92,0l-0.25-.23H612.8Zm-18-13.81a1.47,1.47,0,0,1-.38.06,1.5,1.5,0,0,1-1.11-.5,1.48,1.48,0,0,1-.39-1A1.49,1.49,0,1,1,594.58,421.37Zm25.72,8.77-0.09,0v-7.91l0.06,0a2.47,2.47,0,1,0-3.67-2.52l-0.06.37-0.18-.33a2.17,2.17,0,0,0-1.89-1.13H598.73a2.17,2.17,0,0,0-1.89,1.13l-0.18.33-0.06-.37a2.47,2.47,0,1,0-3.67,2.52l0.06,0v8.18l-0.09,0a2.85,2.85,0,0,0-2,2.72,2.83,2.83,0,0,0,1.18,2.3l0.78-1.2a1.4,1.4,0,0,1-.53-1.1,1.41,1.41,0,1,1,2.82,0,1.4,1.4,0,0,1-.53,1.1l0.78,1.2a2.82,2.82,0,0,0,1.18-2.3,2.85,2.85,0,0,0-2-2.72l-0.09,0v-7.89l0.11,0a2.45,2.45,0,0,0,1.79-1.24l0.24-.44v7.81a10,10,0,0,0,20.08,0V420.8l0.24,0.44a2.45,2.45,0,0,0,1.79,1.24l0.11,0v7.63l-0.09,0a2.86,2.86,0,0,0-2,2.72,2.82,2.82,0,0,0,1.18,2.3l0.78-1.2a1.4,1.4,0,0,1-.53-1.1,1.41,1.41,0,1,1,2.29,1.1l0.78,1.2A2.83,2.83,0,0,0,620.29,430.15Z" transform="translate(-113.37 -197.17)" style="fill:#414141"/><path d="M608.52,425.24h-1.81l1.83-2.06a0.92,0.92,0,0,0-.08-1.3,0.91,0.91,0,0,0-.61-0.23,0.93,0.93,0,0,0-.69.31L604,425.55a0.92,0.92,0,0,0,.69,1.53h1.58l-2.1,2a0.92,0.92,0,0,0-.28.65,0.91,0.91,0,0,0,.26.66,0.94,0.94,0,0,0,1.3,0l3.74-3.61a0.91,0.91,0,0,0,.28-0.74,1,1,0,0,0-.06-0.27A0.92,0.92,0,0,0,608.52,425.24Z" transform="translate(-113.37 -197.17)" style="fill:#414141"/><path d="M628.63,382.62v12.73l-40.35,40.35V382.62h40.35Zm-40.35,67.24V437.13l40.35-40.35v53.07H588.29Zm-0.52,1h41.38a0.49,0.49,0,0,0,.52-0.52V382.1a0.49,0.49,0,0,0-.52-0.52H587.77a0.49,0.49,0,0,0-.52.52v68.28A0.49,0.49,0,0,0,587.77,450.9Zm48.1-75.52V457.1H581V375.38h54.83Zm0.52-2.59H580.53a2.08,2.08,0,0,0-2.07,2.07v82.76a2.08,2.08,0,0,0,2.07,2.07h55.86a2.08,2.08,0,0,0,2.07-2.07V374.86A2.08,2.08,0,0,0,636.39,372.79Z" transform="translate(-113.37 -197.17)" style="fill:#414141"/><rect x="322.23" y="382.89" width="217.05" height="26.49" style="fill:#7fde95"/><path d="M515.41,561H497.5c-0.45,0-1.05,0-1.88,0a22.1,22.1,0,0,0-17.81,9.29c-3.54,4.79-4.17,10.45-4.17,16.22v16.72A2.41,2.41,0,0,0,476,605.6h17.93a43.55,43.55,0,0,0,8.94-3.49C512,596.66,516.5,580.05,515.41,561Z" transform="translate(-113.37 -197.17)" style="fill:#70c17f"/><path d="M649,566.46c0,4-.06-4.6,0,0,0,1.92,3.28,1.92,3.24,0-0.11-7.86-7.19-13.92-15.62-13.92H453.13a15.67,15.67,0,0,0-12.19,5.73c-2.42,3-2.86,6.44-2.86,10V578.6a1.57,1.57,0,0,0,1.62,1.49H650.57a1.57,1.57,0,0,0,1.62-1.49V566.46C652.21,564.53,649,564.53,649,566.46Z" transform="translate(-113.37 -197.17)" style="fill:#7fde95"/><path d="M502.23,552.82H488.69a15.67,15.67,0,0,0-12.19,5.73c-2.42,3-2.86,6.44-2.86,10v10.31a1.57,1.57,0,0,0,1.62,1.49h12.27a31.85,31.85,0,0,0,6.12-2.15C499.9,574.84,503,564.59,502.23,552.82Z" transform="translate(-113.37 -197.17)" style="fill:#70c17f"/><path d="M638.15,527.37h0s3.23,0.75,3.22,0a35.94,35.94,0,0,0-12.1-26.62,38.7,38.7,0,0,0-25.63-9.61H488a43,43,0,0,0-16.14,2.78,37.53,37.53,0,0,0-20.89,20.62,34.4,34.4,0,0,0-2.45,13v23.3a1.63,1.63,0,0,0,2,1.5,26.79,26.79,0,0,1,6.15-.35H633a38.39,38.39,0,0,1,5.07.11c0.42,0.06.83,0.15,1.23,0.24a1.61,1.61,0,0,0,2-1.5V527.37a0.68,0.68,0,0,0-.16-0.48C640.61,526.23,638.15,527.37,638.15,527.37Z" transform="translate(-113.37 -197.17)" style="fill:#7fde95"/><path d="M520.84,489.09c-3.6-2.33-15.81,2.63-16.43,2.89a38.57,38.57,0,0,0-21.27,21.4,36.3,36.3,0,0,0-2.49,13.44V551a1.66,1.66,0,0,0,2.08,1.55c4.49-1.07,7.87-.15,16.14-0.37,1.29,0,2.33,0,2.89,0C522.92,505.91,524.8,491.64,520.84,489.09Z" transform="translate(-113.37 -197.17)" style="fill:#70c17f"/><path d="M640.09,527.81v24.89c0.69-.53,1.39-1.05,2.08-1.59a29.35,29.35,0,0,0-6.94-.49H465.88c-4.88,0-9.79-.2-14.67,0a15.11,15.11,0,0,0-3,.47c0.69,0.53,1.39,1.05,2.08,1.59V528a36.15,36.15,0,0,1,2.38-13A35.45,35.45,0,0,1,474,494.54a41.37,41.37,0,0,1,13.87-1.94H605a35.07,35.07,0,0,1,35.05,35.21,1.64,1.64,0,0,0,3.28,0,38.94,38.94,0,0,0-12.32-28.29A38.45,38.45,0,0,0,605,489.31H487.19a42.17,42.17,0,0,0-16.43,3,39.06,39.06,0,0,0-21.27,21.92A38,38,0,0,0,447,527.94v24.76a1.67,1.67,0,0,0,2.08,1.59,26.14,26.14,0,0,1,6.26-.38H634.89A37.45,37.45,0,0,1,640,554c0.43,0.06.84,0.16,1.25,0.25a1.66,1.66,0,0,0,2.08-1.59V527.81A1.65,1.65,0,0,0,640.09,527.81Z" transform="translate(-113.37 -197.17)" style="fill:#414141"/><path d="M653.13,579.34v26.42l1.64-1.64H435.6l1.64,1.64V579.34L435.6,581H654.78a1.64,1.64,0,0,0,0-3.29H435.6a1.66,1.66,0,0,0-1.64,1.64v26.42a1.65,1.65,0,0,0,1.64,1.64H654.78a1.66,1.66,0,0,0,1.64-1.64V579.34A1.64,1.64,0,0,0,653.13,579.34Z" transform="translate(-113.37 -197.17)" style="fill:#414141"/><path d="M650.36,566v13.37L652,577.7H438.38l1.64,1.64V571c0-3.17-.29-6.44.8-9.47a11.92,11.92,0,0,1,11.12-7.65H637.61a14.56,14.56,0,0,1,4.46.64,12.21,12.21,0,0,1,8.3,11.42c0,2.12,3.32,2.12,3.28,0a15.66,15.66,0,0,0-15.83-15.34H451.95a15.41,15.41,0,0,0-12.35,6.32c-2.45,3.26-2.89,7.1-2.89,11v11.37a1.66,1.66,0,0,0,1.64,1.64H652a1.66,1.66,0,0,0,1.64-1.64V566A1.63,1.63,0,0,0,650.36,566Z" transform="translate(-113.37 -197.17)" style="fill:#414141"/><path d="M523.16,543.78a7,7,0,0,1-7.24,6.83H488.51c-0.63,0-1.24,0-1.87,0a6.9,6.9,0,0,1-5.59-4c-2.22-4.44,1.52-9.65,6.26-9.65h27.78a11.56,11.56,0,0,1,3.28.31,6.87,6.87,0,0,1,4.79,6.52c0,2.12,3.33,2.12,3.29,0a10.24,10.24,0,0,0-10.13-10.13H490c-2.61,0-5,0-7.46,1.19-5.1,2.56-6.68,9.12-4,14,1.91,3.5,5.65,5.1,9.48,5.1h25.65a24.05,24.05,0,0,0,5-.28,10.22,10.22,0,0,0,7.78-9.85C526.49,541.67,523.2,541.67,523.16,543.78Z" transform="translate(-113.37 -197.17)" style="fill:#414141"/><path d="M609.92,543.78a7,7,0,0,1-7.24,6.83H575.27c-0.63,0-1.24,0-1.87,0a6.9,6.9,0,0,1-5.59-4c-2.22-4.44,1.52-9.65,6.26-9.65h27.78a11.56,11.56,0,0,1,3.28.31,6.88,6.88,0,0,1,4.79,6.52c0,2.12,3.33,2.12,3.29,0a10.24,10.24,0,0,0-10.13-10.13H576.75c-2.61,0-5,0-7.46,1.19-5.1,2.56-6.68,9.12-4,14,1.91,3.5,5.65,5.1,9.48,5.1h25.65a24.05,24.05,0,0,0,5-.28,10.22,10.22,0,0,0,7.78-9.85C613.24,541.67,610,541.67,609.92,543.78Z" transform="translate(-113.37 -197.17)" style="fill:#414141"/><path d="M477.64,513.65l6.23,6.23a1.65,1.65,0,0,0,2.33-2.33L480,511.32A1.65,1.65,0,0,0,477.64,513.65Z" transform="translate(-113.37 -197.17)" style="fill:#414141"/><path d="M480,519.88l6.23-6.23a1.65,1.65,0,0,0-2.33-2.33l-6.23,6.23A1.65,1.65,0,0,0,480,519.88Z" transform="translate(-113.37 -197.17)" style="fill:#414141"/><path d="M509.27,513.78L515.5,520a1.65,1.65,0,0,0,2.33-2.33l-6.23-6.23A1.65,1.65,0,0,0,509.27,513.78Z" transform="translate(-113.37 -197.17)" style="fill:#414141"/><path d="M511.6,520l6.23-6.23a1.65,1.65,0,0,0-2.33-2.33l-6.23,6.23A1.65,1.65,0,0,0,511.6,520Z" transform="translate(-113.37 -197.17)" style="fill:#414141"/><path d="M540.92,513.78l6.23,6.23a1.65,1.65,0,0,0,2.33-2.33l-6.23-6.23A1.65,1.65,0,0,0,540.92,513.78Z" transform="translate(-113.37 -197.17)" style="fill:#414141"/><path d="M543.23,520l6.23-6.23a1.65,1.65,0,0,0-2.33-2.33l-6.23,6.23A1.65,1.65,0,0,0,543.23,520Z" transform="translate(-113.37 -197.17)" style="fill:#414141"/><path d="M572.55,513.65l6.23,6.23a1.65,1.65,0,0,0,2.33-2.33l-6.23-6.23A1.65,1.65,0,0,0,572.55,513.65Z" transform="translate(-113.37 -197.17)" style="fill:#414141"/><path d="M574.88,519.88l6.23-6.23a1.65,1.65,0,0,0-2.33-2.33l-6.23,6.23A1.65,1.65,0,0,0,574.88,519.88Z" transform="translate(-113.37 -197.17)" style="fill:#414141"/><path d="M604.18,513.65l6.23,6.23a1.65,1.65,0,0,0,2.33-2.33l-6.23-6.23A1.65,1.65,0,0,0,604.18,513.65Z" transform="translate(-113.37 -197.17)" style="fill:#414141"/><path d="M606.51,519.88l6.23-6.23a1.65,1.65,0,0,0-2.33-2.33l-6.23,6.23A1.65,1.65,0,0,0,606.51,519.88Z" transform="translate(-113.37 -197.17)" style="fill:#414141"/><path d="M444.73,598.59h37.84a1.64,1.64,0,0,0,0-3.28H444.73A1.64,1.64,0,0,0,444.73,598.59Z" transform="translate(-113.37 -197.17)" style="fill:#414141"/><path d="M618.89,568.91h22.18a1.64,1.64,0,0,0,0-3.28H618.89A1.64,1.64,0,0,0,618.89,568.91Z" transform="translate(-113.37 -197.17)" style="fill:#414141"/><path d="M458.77,528.13a27.43,27.43,0,0,1,27.42-27.4,1.64,1.64,0,0,0,0-3.28,30.71,30.71,0,0,0-30.72,30.68A1.65,1.65,0,0,0,458.77,528.13Z" transform="translate(-113.37 -197.17)" style="fill:#414141"/><path d="M220.81,397c6.71-4.39,17.5,2.87,25.33,6.18,9.64,4.08,25,6.52,49.31-2.35l0.27,27.62q3-4.86,5-35.85a34.4,34.4,0,0,0-17-21c-4.47-2.45-9-3.18-16.68-3.61-17.17-1-25.91,1.54-48.52,1.64h-2.77a17,17,0,0,0,.12,19.72,17.19,17.19,0,0,0-4.43,13q2.23,21.71,5.39,28.33c-2-6-4.4-16.64-.25-27.23C218.44,398.63,220.28,397.33,220.81,397Z" transform="translate(-113.37 -197.17)" style="fill:#c3996b;fill-rule:evenodd"/><path d="M200,557.88H311.1v-26c-0.84-15.26-8-24.2-18.09-29.45-7.18-3.92-16.06-6.79-21.91-9.89-12.75-6.77-20.23-11.93-28-3.33-4,4.47-18.47,9.72-25.35,13.23-18,10.19-17,26.68-17.79,36v19.46" transform="translate(-113.37 -197.17)" style="fill:#b2d8f7;fill-rule:evenodd"/><path d="M233.53,495.7c1-.13,2.59-3.13,5.66-1,3.73,2.58,9.76,7.44,7.86,7.13-11.76-1.93-11.69,50.44-12.66,56.07H203.51s-3.87-.1-3.87-0.84c0-9.77-.73-25.28,2-32.82,1.18-3.29,2.56-10,8.51-16.11,6.11-6.23,21-12.11,23.4-12.41" transform="translate(-113.37 -197.17)" style="fill:#b9e1fc;fill-rule:evenodd"/><path d="M234.47,495.31c5.1,4.62,20.68,14,22.12,14.18,0.73,0.1,13.91-7.32,20.39-14-2.83-1.43-6.29-2.58-7.68-3.9-2.16-2.06-1.37-4.55-1.39-9.23-7.89,3.06-16.45,2.36-25.05-.76,0,4.45.76,7.26-.8,9.36-1.33,1.79-4.73,3.06-7.6,4.38" transform="translate(-113.37 -197.17)" style="fill:#fbe3d5;fill-rule:evenodd"/><path d="M243.92,482.2c-1.76-2-1.65,1.08-1.65,3.94,0,5,12.53,5,14.92,5,6-.11,11.59-1.34,11.59-4.1,0-3.53,1.79-7.17-3-4.37-3,1.76-12.18,1.37-15.72.89-0.93-.13-6.24-1.47-6.14-1.36" transform="translate(-113.37 -197.17)" style="fill:#d5b6a5;fill-rule:evenodd"/><path d="M220.82,536.77a1.75,1.75,0,1,1,3.5,0v21.11a1.75,1.75,0,1,1-3.5,0V536.77Z" transform="translate(-113.37 -197.17)" style="fill:#20385e"/><path d="M286.78,536.77a1.75,1.75,0,1,1,3.5,0v21.11a1.75,1.75,0,1,1-3.5,0V536.77Z" transform="translate(-113.37 -197.17)" style="fill:#20385e"/><path d="M241.42,482.6a1.75,1.75,0,1,1,3.5,0v6.25c0,2.35-2.52,4.54-6.46,6.54a97.23,97.23,0,0,1-13,5.09,38.43,38.43,0,0,0-8.8,4.25,33.7,33.7,0,0,0-7.09,6,34.27,34.27,0,0,0-5.39,9.22,38.91,38.91,0,0,0-2.47,10.85v27.05a1.75,1.75,0,0,1-3.5,0V530.76h0s0-.1,0-0.14A42.44,42.44,0,0,1,201,518.7a37.73,37.73,0,0,1,5.95-10.17l0,0a37.16,37.16,0,0,1,7.84-6.69,42,42,0,0,1,9.62-4.64,94,94,0,0,0,12.48-4.88c2.76-1.4,4.53-2.62,4.53-3.42V482.6Z" transform="translate(-113.37 -197.17)" style="fill:#414141"/><path d="M266.94,482.73a1.75,1.75,0,1,1,3.5,0V489c0,0.81,1.77,2,4.53,3.42a94,94,0,0,0,12.48,4.88,42,42,0,0,1,9.62,4.64,37.15,37.15,0,0,1,7.84,6.69l0,0a37.73,37.73,0,0,1,5.95,10.17,42.44,42.44,0,0,1,2.71,11.92s0,0.1,0,.14h0V558a1.75,1.75,0,0,1-3.5,0V531a38.91,38.91,0,0,0-2.47-10.85,34.27,34.27,0,0,0-5.39-9.22,33.68,33.68,0,0,0-7.09-6,38.4,38.4,0,0,0-8.8-4.25,97.2,97.2,0,0,1-13-5.09c-3.94-2-6.46-4.19-6.46-6.54v-6.25Z" transform="translate(-113.37 -197.17)" style="fill:#414141"/><path d="M295.72,411.94c0.35,18.93.52,28.4,0,32.8C293.77,461.09,278,485,256.06,485c-17,0-39.66-17-39.66-40.28v-36.1c-1.73-4.62.25-9.46,3.88-11.11a8.31,8.31,0,0,1,8.36,1.29,99.68,99.68,0,0,0,31.23,7.58c15.05,1,28.23-2.89,35.59-5.58C295.53,403.37,295.63,407.24,295.72,411.94Z" transform="translate(-113.37 -197.17)" style="fill:#fbe3d5;fill-rule:evenodd"/><path d="M243.8,457.78c0.09,8.18,6.38,12,12.15,12,6,0,12.27-3.69,12.36-12H243.8Z" transform="translate(-113.37 -197.17)" style="fill:#fff;fill-rule:evenodd"/><path d="M247.82,467.55a12.65,12.65,0,0,1-4.72-6.82,5.42,5.42,0,0,1-.23-1.48,2.91,2.91,0,0,1,.57-1.82h0a2.89,2.89,0,0,1,1.55-1,5.15,5.15,0,0,1,1.41-.18h19.32a3.57,3.57,0,0,1,2.82,1c0.67,0.75.9,1.88,0.46,3.57a11.85,11.85,0,0,1-4.67,6.77,14.56,14.56,0,0,1-8.38,2.58,13.85,13.85,0,0,1-8.14-2.63m-2.53-7.45a10.39,10.39,0,0,0,3.87,5.61,11.55,11.55,0,0,0,6.79,2.18,12.27,12.27,0,0,0,7.06-2.15,9.61,9.61,0,0,0,3.78-5.49,1.85,1.85,0,0,0,0-1.49,1.67,1.67,0,0,0-1.11-.24H246.41a2.94,2.94,0,0,0-.79.09,0.72,0.72,0,0,0-.37.2h0a0.74,0.74,0,0,0-.1.44A3.18,3.18,0,0,0,245.3,460.1Z" transform="translate(-113.37 -197.17)" style="fill:#414141;stroke:#414141;stroke-miterlimit:10"/><path d="M256.06,463.76c3,0,5.48,1.18,5.48,2.63s-2.45,2.63-5.48,2.63-5.48-1.18-5.48-2.63,2.45-2.63,5.48-2.63" transform="translate(-113.37 -197.17)" style="fill:#f9a0a0;fill-rule:evenodd"/><path d="M259.44,465.56a9,9,0,0,0-6.76,0,0.84,0.84,0,1,0,0,1.67,9,9,0,0,0,6.76,0,0.84,0.84,0,1,0,0-1.67m-3.38-2.94a10.32,10.32,0,0,1,4.36.89,3,3,0,0,1,0,5.78,11.17,11.17,0,0,1-8.73,0,3,3,0,0,1,0-5.78A10.32,10.32,0,0,1,256.06,462.62Z" transform="translate(-113.37 -197.17)" style="fill:#414141"/><path d="M224.46,400.15a2.06,2.06,0,0,0,0,.31c-0.83,13.69-.58,28-0.58,28,0.12,5.52,0,4.19.16,16.62,0.15,11-.27,12.06.81,15.22a23.39,23.39,0,0,0,2.74,5.95c0.88,1.31,6.07,8.81,6.07,8.81a2,2,0,0,1,.35.77c-0.48.56-8.06-5.21-9.8-8.26-2.59-4.55-5.88-11.18-6.58-17.08C216.35,440,217,415.37,217,404.61a8.42,8.42,0,0,1,1.46-6.22c3.6-4.6,11.42-2.34,11.48-1.68S225,397.59,224.46,400.15Z" transform="translate(-113.37 -197.17)" style="fill:#fff1e8;fill-rule:evenodd"/><path d="M232.68,434.07a1.74,1.74,0,1,1-3.49.12,6.33,6.33,0,0,1,.9-3.48,6.88,6.88,0,0,1,2.63-2.5,7.47,7.47,0,0,1,7.13,0,6.87,6.87,0,0,1,2.63,2.5,6.33,6.33,0,0,1,.9,3.48,1.74,1.74,0,1,1-3.49-.12,2.85,2.85,0,0,0-.41-1.57,3.4,3.4,0,0,0-1.31-1.23,4.08,4.08,0,0,0-3.79,0,3.4,3.4,0,0,0-1.31,1.23,2.86,2.86,0,0,0-.41,1.57" transform="translate(-113.37 -197.17)" style="fill:#414141"/><path d="M272.21,434.07a1.74,1.74,0,1,1-3.49.12,6.33,6.33,0,0,1,.9-3.48,6.88,6.88,0,0,1,2.63-2.5,7.47,7.47,0,0,1,7.13,0,6.88,6.88,0,0,1,2.63,2.5,6.33,6.33,0,0,1,.9,3.48,1.74,1.74,0,1,1-3.49-.12,2.86,2.86,0,0,0-.41-1.57,3.4,3.4,0,0,0-1.31-1.23,4.08,4.08,0,0,0-3.79,0,3.4,3.4,0,0,0-1.31,1.23,2.86,2.86,0,0,0-.41,1.57" transform="translate(-113.37 -197.17)" style="fill:#414141"/><path d="M294,428.44a1.75,1.75,0,1,1,3.5,0v16.29h0c0,12.17-5.89,22.68-14,30.15s-18.46,11.87-27.4,11.87h0c-8.94,0-19.3-4.43-27.4-11.88s-14-18-14-30.15h0V420.67a1.75,1.75,0,1,1,3.5,0v24.07h0c0,11.09,5.42,20.71,12.88,27.58s16.94,11,25,11h0c8.1,0,17.57-4.08,25-11S294,455.83,294,444.74h0V428.44Z" transform="translate(-113.37 -197.17)" style="fill:#414141"/><path d="M324.39,599.94H187.72a2.23,2.23,0,0,0-2.22,2.22h0a2.23,2.23,0,0,0,2.22,2.22H324.39a2.23,2.23,0,0,0,2.22-2.22h0a2.21,2.21,0,0,0-.58-1.5L326,600.6a2.21,2.21,0,0,0-1.57-.65m-136.68-3.5H324.39a5.7,5.7,0,0,1,4,1.68l0.11,0.12a5.7,5.7,0,0,1,1.57,3.92h0a5.73,5.73,0,0,1-5.72,5.72H187.72a5.73,5.73,0,0,1-5.72-5.72h0A5.73,5.73,0,0,1,187.72,596.44Z" transform="translate(-113.37 -197.17)" style="fill:#414141"/><rect x="72.13" y="314.43" width="141.11" height="86.35" rx="3" ry="3" style="fill:#efefef;stroke:#414141;stroke-miterlimit:10;stroke-width:3px"/><path d="M256.5,546.54c1.38-3.26,6.59-5,5.88-3a6.38,6.38,0,0,1-1.86,3.1c-1.54,1.26-3.65,2.77-4.34,2.09-0.33-.33-0.07-1.24.32-2.15m9.82,4.72c0.07-1.79-5.5-3-8.31-1.51-3.07,1.68-6.46-3.57-11.32,1.3-3.43,3.43-1,15,4.41,17.2,1.46,0.59,2.11.53,4.14-.59,3.43-1.89,6.08,4.05,9.78-2.18,1.42-2.4,3.3-3.57.91-4.86-3-1.62-3-7.78-.07-8.72A0.67,0.67,0,0,0,266.32,551.26Z" transform="translate(-113.37 -197.17)" style="fill:#414141;fill-rule:evenodd"/><path d="M600.52,450.46V421.17c0-26.89-26.15-46.56-45.85-46.56s-45.85,19.67-45.85,46.56v29.28l55.51,37,0.61,7.65,3.15,2.93,19.18,10.33c15.11-.8,29.41-15.64,16.9-33.91,4.74-11.26,4.74-16.61-3.65-24" transform="translate(-113.37 -197.17)" style="fill:#393c3f;fill-rule:evenodd"/><path d="M517.94,429.13a34.92,34.92,0,0,0,18.36-24.31A37.54,37.54,0,0,1,559,378c2-.81,6-0.07,7.41-1.51a40.25,40.25,0,0,0-35.79,6.17,47.69,47.69,0,0,0-20.31,27.92c-0.93,2.18-1.37,4.16-1.33,9-0.68,13.12-.43,23.61-0.18,30.55-4.57,2.41-11.44,10.32-3.64,24.32-10.9,18.88,1,31.85,15.72,33.91l4.8-3.76,14.72-6.21,3.07-3.77,0.35-7.52-25.41-36.65Z" transform="translate(-113.37 -197.17)" style="fill:#4b4d4f;fill-rule:evenodd"/><path d="M591,418v34c0,21.31-20.72,36.9-36.33,36.9s-36.33-15.59-36.33-36.9v-16.8c0.39-.22,3.79-4.25,16.87-5.89,14.57-1.82,30-2.77,44.4-13,0.48,0.13-1,6.21.52,7.37C584.58,427,591,418,591,418" transform="translate(-113.37 -197.17)" style="fill:#fbe3d5;fill-rule:evenodd"/><path d="M525.14,431.82c0,2.11-.67,4.12-0.52,12.49,0.52,29.14-2.1,20.39,8.2,35.45,2,2.94-6.24-3.62-7.93-6.86-2.18-4.17-4.93-10.24-5.52-15.65-1-9.6-.52-12.26-0.52-22.12,1.2,0,6.28-4.39,6.28-3.32" transform="translate(-113.37 -197.17)" style="fill:#ffecde;fill-rule:evenodd"/><path d="M533.4,444.46a1.74,1.74,0,1,1-3.49.12,6,6,0,0,1,.85-3.27,6.44,6.44,0,0,1,2.47-2.35,7,7,0,0,1,6.67,0,6.44,6.44,0,0,1,2.47,2.35,6,6,0,0,1,.85,3.27,1.74,1.74,0,0,1-3.49-.12,2.47,2.47,0,0,0-.36-1.36,3,3,0,0,0-1.14-1.07,3.6,3.6,0,0,0-3.33,0,3,3,0,0,0-1.14,1.07,2.47,2.47,0,0,0-.36,1.36" transform="translate(-113.37 -197.17)" style="fill:#414141"/><path d="M569.61,444.46a1.74,1.74,0,0,1-3.49.12,6,6,0,0,1,.85-3.27,6.44,6.44,0,0,1,2.47-2.35,7,7,0,0,1,6.67,0,6.44,6.44,0,0,1,2.47,2.35,6,6,0,0,1,.85,3.27,1.74,1.74,0,1,1-3.49-.12,2.47,2.47,0,0,0-.36-1.36,3,3,0,0,0-1.14-1.07,3.6,3.6,0,0,0-3.33,0A3,3,0,0,0,570,443.1a2.47,2.47,0,0,0-.36,1.36" transform="translate(-113.37 -197.17)" style="fill:#414141"/><path d="M507.7,556.34h93V535.16c-0.7-13-6.66-24.76-19.09-30.76-0.76,0-13.19-6.26-13.93-6.26-15.6,0-20.18-1.6-27.24.26-3.42.9-7.89,3.82-13.61,6-4.6,2.38-8.35,5.95-12.91,11.57-4.1,5.35-5.59,11.75-6.18,19.19v21.17" transform="translate(-113.37 -197.17)" style="fill:#ffea8f;fill-rule:evenodd"/><path d="M540.06,498c0.7-.09,1.3,1.6,2.89,2.49,2.76,1.55,6.51,2.7,4.67,2.39-2.82-.47-2,21.69-3.8,27.44-4.54,14.3-9.42,22.41-10,25.84,0,0-20.36.13-23.18,0.13,0,0-3.24-.09-3.24-0.72,0-8.35-.61-26.15,1.65-32.59,2-5.69,27-24.48,31-25" transform="translate(-113.37 -197.17)" style="fill:#fff3bf;fill-rule:evenodd"/><path d="M540.36,498.34c10.74,6.11,9.45,4.81,12.45,5.62,2.57,0.69,13.7-4.15,14.22-5.2,0,0,2.83,1.85-.85-2.11-2.37-2.54-.64-2.64-0.67-10a20.3,20.3,0,0,1-21.92-.1c0,4.38,1.07,6.63-.73,9.11-2.42,3.32-2.49,2.65-2.49,2.65" transform="translate(-113.37 -197.17)" style="fill:#fbe3d5;fill-rule:evenodd"/><path d="M544.46,487.11c-1.48-1.65-1.38.91-1.38,3.29,0,4.19,10.49,4.22,12.49,4.18,5.05-.1,9.7-1.12,9.7-3.43,0-3,1.5-6-2.52-3.65-2.51,1.47-10.19,1.15-13.15.74-0.78-.11-5.22-1.23-5.14-1.14" transform="translate(-113.37 -197.17)" style="fill:#d5b6a5;fill-rule:evenodd"/><path d="M542.08,487.46a1.75,1.75,0,1,1,3.5,0v5.62c0,5-7,8-12.74,10.44-1.41.6-2.73,1.16-3.79,1.68a38.09,38.09,0,0,0-6.54,4.11,44,44,0,0,0-6.53,6.32,29.18,29.18,0,0,0-4.47,7.82,33.63,33.63,0,0,0-2.05,9.21v21.41a1.75,1.75,0,0,1-3.5,0V532.59h0s0-.1,0-0.14a37.14,37.14,0,0,1,2.28-10.25,32.65,32.65,0,0,1,5-8.76h0l0,0a47.46,47.46,0,0,1,7.07-6.84,41.62,41.62,0,0,1,7.14-4.49c1.15-.57,2.52-1.15,4-1.77,4.78-2,10.61-4.51,10.61-7.22v-5.62Z" transform="translate(-113.37 -197.17)" style="fill:#414141"/><path d="M531.54,452.5a5.35,5.35,0,1,1-5.35,5.35,5.35,5.35,0,0,1,5.35-5.35" transform="translate(-113.37 -197.17)" style="fill:#f5d0c0;fill-rule:evenodd"/><path d="M577.5,452.5a5.35,5.35,0,1,1-5.35,5.35,5.35,5.35,0,0,1,5.35-5.35" transform="translate(-113.37 -197.17)" style="fill:#f5d0c0;fill-rule:evenodd"/><path d="M552.66,474.43c-2.53-.11-3.33.51-5.45-1.47a10,10,0,0,1-1.73-3,10,10,0,0,0-.88-1.76c0-1.91,4.93-3.7,7.83-2.64a10.89,10.89,0,0,0,2.21.71,10.53,10.53,0,0,0,2.14-.71c2.9-1.06,7.83.72,7.83,2.64a10,10,0,0,0-.88,1.76,10,10,0,0,1-1.73,3c-2.12,2-2.92,1.36-5.45,1.47-0.86,0-3,0-3.88,0" transform="translate(-113.37 -197.17)" style="fill:#f9a0a0;stroke:#414141;stroke-miterlimit:10;stroke-width:3px;fill-rule:evenodd"/><path d="M589.25,429.79a1.75,1.75,0,0,1,3.5,0V452h0c0,11.19-5.42,20.86-12.88,27.72s-17,10.92-25.2,10.92h0c-8.22,0-17.75-4.07-25.2-10.92S516.59,463.17,516.59,452h0V435.66a1.75,1.75,0,1,1,3.5,0V452h0c0,10.11,4.95,18.89,11.75,25.15s15.45,10,22.84,10h0c7.38,0,16-3.73,22.84-10s11.75-15,11.75-25.15h0V429.79Z" transform="translate(-113.37 -197.17)" style="fill:#414141"/><path d="M562.57,487.46a1.75,1.75,0,1,1,3.5,0v5.62c0,2.71,5.83,5.19,10.61,7.22,1.45,0.62,2.81,1.19,4,1.76a41.62,41.62,0,0,1,7.14,4.49,47.46,47.46,0,0,1,7.07,6.84l0,0h0a34.26,34.26,0,0,1,7.29,19s0,0.1,0,.14h0v23a1.75,1.75,0,0,1-3.5,0v-23a30.84,30.84,0,0,0-6.53-17,44,44,0,0,0-6.53-6.32,38.09,38.09,0,0,0-6.54-4.11c-1.06-.52-2.38-1.09-3.79-1.68-5.74-2.44-12.74-5.42-12.74-10.44v-5.62Z" transform="translate(-113.37 -197.17)" style="fill:#414141"/><path d="M580,535.74a1.75,1.75,0,1,1,3.5,0v19.88a1.75,1.75,0,0,1-3.5,0V535.74Z" transform="translate(-113.37 -197.17)" style="fill:#20385e"/><path d="M521.52,533.36a1.75,1.75,0,0,1,3.5,0v21.17a1.75,1.75,0,0,1-3.5,0V533.36Z" transform="translate(-113.37 -197.17)" style="fill:#20385e"/><path d="M623.43,599.94H486.76a2.23,2.23,0,0,0-2.22,2.22h0a2.23,2.23,0,0,0,2.22,2.22H623.43a2.23,2.23,0,0,0,2.22-2.22h0a2.21,2.21,0,0,0-.58-1.5L625,600.6a2.21,2.21,0,0,0-1.57-.65m-136.68-3.5H623.43a5.7,5.7,0,0,1,4,1.68l0.11,0.12a5.7,5.7,0,0,1,1.57,3.92h0a5.73,5.73,0,0,1-5.72,5.72H486.76a5.73,5.73,0,0,1-5.72-5.72h0A5.73,5.73,0,0,1,486.76,596.44Z" transform="translate(-113.37 -197.17)" style="fill:#414141"/><rect x="371.17" y="314.43" width="141.11" height="86.35" rx="3" ry="3" style="fill:#e6eff4;stroke:#414141;stroke-miterlimit:10;stroke-width:3px"/><rect x="433.56" y="359.76" width="8.06" height="7.66" style="fill:#414141"/><rect x="443.83" y="359.76" width="8.06" height="7.66" style="fill:#414141"/><rect x="433.56" y="369.71" width="8.06" height="7.66" style="fill:#414141"/><rect x="443.83" y="369.71" width="8.06" height="7.66" style="fill:#414141"/><path d="M115.42,607.88a1.75,1.75,0,0,1,0-3.5H695.89a1.75,1.75,0,1,1,0,3.5H115.42Z" transform="translate(-113.37 -197.17)" style="fill:#414141"/><path d="M225.5,367.28a14.5,14.5,0,0,1,1.78-.1c0.75,0,1.3.05,1.41,0.06,1.19,0.11,13.64-1.74,16.7,1.07a4.19,4.19,0,0,1,.61.94s-4.84,11.34-3.64,18.35c1.76,10.21,8.33,18.39,8.33,18.39a67.36,67.36,0,0,1-13.27-3.69,68.23,68.23,0,0,1-7.88-3.12c-2.34-1.49-4-3.19-6.18-2.77a9.07,9.07,0,0,0-2.73,1.27,16.33,16.33,0,0,0-2.72,2.08c-1.34,1.27-.48,10.49-1.46,13.89-0.35,1.2-.45,3-1.38,4.62-1.51,2.6-.27,2.8-0.94-2.08-0.56-4.11-3-10.76-2.85-14.73,0.16-5-1.1-1.35,1.49-7.45,2.1-4.94,3.59-2.24,2-10.06a21.46,21.46,0,0,0-.69-2.61c-0.7-2.06-1-2.3-1.25-3.32-0.63-2.3.14-4.39,0.87-6.41,0.81-2.21,1.21-3.32,2.22-3.73,1.2-.49,2.44.23,4.8-0.06,0.21,0,.59-0.08,1.15-0.13,1.09-.09,1.28,0,2.05-0.13S224.64,367.39,225.5,367.28Z" transform="translate(-113.37 -197.17)" style="fill:#e4c09d;fill-rule:evenodd"/><path d="M227.37,399.27c18.14,14,39.76,13.1,45,12.8,0,0,13.68-.92,23.41-6l0.86-.46h0a15.77,15.77,0,0,0-.71-5.33l-1.62.67c-5.18,2.06-13.64,4.54-26.3,5h0a98.34,98.34,0,0,1-19.49-.07,43.71,43.71,0,0,1-10.91-2.4,48,48,0,0,1-4.43-1.91,79,79,0,0,1-8.73-4.69C225.06,397.41,226.07,398.27,227.37,399.27Z" transform="translate(-113.37 -197.17)" style="fill:#d5b6a5;fill-rule:evenodd"/><path d="M297.46,429.18l0.09,0.14m-0.23-15c0.29-1.08.64-2.53,1-4.24a71.3,71.3,0,0,0,1-7.44,30.86,30.86,0,0,0,.11-7.15,24.87,24.87,0,0,0-.49-2.71,35.5,35.5,0,0,0-5.24-10.21,33.12,33.12,0,0,0-8.15-7.85A35.61,35.61,0,0,0,263.4,369h-0.21l-45.62,1.74A18,18,0,0,0,219,391.51h0l0,0a86.11,86.11,0,0,0,75.77,7.64l0.11,0h0a1.74,1.74,0,0,1,2.26,1.65Zm5.14-21.64c1.32,4.76-.28,13.33-2.61,30.59q-2.11,15.6-5.74,7a1.74,1.74,0,0,1-.13-0.81l-0.24-26.26a86.81,86.81,0,0,1-77.63-9.78h0a21.71,21.71,0,0,1-4.53-11.86c-0.26-4.7,1.55-9.14,2.54-11.73,0.38-1,.74-1.81,1-2.37l2.84-.32,45.24-1.59h0a38.1,38.1,0,0,1,24.29,6.32A39.1,39.1,0,0,1,302.46,392.7Z" transform="translate(-113.37 -197.17)" style="fill:#414141"/><path d="M213.47,388.9c0.35-.23,1.61-1.08,2.39-0.62a1.56,1.56,0,0,1,.62,2.39c-4.06,6.91-3.65,9.86-2.68,16.81,0.26,1.84.55,3.94,0.82,6.48l0,0.16v-9.24a1.83,1.83,0,0,1,0-.2A15,15,0,0,1,216.1,399a8.25,8.25,0,0,1,2.39-2.62,8,8,0,0,1,2.71-1.54c0.69-.22,1.66-0.52,2.09-0.08s0,1.59-.08,1.86c-0.85,2.14-2.74,2.25-4,4a6.31,6.31,0,0,0-1,4.28v28.41h0a1.74,1.74,0,0,1-3.46.31l-3.5-19.11a1.75,1.75,0,0,1,0-.19c0-.2-0.51-3.23-0.81-6.41-0.49-5.16-.73-7.74-0.5-10.15S210.58,390.84,213.47,388.9Z" transform="translate(-113.37 -197.17)" style="fill:#414141"/><path d="M233.32,497a1.75,1.75,0,0,1,1.93-2.91l21.81,14.44a1.75,1.75,0,0,1-1.93,2.91Z" transform="translate(-113.37 -197.17)" style="fill:#414141"/><path d="M276.5,494.37a1.75,1.75,0,1,1,1.93,2.91l-21.37,14.15a1.75,1.75,0,0,1-1.93-2.91Z" transform="translate(-113.37 -197.17)" style="fill:#414141"/><path d="M538.8,499.24a1.75,1.75,0,1,1,2.53-2.41,17.33,17.33,0,0,0,25.15,0,1.75,1.75,0,1,1,2.53,2.41,20.81,20.81,0,0,1-30.21,0" transform="translate(-113.37 -197.17)" style="fill:#414141"/><path d="M530,430.14c-0.52,1.27-4,2.44,3.46,1.53a168,168,0,0,1,20.63-1.22c3,0,13.85-1.7,16.56-2.75,0.83-.32,5-1.6,5.27-0.72,1,2.82.44,4.34,5.53,3,1.21-.31,9.41-3.14,9.41-3.92s0.41-8.52-.69-7.37c-1.91,2-4.25,3.86-7.11,4.33-5.68.93-2.45,1.46-3.71-4.85-0.38-1.88-3.2,1.06-4.67,1.85-6.1,3.27-9.82,4-16.25,5.94-7.27,2.22-10.86,2-17.92,2.8-1.65.2-10,.21-10.48,1.33" transform="translate(-113.37 -197.17)" style="fill:#d5b6a5;fill-rule:evenodd"/><path d="M512.37,450.46c0-14.7-1.31-36,5.25-47.77a69.22,69.22,0,0,1,8.12-10.9c8.11-9.09,21.22-15.11,33.44-15.11,1.14,0,1.12-1.2-1.65-1.54a57.48,57.48,0,0,0-7.18-.2A49.5,49.5,0,0,0,509,417.39c-0.13,16.26-.19,25.13-0.18,33.07h3.57Z" transform="translate(-113.37 -197.17)" style="fill:#4b4d4f;fill-rule:evenodd"/><path d="M512.37,448.7a16.18,16.18,0,0,1,0,1.76c-0.29,2.87-1.89,2.34-4.34,5.62-0.86,1.15-2.94,3.72-3.41,6.54a45.72,45.72,0,0,0-.17,10.3c-0.59-4-2.94-8-1.74-12.13,1.63-5.59,1.87-5.71,5.63-10.13,1.39-1.63,0-1.51,2.71-2.07a2.72,2.72,0,0,1,1.33.1" transform="translate(-113.37 -197.17)" style="fill:#4b4d4f;fill-rule:evenodd"/><path d="M503.81,476.25c0.27-1.5,3.26-1,1.16,3.91-0.77,1.8-.84,13.15-0.05,15s0.14,2.38,2,4.95c0.49,0.7,2.84,4.3,3.47,4.3-0.11-.31-6.07-2.66-8-7.09a23,23,0,0,1-1.44-3.41,14.72,14.72,0,0,1-.09-9.49c0.71-1.84,1-5,2.35-7.05a3.08,3.08,0,0,0,.68-1.08" transform="translate(-113.37 -197.17)" style="fill:#4b4d4f;fill-rule:evenodd"/><path d="M516.14,442.45a1.74,1.74,0,1,1-3.34-1c3.55-11.69,15.72-13.18,29.9-14.92,12-1.48,25.59-3.14,35.79-11.62a1.74,1.74,0,0,1,2.86,1.34h0v6.22a9.41,9.41,0,0,0,4.45-1.65h0a8.83,8.83,0,0,0,3.51-5,1.74,1.74,0,0,1,3.43.44h0v19.23a1.75,1.75,0,0,1-3.5,0v-13a12.68,12.68,0,0,1-1.44,1.18h0a12.94,12.94,0,0,1-8.2,2.31,1.75,1.75,0,0,1-1.74-1.75v-4.48c-10.52,7.27-23.29,8.84-34.73,10.24-13,1.59-24.1,3-27,12.46" transform="translate(-113.37 -197.17)" style="fill:#414141"/><path d="M507.76,449.06a1.74,1.74,0,1,1,2.09,2.79,15.61,15.61,0,0,0-3.28,21.59,1.74,1.74,0,0,1-.08,2.15h0a18.39,18.39,0,0,0,5.14,27.93h0a18.37,18.37,0,0,0,9.91,2.27,1.75,1.75,0,0,1,.19,3.49,21.86,21.86,0,0,1-11.79-2.71h0A21.87,21.87,0,0,1,503,474.37a19.07,19.07,0,0,1,4.76-25.31" transform="translate(-113.37 -197.17)" style="fill:#414141"/><path d="M510.57,450.46a1.75,1.75,0,0,1-3.5,0V421.17h0c0-14,6.78-26.07,16.11-34.65s21.23-13.66,31.5-13.66h0c10.27,0,22.18,5.09,31.5,13.66s16.1,20.66,16.1,34.65h0v28.45a19.08,19.08,0,0,1,4.05,24.75,21.86,21.86,0,0,1,4.22,10.93v0.06a21.87,21.87,0,0,1-24.81,23.74,1.75,1.75,0,1,1,.48-3.46,18.39,18.39,0,0,0,20.86-20v0a18.36,18.36,0,0,0-4.24-10.05h0a1.74,1.74,0,0,1-.08-2.15,15.62,15.62,0,0,0-3.16-21.5,1.75,1.75,0,0,1-.82-1.48V421.17h0c0-12.9-6.3-24.1-15-32.08s-19.7-12.73-29.13-12.73h0c-9.43,0-20.45,4.74-29.13,12.73s-15,19.17-15,32.08h0v29.28Z" transform="translate(-113.37 -197.17)" style="fill:#414141"/><path d="M324.43,599.94H187.76a2.23,2.23,0,0,0-2.22,2.22h0a2.23,2.23,0,0,0,2.22,2.22H324.43a2.23,2.23,0,0,0,2.22-2.22h0a2.21,2.21,0,0,0-.58-1.5L326,600.6a2.21,2.21,0,0,0-1.57-.65" transform="translate(-113.37 -197.17)" style="fill:#e4e6e9"/><path d="M623.43,599.94H486.76a2.23,2.23,0,0,0-2.22,2.22h0a2.23,2.23,0,0,0,2.22,2.22H623.43a2.23,2.23,0,0,0,2.22-2.22h0a2.21,2.21,0,0,0-.58-1.5L625,600.6a2.21,2.21,0,0,0-1.57-.65" transform="translate(-113.37 -197.17)" style="fill:#dce6ea"/><rect x="312.33" y="394.83" width="35.91" height="11.97" style="fill:#7fde95;stroke:#414141;stroke-linecap:round;stroke-linejoin:round;stroke-width:3px"/><rect x="318.32" y="382.85" width="35.91" height="11.97" style="fill:#b2d8f7;stroke:#414141;stroke-linecap:round;stroke-linejoin:round;stroke-width:3px"/><rect x="312.33" y="370.88" width="35.91" height="11.97" style="fill:#fff173;stroke:#414141;stroke-linecap:round;stroke-linejoin:round;stroke-width:3px"/><path d="M460.1,578.53H427.2v-1.28h32.9v1.28Z" transform="translate(-113.37 -197.17)" style="fill:#d3b166"/><rect x="319.81" y="392.05" width="32.9" height="1.28" style="fill:#8fc9ef"/><rect x="313.83" y="404.02" width="32.9" height="1.28" style="fill:#66d87b"/><path d="M646.35,560.65a49.62,49.62,0,0,0-3.07,18c0,14.88,5.36,26.93,12,26.93s12-12.06,12-26.93a49.63,49.63,0,0,0-3.06-18H646.35Z" transform="translate(-113.37 -197.17)" style="fill:#fcdf6d;stroke:#414141;stroke-linecap:round;stroke-miterlimit:10;stroke-width:3px"/><path d="M647.38,562.15a46.46,46.46,0,0,0-1.56,5.7c-0.08.39-.37,1.82-0.61,3.71-0.19,1.46-.28,2.65-0.32,3.37s-0.07,1.46-.1,2.33c0,1.07-.05,1.91,0,3,0,0.61,0,1,.07,1.5,0.14,2.17.36,3.86,0.43,4.4,0.12,0.92.27,2,.56,3.43a46.34,46.34,0,0,0,1.35,5c0.34,1,.71,1.84.71,1.84l0.26,0.57c0.38,0.82.78,1.6,1.19,2.33-0.23-1.4-.58-3.5-1-6-0.37-2.31-.73-4.53-0.87-5.47a63,63,0,0,1-.11-14.48,96.92,96.92,0,0,1,1.51-11.24h-1.51Z" transform="translate(-113.37 -197.17)" style="fill:#d3b166"/><path d="M655.26,560.65a18,18,0,0,1,18-18" transform="translate(-113.37 -197.17)" style="fill:none;stroke:#414141;stroke-linecap:round;stroke-miterlimit:10;stroke-width:3px"/><path d="M655.26,560.65a18,18,0,0,0-18-18" transform="translate(-113.37 -197.17)" style="fill:none;stroke:#414141;stroke-linecap:round;stroke-miterlimit:10;stroke-width:3px"/><line x1="541.89" y1="363.47" x2="541.89" y2="339.53" style="fill:none;stroke:#414141;stroke-linecap:round;stroke-miterlimit:10;stroke-width:3px"/><circle cx="493.22" cy="200.95" r="1.34" style="fill:#a0edee"/><polygon points="241.92 363.79 264.13 363.79 262.84 365.01 243.14 365.01 241.92 363.79" style="fill:#efefef"/><path d="M370.74,566.07a18.48,18.48,0,0,0-8.91,0,5.4,5.4,0,0,0-.52-2.48h9.94A5.44,5.44,0,0,0,370.74,566.07Z" transform="translate(-113.37 -197.17)" style="fill:#efefef"/><path d="M378.35,557.54h-2.47v-1.46h2.21A12.94,12.94,0,0,1,378.35,557.54Z" transform="translate(-113.37 -197.17)" style="fill:#efefef"/><path d="M354.43,556.09h6.34v1.46h-6.6A12.66,12.66,0,0,1,354.43,556.09Z" transform="translate(-113.37 -197.17)" style="fill:#efefef"/><path d="M370.56,604.8a21.64,21.64,0,0,1-8.62,0c-0.21-.07-0.2-0.19-0.12-0.28,1-1.32,7.91-1.34,8.89,0C370.7,604.53,370.88,604.74,370.56,604.8Z" transform="translate(-113.37 -197.17)" style="fill:#efefef;stroke:#414141;stroke-miterlimit:10"/><path d="M376.76,602.5a21.37,21.37,0,0,1-4.65,1.94c-0.27-3-11.44-3-11.7,0a21.42,21.42,0,0,1-4.65-1.94,0.88,0.88,0,0,1-.21-0.48c0-1.11,3.31-2.67,8.65-3l0.39,2.08a0.69,0.69,0,0,0,.69.57h2a0.7,0.7,0,0,0,.69-0.57l0.39-2.08c5.34,0.33,8.65,1.89,8.65,3A0.88,0.88,0,0,1,376.76,602.5Z" transform="translate(-113.37 -197.17)" style="fill:#efefef"/><path d="M385.87,592.54a2.32,2.32,0,0,0-2.2,3.8,21.76,21.76,0,0,1-2.1,2.48,4.53,4.53,0,0,0-2.22-2.38,18.11,18.11,0,0,0,4.45-7.7,5.31,5.31,0,0,0,2.53.8,2.86,2.86,0,0,0,.64-0.07A20.06,20.06,0,0,1,385.87,592.54Z" transform="translate(-113.37 -197.17)" style="fill:#efefef"/><path d="M350.95,598.82a21.44,21.44,0,0,1-2.1-2.48,2.32,2.32,0,0,0-2.2-3.81,21.5,21.5,0,0,1-1.1-3.05,2.83,2.83,0,0,0,.64.07,5.29,5.29,0,0,0,2.54-.81,18.16,18.16,0,0,0,4.45,7.7A4.5,4.5,0,0,0,350.95,598.82Z" transform="translate(-113.37 -197.17)" style="fill:#efefef"/><path d="M380.12,600.16a21.57,21.57,0,0,1-1.82,1.39c-1.26-5.31-22.82-5.33-24.09,0a22.25,22.25,0,0,1-1.82-1.39,1.25,1.25,0,0,1-.17-0.58c0-2.05,5.76-4.34,14-4.34s14,2.28,14,4.34A1.24,1.24,0,0,1,380.12,600.16Z" transform="translate(-113.37 -197.17)" style="fill:url(#0936e318-4d09-498f-88ef-5b10126fcfbc)"/><path d="M377.2,565.28a21.55,21.55,0,0,1,10.54,18.21,0.84,0.84,0,0,1-.3.4c-0.42.24-1.5,0-3.16-1.48a23.67,23.67,0,0,1-3.76-4.51l1.61-1.38a0.7,0.7,0,0,0,.15-0.88l-1-1.7a0.7,0.7,0,0,0-.84-0.31l-2,.7a23.45,23.45,0,0,1-2-5.51c-0.45-2.18-.12-3.23.3-3.48A0.8,0.8,0,0,1,377.2,565.28Z" transform="translate(-113.37 -197.17)" style="fill:#efefef"/><path d="M387.46,587.6a1.24,1.24,0,0,1-.43.45c-1.77,1-6.64-2.82-10.78-10C373,572.5,370.85,565,373,563.74a1,1,0,0,0,.11-0.1h0.6a20.76,20.76,0,0,1,2,.85c-3.67,3.57,5.83,20.94,11.44,20.94a2.16,2.16,0,0,0,.62-0.09A21,21,0,0,1,387.46,587.6Z" transform="translate(-113.37 -197.17)" style="fill:url(#7f75e455-b8b9-4100-8739-80b3a4eb3280)"/><path d="M368.72,588.74h-4.65a2.66,2.66,0,0,0-2.66,2.66v2.74a26,26,0,0,0-6.79,1.64,16.77,16.77,0,0,1-4.54-7.86c5.36-4,10.4-13.16,11.59-19.2,0.08-.42.15-0.82,0.19-1.2a17,17,0,0,1,9.07,0c0,0.38.11,0.78,0.19,1.2,1.2,6.08,6.26,15.18,11.59,19.2a16.78,16.78,0,0,1-4.54,7.86,26,26,0,0,0-6.79-1.64V591.4A2.66,2.66,0,0,0,368.72,588.74Z" transform="translate(-113.37 -197.17)" style="fill:#efefef"/><path d="M355.31,565.28a0.82,0.82,0,0,1,.48.06c1,0.56.65,4.2-1.72,9l-2-.7a0.7,0.7,0,0,0-.84.31l-1,1.7a0.7,0.7,0,0,0,.15.88L352,577.9c-3,4.46-6,6.55-6.92,6a0.91,0.91,0,0,1-.31-0.4A21.56,21.56,0,0,1,355.31,565.28Z" transform="translate(-113.37 -197.17)" style="fill:#efefef"/><path d="M345.11,587.6a22.09,22.09,0,0,1-.28-2.26,2.11,2.11,0,0,0,.63.1c5.4,0,15.23-17.3,11.42-20.95a21.26,21.26,0,0,1,2-.85h0.6a0.75,0.75,0,0,0,.11.1c2,1.13.4,8-3.26,14.32-4.13,7.16-9,11-10.78,10A1.22,1.22,0,0,1,345.11,587.6Z" transform="translate(-113.37 -197.17)" style="fill:url(#ea62ccb5-4f50-4b7a-8abe-ed753e49dcdd)"/><path d="M354.09,559.14h7.37a0.7,0.7,0,0,0,.7-0.7v-2.85a0.7,0.7,0,0,0-.7-0.7h-6.61a12.18,12.18,0,0,1,3.15-4.72h3.47a0.7,0.7,0,1,0,0-1.4h-1.64a12.06,12.06,0,0,1,12.85,0h-1.6a0.7,0.7,0,0,0,0,1.4h3.43a12.15,12.15,0,0,1,3.15,4.72h-2.48a0.7,0.7,0,0,0-.7.7v2.85a0.7,0.7,0,0,0,.7.7h3.25c0,0.21,0,.42,0,0.63H354.12C354.11,559.56,354.09,559.35,354.09,559.14Z" transform="translate(-113.37 -197.17)" style="fill:#efefef"/><circle cx="253.02" cy="354.49" r="2.3" style="fill:url(#fd6cca15-c7af-4b45-8cfe-b7fd166bcd0b)"/><path d="M371.91,556a0.61,0.61,0,1,1,.61-0.61A0.61,0.61,0,0,1,371.91,556Zm0-2.62a2,2,0,1,0,2,2A2,2,0,0,0,371.91,553.38Zm-5.65,18.54a0.94,0.94,0,1,1,.94-0.94A0.94,0.94,0,0,1,366.26,571.92Zm0-3.27a2.34,2.34,0,1,0,2.34,2.34A2.34,2.34,0,0,0,366.26,568.65Zm11.06,20.55a0.94,0.94,0,1,1-.94.94A0.94,0.94,0,0,1,377.31,589.2Zm0,3.27a2.34,2.34,0,1,0-2.34-2.34A2.34,2.34,0,0,0,377.31,592.47ZM366.39,554a2.3,2.3,0,1,1,2.3-2.3A2.31,2.31,0,0,1,366.39,554Zm0-6a3.7,3.7,0,1,0,3.7,3.7A3.7,3.7,0,0,0,366.39,548ZM355.2,591.07a0.94,0.94,0,1,1,.94-0.94A0.94,0.94,0,0,1,355.2,591.07Zm0-3.27a2.34,2.34,0,1,0,2.34,2.34A2.34,2.34,0,0,0,355.2,587.8Zm32.21-.26a1.24,1.24,0,0,1-.43.45c-1.77,1-6.64-2.82-10.78-10-3.21-5.56-5.41-13.09-3.26-14.32a1,1,0,0,0,.11-0.1h0.6a20.76,20.76,0,0,1,2,.85c-3.67,3.57,5.83,20.94,11.44,20.94a2.16,2.16,0,0,0,.62-0.09A21,21,0,0,1,387.41,587.55Zm-1.54,5a2.32,2.32,0,0,0-2.2,3.8,21.76,21.76,0,0,1-2.1,2.48,4.53,4.53,0,0,0-2.22-2.38,18.11,18.11,0,0,0,4.45-7.7,5.31,5.31,0,0,0,2.53.8,2.86,2.86,0,0,0,.64-0.07A20.06,20.06,0,0,1,385.87,592.54Zm-1.34,2.53h0a0.93,0.93,0,0,1,.67-1.15C385,594.31,384.75,594.69,384.52,595.07Zm-4.4,5.09a21.57,21.57,0,0,1-1.82,1.39c-1.26-5.31-22.82-5.33-24.09,0a22.25,22.25,0,0,1-1.82-1.39,1.25,1.25,0,0,1-.17-0.58c0-2.05,5.76-4.34,14-4.34s14,2.28,14,4.34A1.24,1.24,0,0,1,380.12,600.16ZM365.61,599h1.3l-0.25,1.31h-0.81Zm11.15,3.53a21.37,21.37,0,0,1-4.65,1.94c-0.27-3-11.44-3-11.7,0a21.42,21.42,0,0,1-4.65-1.94,0.88,0.88,0,0,1-.21-0.48c0-1.11,3.31-2.67,8.65-3l0.39,2.08a0.69,0.69,0,0,0,.69.57h2a0.7,0.7,0,0,0,.69-0.57l0.39-2.08c5.34,0.33,8.65,1.89,8.65,3A0.88,0.88,0,0,1,376.76,602.5Zm-6.2,2.32a21.64,21.64,0,0,1-8.62,0c-0.21-.07-0.2-0.19-0.12-0.28,1-1.32,7.91-1.34,8.89,0C370.7,604.54,370.88,604.75,370.56,604.82Zm-19.61-6a21.44,21.44,0,0,1-2.1-2.48,2.32,2.32,0,0,0-2.2-3.81,21.5,21.5,0,0,1-1.1-3.05,2.83,2.83,0,0,0,.64.07,5.29,5.29,0,0,0,2.54-.81,18.16,18.16,0,0,0,4.45,7.7A4.5,4.5,0,0,0,350.95,598.82Zm-3-3.76h0c-0.24-.38-0.46-0.76-0.67-1.15h0A0.94,0.94,0,0,1,348,595.06Zm-2.89-7.51a22.09,22.09,0,0,1-.28-2.26,2.11,2.11,0,0,0,.63.1c5.4,0,15.23-17.3,11.42-20.95a21.26,21.26,0,0,1,2-.85h0.6a0.75,0.75,0,0,0,.11.1c2,1.13.4,8-3.26,14.32-4.13,7.16-9,11-10.78,10A1.22,1.22,0,0,1,345.11,587.55Zm8.3-12c-0.11.19-.54,0.94-0.65,1.12l-1-.87,0.4-.7Zm1.91-10.3a0.82,0.82,0,0,1,.48.06c1,0.56.65,4.2-1.72,9l-2-.7a0.7,0.7,0,0,0-.84.31l-1,1.7a0.7,0.7,0,0,0,.15.88L352,577.9c-3,4.46-6,6.55-6.92,6a0.91,0.91,0,0,1-.31-0.4A21.56,21.56,0,0,1,355.31,565.28Zm15.4,0.79a18.48,18.48,0,0,0-8.91,0,5.4,5.4,0,0,0-.52-2.48h9.94A5.44,5.44,0,0,0,370.71,566.07Zm-0.86,25.33V594a43.85,43.85,0,0,0-7.18,0v-2.6a1.27,1.27,0,0,1,1.27-1.27h4.65A1.27,1.27,0,0,1,369.85,591.4Zm-1.26-2.66h-4.65a2.66,2.66,0,0,0-2.66,2.66v2.74a26,26,0,0,0-6.79,1.64,16.77,16.77,0,0,1-4.54-7.86c5.36-4,10.4-13.16,11.59-19.2,0.08-.42.15-0.82,0.19-1.2a17,17,0,0,1,9.07,0c0,0.38.11,0.78,0.19,1.2,1.2,6.08,6.26,15.18,11.59,19.2a16.78,16.78,0,0,1-4.54,7.86,26,26,0,0,0-6.79-1.64V591.4A2.66,2.66,0,0,0,368.59,588.74ZM355.21,561h22.21l-1.29,1.22h-19.7Zm-1.12-2h7.37a0.7,0.7,0,0,0,.7-0.7v-2.85a0.7,0.7,0,0,0-.7-0.7h-6.61A12.18,12.18,0,0,1,358,550h3.47a0.7,0.7,0,1,0,0-1.4h-1.64a12.06,12.06,0,0,1,12.85,0h-1.6a0.7,0.7,0,0,0,0,1.4h3.43a12.15,12.15,0,0,1,3.15,4.72h-2.48a0.7,0.7,0,0,0-.7.7v2.85a0.7,0.7,0,0,0,.7.7h3.25c0,0.21,0,.42,0,0.63H354.12C354.11,559.36,354.09,559.15,354.09,558.94Zm0.33-2.85h6.34v1.46h-6.6A12.66,12.66,0,0,1,354.43,556.09Zm23.92,1.45h-2.47v-1.46h2.21A12.94,12.94,0,0,1,378.35,557.54Zm1.41,19.17-0.65-1.13,1.26-.44,0.4,0.7Zm-2.56-11.43a21.55,21.55,0,0,1,10.54,18.21,0.84,0.84,0,0,1-.3.4c-0.42.24-1.5,0-3.16-1.48a23.67,23.67,0,0,1-3.76-4.51l1.61-1.38a0.7,0.7,0,0,0,.15-0.88l-1-1.7a0.7,0.7,0,0,0-.84-0.31l-2,.7a23.45,23.45,0,0,1-2-5.51c-0.45-2.18-.12-3.23.3-3.48A0.8,0.8,0,0,1,377.2,565.28Zm-0.4-1.82,2.71-2.54a0.7,0.7,0,0,0,.2-0.48c0.92-3.89-1.71-13-10.8-14.85V538.2a0.7,0.7,0,1,0-1.4,0v7.19a11.86,11.86,0,0,0-2.53,0v-2.61a0.7,0.7,0,1,0-1.4,0v2.81a13.58,13.58,0,0,0-10.83,14.69,0.7,0.7,0,0,0,.27.48h0l2.71,2.68a22.88,22.88,0,1,0,21.75,40.24l0.06,0A22.87,22.87,0,0,0,376.8,563.46Z" transform="translate(-113.37 -197.17)" style="fill:#414141;stroke:#414141;stroke-miterlimit:10"/><path d="M139.78,527" transform="translate(-113.37 -197.17)" style="fill:#414141"/><g style="clip-path:url(#7dfa20bc-b9fd-474c-a9b2-69ac7a647b87)"><path d="M492.66,316.81h-200a15.11,15.11,0,0,0,0-30.18h200A15.1,15.1,0,1,0,492.66,316.81Z" transform="translate(-113.37 -197.17)" style="fill:#cccc9e"/><path d="M513.57,349.53H295.72c-10.4.41-18.59-8.33-17.95-17.62,0.59-8.51,8.47-15.69,17.95-15.25H513.57c9.54-.56,17.58,6.91,17.88,15.87C531.76,341.88,523.55,350.09,513.57,349.53Z" transform="translate(-113.37 -197.17)" style="fill:#cccc9e"/><path d="M497.32,372.1H359.18c5.72-.45,10.07-5.77,9.85-11.75-0.21-5.66-4.45-10.43-9.85-10.85H497.32c-5.77-.08-10.54,4.9-10.72,10.93C486.42,366.73,491.29,372.18,497.32,372.1Z" transform="translate(-113.37 -197.17)" style="fill:#cccc9e"/><path d="M495.22,393.63H352.47c-6.81.27-12.18-5.46-11.76-11.54a11.18,11.18,0,0,1,11.76-10H495.22A10.81,10.81,0,1,1,495.22,393.63Z" transform="translate(-113.37 -197.17)" style="fill:#cccc9e"/><path d="M489.33,286.83H296.14c-9.22.37-16.49-7.38-15.91-15.62,0.52-7.55,7.51-13.92,15.91-13.53H489.33a15,15,0,0,1,15.86,14.07C505.46,280,498.18,287.33,489.33,286.83Z" transform="translate(-113.37 -197.17)" style="fill:#cccc9e"/><path d="M494.85,313.12h-200a15.11,15.11,0,0,0,0-30.18h200A15.1,15.1,0,1,0,494.85,313.12Z" transform="translate(-113.37 -197.17)" style="fill:#faffc5"/><path d="M515.76,345.83H297.91c-10.4.41-18.59-8.33-17.95-17.62,0.59-8.51,8.47-15.69,17.95-15.25H515.76c9.54-.56,17.58,6.91,17.88,15.87C534,338.18,525.74,346.39,515.76,345.83Z" transform="translate(-113.37 -197.17)" style="fill:#faffc5"/><path d="M499.51,368.41H361.37c5.72-.45,10.07-5.77,9.85-11.75-0.21-5.66-4.45-10.43-9.85-10.85H499.51c-5.77-.08-10.54,4.9-10.72,10.93C488.61,363,493.48,368.48,499.51,368.41Z" transform="translate(-113.37 -197.17)" style="fill:#faffc5"/><path d="M497.41,389.93H354.66c-6.81.27-12.18-5.46-11.76-11.54a11.18,11.18,0,0,1,11.76-10H497.41A10.81,10.81,0,1,1,497.41,389.93Z" transform="translate(-113.37 -197.17)" style="fill:#faffc5"/><path d="M491.52,283.13H298.33c-9.22.37-16.49-7.38-15.91-15.62,0.52-7.55,7.51-13.92,15.91-13.53H491.52a15,15,0,0,1,15.86,14.07C507.66,276.35,500.37,283.63,491.52,283.13Z" transform="translate(-113.37 -197.17)" style="fill:#faffc5"/></g><rect x="313.87" y="320.63" width="1.33" height="8.5" transform="translate(-234 250.65) rotate(-61.7)" style="fill:#f2f2f2;stroke:#414141;stroke-linejoin:round"/><rect x="322.38" y="325.21" width="1.33" height="8.5" transform="translate(-233.55 260.55) rotate(-61.7)" style="fill:#f2f2f2;stroke:#414141;stroke-linejoin:round"/><path d="M333,322.31l1.54-2.86,2.86,1.54A3.89,3.89,0,0,1,333,322.31Z" transform="translate(-113.37 -197.17)" style="fill:#f2f2f2;stroke:#414141;stroke-linejoin:round"/><path d="M315.05,312.66a3.89,3.89,0,0,1-1.32-4.4l2.86,1.54Z" transform="translate(-113.37 -197.17)" style="fill:#ddd;stroke:#414141;stroke-linejoin:round"/><path d="M351.77,293.37a0.57,0.57,0,0,1,.24.79l-4.15,7.7a14.25,14.25,0,0,0-1.29-4.29,12,12,0,0,0,4.86-4.29h0l0.3,0.16Z" transform="translate(-113.37 -197.17)" style="fill:#efefef"/><path d="M328.13,281.18a0.57,0.57,0,0,1,.79-0.24l0.37,0.2a11.32,11.32,0,0,0-.9,6.42,14.33,14.33,0,0,0-4.29,1.29l4.11-7.63Z" transform="translate(-113.37 -197.17)" style="fill:#efefef"/><path d="M320.17,325.83a4.39,4.39,0,0,1,5.6-1.44,4.32,4.32,0,0,1,1.88,5.46Z" transform="translate(-113.37 -197.17)" style="fill:#f2f2f2;stroke:#414141;stroke-linejoin:round"/><path d="M311.66,321.23a4.39,4.39,0,0,1,5.6-1.44,4.32,4.32,0,0,1,1.88,5.46Z" transform="translate(-113.37 -197.17)" style="fill:#f2f2f2;stroke:#414141;stroke-linejoin:round"/><path d="M328.13,281.18a0.57,0.57,0,0,1,.79-0.24l0.37,0.2a11.32,11.32,0,0,0-.9,6.42,14.33,14.33,0,0,0-4.29,1.29l4.11-7.63Z" transform="translate(-113.37 -197.17)" style="fill:#dd9d57"/><path d="M351.77,293.37a0.57,0.57,0,0,1,.24.79l-4.15,7.7a14.25,14.25,0,0,0-1.29-4.29,12,12,0,0,0,4.86-4.29h0l0.3,0.16Z" transform="translate(-113.37 -197.17)" style="fill:#ffc578"/><path d="M338.81,320.74l-3.89-2.09,4.66-8.66-1-.51-9.76,18.12a5.25,5.25,0,0,0-2.71-3.92,5.49,5.49,0,0,0-4.88-.07l3.87-7.19-0.88-.47-3.87,7.19a5.49,5.49,0,0,0-2.75-4,5.24,5.24,0,0,0-4.77-.11l9.76-18.12-1-.51L317,309l-3.89-2.09,6.68-12.4a11.21,11.21,0,0,1,8.6-5.59,12.39,12.39,0,0,0,6.28,8.21l0.29,0.16,0.29,0.16a12.67,12.67,0,0,0,10.31.72,11.21,11.21,0,0,1,.06,10.26L339,320.82Z" transform="translate(-113.37 -197.17)" style="fill:#fff383"/><path d="M317.68,319.1a5.58,5.58,0,0,0-1.7-.57,5.37,5.37,0,0,0-3.07.47l9.76-18.12-1-.51L317.05,309l-3.89-2.09,6.68-12.4a11.21,11.21,0,0,1,8.6-5.59,10.69,10.69,0,0,0,2,4.46,12.1,12.1,0,0,0,2.74,2.5S321.16,320.59,317.68,319.1Z" transform="translate(-113.37 -197.17)" style="fill:#dbc961"/><rect x="325.47" y="301.79" width="9.75" height="7.84" transform="translate(-208.8 254.48) rotate(-61.7)" style="fill:#ffc578"/><path d="M345.68,276.36l0.29,0.16,0.29,0.16a10.92,10.92,0,1,1-10.35,19.23l-0.29-.16-0.29-.16A10.92,10.92,0,1,1,345.68,276.36Z" transform="translate(-113.37 -197.17)" style="fill:#f2f2f2;stroke:#414141;stroke-linejoin:round"/><path d="M335.9,295.17h0l0.29,0.16,0.29,0.16a10.33,10.33,0,0,0,14-4.31,6.86,6.86,0,0,0,1-4.55,1.07,1.07,0,0,1,0-.3l0-.11c-0.3-1-1.6-3.7-6.52-6.35l-0.22-.12-0.07,0-0.07,0-0.22-.12c-4.91-2.65-7.87-2.25-8.89-1.95l-0.12,0a0.46,0.46,0,0,0-.27.14,7,7,0,0,0-3.23,3.37A10.34,10.34,0,0,0,335.9,295.17Z" transform="translate(-113.37 -197.17)" style="fill:#a4f9ff"/><path d="M334,294.1c2.9-.25,5.16-15,2.45-16.13a1.59,1.59,0,0,0-1.31.19l-0.12,0a0.46,0.46,0,0,0-.27.14,7,7,0,0,0-3.23,3.37,9.94,9.94,0,0,0-1.24,4.37C330.16,289.93,332.42,294.24,334,294.1Z" transform="translate(-113.37 -197.17)" style="fill:#9aebed"/><path d="M338.94,320.51l-3.89-2.09,4.66-8.66-1-.51L329,327.37a5.25,5.25,0,0,0-2.71-3.92,5.49,5.49,0,0,0-4.88-.07l3.87-7.19-0.88-.47-3.87,7.19a5.49,5.49,0,0,0-2.75-4,5.24,5.24,0,0,0-4.77-.11l9.76-18.12-1-.51-4.66,8.66-3.89-2.09,6.68-12.4a11.21,11.21,0,0,1,8.6-5.59,12.39,12.39,0,0,0,6.28,8.21l0.29,0.16,0.29,0.16a12.67,12.67,0,0,0,10.31.72,11.21,11.21,0,0,1,.06,10.26l-6.68,12.4Zm-6,1.8,1.54-2.86,2.86,1.54A3.89,3.89,0,0,1,333,322.31Zm-12.79,3.53a4.39,4.39,0,0,1,5.6-1.44,4.32,4.32,0,0,1,1.88,5.46Zm6.3,6.23L319,328l0.63-1.17,7.48,4Zm-14.81-10.81a4.39,4.39,0,0,1,5.6-1.44,4.32,4.32,0,0,1,1.88,5.46Zm6.3,6.23-7.48-4,0.63-1.17,7.48,4Zm-2.91-14.82a3.89,3.89,0,0,1-1.32-4.4l2.86,1.54Zm13.07-31.48a0.57,0.57,0,0,1,.79-0.24l0.37,0.2a11.32,11.32,0,0,0-.9,6.42,14.33,14.33,0,0,0-4.29,1.29l4.11-7.63Zm17.47-4.5,0.29,0.16,0.29,0.16a10.92,10.92,0,1,1-10.35,19.23l-0.29-.16-0.29-.16A10.92,10.92,0,1,1,345.6,276.68Zm6.17,16.67a0.57,0.57,0,0,1,.24.79l-4.15,7.7a14.25,14.25,0,0,0-1.29-4.29,12,12,0,0,0,4.86-4.29h0l0.3,0.16ZM347.9,304l5.1-9.47a1.67,1.67,0,0,0-.68-2.26l-0.37-.2-0.16.29A12.13,12.13,0,0,0,346.63,276l-0.29-.16-0.29-.16a12.19,12.19,0,0,0-16.55,4.72l0.16-.29-0.37-.2a1.67,1.67,0,0,0-2.26.68l-5.1,9.47a10.9,10.9,0,0,0-3.09,3.64L311.65,307l1,0.55a4.88,4.88,0,0,0,1.76,5.87l-5.57,10.35L327,333.57l5.57-10.35a5,5,0,0,0,5.87-1.76l1,0.55,7.19-13.36A11,11,0,0,0,347.9,304Zm-16.42,7.82-6.9-3.71,4.62-8.58,6.9,3.71Zm-2.55-13.2-5.25,9.76,8.07,4.34L337,303Zm6.17-20.25,0.23-.07,0.11,0c0.75-.16,3.56-0.64,8.4,2l0.22,0.12,0.07,0,0.07,0,0.22,0.12c4.84,2.61,6,5.21,6.27,5.93l0,0.11,0.07,0.23a6.27,6.27,0,0,1-.91,4.15,9.73,9.73,0,0,1-13.06,4l-0.29-.16-0.29-.16a9.62,9.62,0,0,1-3.81-13.13C333.29,279.32,334.5,278.65,335.11,278.41Zm0.54,16.76h0l0.29,0.16,0.29,0.16a10.33,10.33,0,0,0,14-4.31,6.86,6.86,0,0,0,1-4.55,1.07,1.07,0,0,1,0-.3l0-.11c-0.3-1-1.6-3.7-6.52-6.35l-0.22-.12-0.07,0-0.07,0-0.22-.12c-4.91-2.65-7.87-2.25-8.89-1.95l-0.12,0a0.46,0.46,0,0,0-.27.14,7,7,0,0,0-3.23,3.37A10.34,10.34,0,0,0,335.65,295.17Z" transform="translate(-113.37 -197.17)" style="fill:#414141;stroke:#414141;stroke-linejoin:round"/><circle cx="329.18" cy="308.26" r="0.92" transform="translate(-211.66 254.8) rotate(-61.7)" style="fill:#414141"/><polygon points="217.02 108.83 219 109.9 218.68 110.49 214.72 108.35 215.04 107.77 217.02 108.83" style="fill:#414141"/><polygon points="217.81 107.36 219.79 108.43 219.47 109.02 215.51 106.89 215.83 106.3 217.81 107.36" style="fill:#414141"/><polygon points="218.64 105.82 220.62 106.89 220.3 107.48 216.34 105.34 216.66 104.76 218.64 105.82" style="fill:#414141"/><path d="M507.42,361c0,1.71-4.15,3.52-11.85,3.65v-7.27C503.27,357.48,507.42,359.27,507.42,361Z" transform="translate(-113.37 -197.17)" style="fill:#f9f9f9"/><path d="M507.42,361c0.3,0.54-1.31,1.92-1.59,2.16-3.84,3.3-9.52,1.7-10.26,1.48C500.63,362.47,506.88,360,507.42,361Z" transform="translate(-113.37 -197.17)" style="fill:#efefef"/><path d="M486.23,372.08l-2.14,1.67c-6,4.71-6,4.71-11.35,4.72h-21.1l1-.93a33.5,33.5,0,0,1,7.29-5.46l26.27,0h0Z" transform="translate(-113.37 -197.17)" style="fill:#50a1d1"/><path d="M486.23,372.09l-2.14.75c-6,2.1-6,2.1-11.35,2.11h-21.1l1-.42a44.89,44.89,0,0,1,7.29-2.43l26.27,0h0Z" transform="translate(-113.37 -197.17)" style="fill:#3f82b2"/><path d="M493.81,351.67v18.65l-29.31,0a31.39,31.39,0,0,1,8.24-1h1.31c5.64,0,11.62-2.92,11.62-8.33s-6-8.31-11.63-8.31h-1.3a31,31,0,0,1-8.23-1Z" transform="translate(-113.37 -197.17)" style="fill:#f9f9f9"/><path d="M493.82,370.31l-29.39,0a31.21,31.21,0,0,1,8.32-1h1.31a24.59,24.59,0,0,0,7.92-2.14,10.1,10.1,0,0,0,1.6-1.27s0.32-.32.58-0.65a10.46,10.46,0,0,0,1.52-4.25,13,13,0,0,1,2.85.75C492,364,493.32,368.13,493.82,370.31Z" transform="translate(-113.37 -197.17)" style="fill:#efefef"/><path d="M437.17,372.22h2.63v6.51C439,376.89,438,374.53,437.17,372.22Z" transform="translate(-113.37 -197.17)" style="fill:#f2f2f2"/><path d="M435.77,377.33v-3.78c0.46,1.3,1,2.59,1.49,3.78h-1.49Z" transform="translate(-113.37 -197.17)" style="fill:#f2f2f2"/><path d="M429.55,370.15l1.92,0.54v0.67a0.87,0.87,0,0,0,.36.71,0.86,0.86,0,0,0,.79.12l1.39-.45v3.87l-4.46,1.25v-6.7h0Z" transform="translate(-113.37 -197.17)" style="fill:#ffc111"/><polygon points="319.86 171.94 320.64 171.72 320.64 172.72 319.86 172.97 319.86 171.94" style="fill:#f2f2f2"/><path d="M435.77,364.09h4.52a3.19,3.19,0,0,1,0,6.38h-4.52v-6.38Z" transform="translate(-113.37 -197.17)" style="fill:#f2f2f2"/><polygon points="318.54 167.19 320.64 167.78 320.64 169.9 318.54 170.49 318.54 167.19" style="fill:#ffc111"/><path d="M431,361.07a94.74,94.74,0,0,1,11.24-1.28,1.27,1.27,0,1,1,0,2.54A94.74,94.74,0,0,1,431,361.07Z" transform="translate(-113.37 -197.17)" style="fill:#f2f2f2"/><path d="M435.76,358v-6.37h4.52a3.19,3.19,0,0,1,0,6.38h-4.52Z" transform="translate(-113.37 -197.17)" style="fill:#f2f2f2"/><polygon points="318.53 157.3 320.63 157.88 320.64 160 318.53 160.58 318.53 157.3" style="fill:#ffc111"/><polygon points="319.85 155.84 319.85 154.81 320.63 155.07 320.63 156.06 319.85 155.84" style="fill:#f2f2f2"/><path d="M429.54,345.28l4.46,1.24v3.87l-1.39-.45a0.87,0.87,0,0,0-1.15.83v0.67l-1.92.54v-6.7h0Z" transform="translate(-113.37 -197.17)" style="fill:#ffc111"/><path d="M437.24,344.79c-0.5,1.19-1,2.48-1.49,3.78v-3.78h1.49Z" transform="translate(-113.37 -197.17)" style="fill:#f2f2f2"/><path d="M482.48,364.5a6.49,6.49,0,0,1,0-7A5,5,0,0,1,482.48,364.5Z" transform="translate(-113.37 -197.17)" style="fill:#f06364"/><path d="M482.34,364.69a10,10,0,0,1-1-1.26c-0.66-1-1-1.52-.84-2,0.32-.82,2.08-0.75,2.29-0.74a3,3,0,0,1,1.81.58,1.87,1.87,0,0,1,.78,1.07C485.47,363.18,484.28,364.22,482.34,364.69Z" transform="translate(-113.37 -197.17)" style="fill:#db5e64"/><path d="M439.78,343.39v6.51h-2.63C437.94,347.59,438.94,345.24,439.78,343.39Z" transform="translate(-113.37 -197.17)" style="fill:#f2f2f2"/><path d="M445.1,361.9h3.67V364a0.88,0.88,0,0,0,1.76,0V361.9h4.19V364a0.88,0.88,0,0,0,1.76,0v-2.12h4.19V364a0.88,0.88,0,0,0,1.76,0v-2.12h4.19V364a0.88,0.88,0,0,0,1.76,0v-6a0.88,0.88,0,0,0-1.76,0v2.12h-4.19V358a0.88,0.88,0,0,0-1.76,0v2.12h-4.19V358a0.88,0.88,0,0,0-1.76,0v2.12h-4.19V358a0.88,0.88,0,0,0-1.76,0v2.12h-3.67a3,3,0,0,0-1.42-1.75,4.92,4.92,0,0,0,1.55-3.59,3.08,3.08,0,0,0,0-.35l28.86,0a13.65,13.65,0,0,1,7.06,1.93,8.28,8.28,0,0,0,0,9.24,13.64,13.64,0,0,1-7,1.94l-28.85,0a3.09,3.09,0,0,0,0-.35,4.92,4.92,0,0,0-1.56-3.58A3,3,0,0,0,445.1,361.9Z" transform="translate(-113.37 -197.17)" style="fill:#56acdf"/><path d="M445.1,361.88h3.67V364a0.88,0.88,0,0,0,1.76,0v-2.12h4.19V364a0.88,0.88,0,0,0,1.76,0v-2.12h4.19V364a0.88,0.88,0,0,0,1.76,0v-2.12h4.19V364a0.88,0.88,0,0,0,1.76,0,10,10,0,0,1,0-3H479.7a25,25,0,0,1,1.41,4.62,13.64,13.64,0,0,1-7,1.94l-28.85,0a3.1,3.1,0,0,0,0-.35,4.92,4.92,0,0,0-1.56-3.58A3,3,0,0,0,445.1,361.88Z" transform="translate(-113.37 -197.17)" style="fill:#3f82b2"/><path d="M478.18,361a5.28,5.28,0,0,0-2.94-4.73,0.88,0.88,0,1,0-.79,1.57,3.52,3.52,0,0,1,0,6.32,0.87,0.87,0,0,0-.49.79,0.89,0.89,0,0,0,.09.39,0.88,0.88,0,0,0,1.18.4A5.25,5.25,0,0,0,478.18,361ZM441.57,381.7v-2.18h1.31a0.88,0.88,0,1,0,0-1.76h-1.31v-2.51h1.31a0.88,0.88,0,1,0,0-1.76h-1.31V372a5,5,0,0,0,3.19-2.66H461.9c-4.74,1.75-7.77,4.52-10.41,6.92C448.49,379,445.86,381.41,441.57,381.7Zm-4.39-9.49h2.63v6.51C439,376.87,438,374.51,437.18,372.21Zm-1.39,5.11v-3.78c0.46,1.3,1,2.59,1.49,3.78h-1.49Zm-6.22-7.19,1.92,0.54v0.67a0.87,0.87,0,0,0,.36.71,0.86,0.86,0,0,0,.79.12l1.39-.45v3.87l-4.46,1.25v-6.7h0Zm3.67-1,0.79-.22v1l-0.79.26v-1Zm2.54-5h4.52a3.19,3.19,0,0,1,0,6.38h-4.52v-6.38Zm-3.86.28,2.1,0.59v2.12l-2.1.59v-3.3Zm13.18-2.43h3.67V364a0.88,0.88,0,0,0,1.76,0v-2.12h4.19V364a0.88,0.88,0,0,0,1.76,0v-2.12h4.19V364a0.88,0.88,0,0,0,1.76,0v-2.12h4.19V364a0.88,0.88,0,0,0,1.76,0v-6a0.88,0.88,0,0,0-1.76,0v2.12h-4.19V358a0.88,0.88,0,0,0-1.76,0v2.12h-4.19V358a0.88,0.88,0,0,0-1.76,0v2.12h-4.19V358a0.88,0.88,0,0,0-1.76,0v2.12h-3.67a3,3,0,0,0-1.42-1.75,4.92,4.92,0,0,0,1.55-3.59,3.08,3.08,0,0,0,0-.35l28.86,0a13.65,13.65,0,0,1,7.06,1.93,8.28,8.28,0,0,0,0,9.24,13.64,13.64,0,0,1-7,1.94l-28.85,0a3.09,3.09,0,0,0,0-.35,4.92,4.92,0,0,0-1.56-3.58A3,3,0,0,0,445.1,361.92ZM431,361.05a94.74,94.74,0,0,1,11.24-1.28,1.27,1.27,0,1,1,0,2.54A94.74,94.74,0,0,1,431,361.05Zm4.81-3v-6.37h4.52a3.19,3.19,0,0,1,0,6.38h-4.52Zm-3.86-3.57L434,355v2.12l-2.1.59v-3.29Zm1.32-1.46v-1l0.79,0.26v1Zm-3.68-7.73,4.46,1.24v3.87l-1.39-.45a0.87,0.87,0,0,0-1.15.83v0.67l-1.92.54v-6.7h0Zm7.7-.49c-0.5,1.19-1,2.48-1.49,3.78v-3.78h1.49Zm2.54-1.4v6.51h-2.63C438,347.58,439,345.22,439.79,343.38Zm3.06-.81h-1.31v-2.17c4.29,0.28,6.92,2.67,9.93,5.41,2.64,2.4,5.67,5.16,10.41,6.91H444.74a5,5,0,0,0-3.2-2.66v-1.48h1.31a0.88,0.88,0,1,0,0-1.76h-1.31v-2.51h1.31a0.88,0.88,0,0,0,.88-0.88A0.87,0.87,0,0,0,442.85,342.56Zm29.88,1c5.35,0,5.35,0,11.36,4.69l2.16,1.68-26.3,0a33.65,33.65,0,0,1-7.3-5.45l-1-.93h21.11Zm9.75,21a6.49,6.49,0,0,1,0-7A5,5,0,0,1,482.48,364.52Zm11.33-12.83v18.65l-29.31,0a31.39,31.39,0,0,1,8.24-1h1.31c5.64,0,11.62-2.92,11.62-8.33s-6-8.31-11.63-8.31h-1.3a31,31,0,0,1-8.23-1Zm13,6c-2.59-1.43-6.92-2-11.21-2.11v-3.9C500.4,351.91,505.1,353.81,506.77,357.72Zm0.65,3.28c0,1.71-4.15,3.52-11.85,3.65v-7.27C503.27,357.5,507.42,359.3,507.42,361Zm-11.85,9.31v-3.9c4.28-.08,8.61-0.7,11.21-2.12C505.1,368.19,500.41,370.1,495.58,370.31Zm-9.34,1.79-2.14,1.67c-6,4.71-6,4.71-11.35,4.72h-21.1l1-.93a33.5,33.5,0,0,1,7.29-5.46l26.27,0h0Zm-13.48,8.14c5.84,0,6.07-.1,12.44-5.09,1.09-.85,2.38-1.87,3.92-3.06h5.59c8.67,0,14.49-4.46,14.48-11.09s-5.83-11.08-14.5-11.07h-5.57c-1.55-1.19-2.86-2.21-4-3.06-6.37-5-6.6-5.07-12.44-5.07l-23.19,0a13.74,13.74,0,0,0-8.87-3.21,0.87,0.87,0,0,0-.77.48h0c-0.09.17-.89,1.74-1.87,3.93h-3.13a0.88,0.88,0,0,0-.88.88v0.79l-5.1-1.42a0.88,0.88,0,0,0-1.11.85v9a0.88,0.88,0,0,0,.88.88,0.84,0.84,0,0,0,.42-0.11l1.05-.29v5.29a0.85,0.85,0,0,0,.18.51c-1.44.41-2.41,0.94-2.41,1.61s1,1.2,2.44,1.61a0.85,0.85,0,0,0-.21.53v5.27l-1.24-.35a0.88,0.88,0,0,0-1.11.85v9a0.88,0.88,0,0,0,1.12.85l5.1-1.43v0.79a0.88,0.88,0,0,0,.88.88H438c1,2.19,1.78,3.76,1.88,3.93h0a0.87,0.87,0,0,0,.76.47,13.76,13.76,0,0,0,8.87-3.22h23.19Z" transform="translate(-113.37 -197.17)" style="fill:#414141"/><path d="M441.57,381.68V379.5h1.31a0.88,0.88,0,1,0,0-1.76h-1.31v-2.51h1.31a0.88,0.88,0,1,0,0-1.76h-1.31V372a5,5,0,0,0,3.19-2.66H461.9c-4.74,1.75-7.77,4.52-10.41,6.92C448.48,379,445.86,381.38,441.57,381.68Z" transform="translate(-113.37 -197.17)" style="fill:#f9f9f9"/><path d="M442.85,342.54h-1.31v-2.17c4.29,0.28,6.92,2.67,9.93,5.41,2.64,2.4,5.67,5.16,10.41,6.91H444.74a5,5,0,0,0-3.2-2.66v-1.48h1.31a0.88,0.88,0,1,0,0-1.76h-1.31V344.3h1.31a0.88,0.88,0,0,0,.88-0.88A0.87,0.87,0,0,0,442.85,342.54Z" transform="translate(-113.37 -197.17)" style="fill:#f9f9f9"/><path d="M472.73,343.54c5.35,0,5.35,0,11.36,4.69l2.16,1.68-26.3,0a33.65,33.65,0,0,1-7.3-5.45l-1-.93h21.11Z" transform="translate(-113.37 -197.17)" style="fill:#50a1d1"/><path d="M506.77,357.7c-2.59-1.43-6.92-2-11.21-2.11v-3.9C500.4,351.89,505.1,353.79,506.77,357.7Z" transform="translate(-113.37 -197.17)" style="fill:#f9f9f9"/><path d="M495.57,370.29v-3.9c4.28-.08,8.61-0.7,11.21-2.12C505.1,368.17,500.41,370.08,495.57,370.29Z" transform="translate(-113.37 -197.17)" style="fill:#efefef"/><circle cx="415.94" cy="71.27" r="14.49" style="fill:#fffc99"/><circle cx="209.26" cy="182.07" r="10.74" style="fill:#fcf9e8"/><circle cx="200.46" cy="176.47" r="10.74" style="fill:#525e71"/><rect x="247.91" y="189.51" width="3.06" height="3.06" style="fill:#d4ebeb"/><rect x="248.93" y="143.61" width="6.12" height="2.04" style="fill:#f6efe4"/><rect x="249.95" y="134.43" width="5.1" height="3.06" style="fill:#f6efe4"/><rect x="250.97" y="124.23" width="3.06" height="3.06" style="fill:#f6efe4"/><rect x="251.99" y="120.15" width="1.02" height="2.04" style="fill:#f6efe4"/><rect x="249.95" y="129.33" width="5.1" height="3.06" style="fill:#f6efe4"/><rect x="248.93" y="139.53" width="6.12" height="2.04" style="fill:#f6efe4"/><rect x="271.36" y="143.61" width="6.12" height="2.04" style="fill:#f6efe4"/><rect x="271.36" y="134.43" width="5.1" height="3.06" style="fill:#f6efe4"/><rect x="272.38" y="124.23" width="3.06" height="3.06" style="fill:#f6efe4"/><rect x="273.4" y="120.15" width="1.02" height="2.04" style="fill:#f6efe4"/><rect x="271.36" y="129.33" width="5.1" height="3.06" style="fill:#f6efe4"/><rect x="271.36" y="139.53" width="6.12" height="2.04" style="fill:#f6efe4"/><rect x="275.44" y="189.51" width="3.06" height="3.06" style="fill:#d4ebeb"/><path d="M391.87,351v4.19H388.2a1,1,0,0,0-.81-0.41h-3.68V351h8.16Z" transform="translate(-113.37 -197.17)" style="fill:#d4ebeb"/><rect x="270.34" y="147.69" width="8.16" height="4.08" style="fill:#f6efe4"/><path d="M391.87,361.18h-3.06v-1a1.23,1.23,0,0,0-1-1v-2h4.08v4.08Z" transform="translate(-113.37 -197.17)" style="fill:#f6efe4"/><rect x="275.44" y="166.05" width="3.06" height="3.06" style="fill:#f6efe4"/><rect x="275.44" y="171.15" width="3.06" height="4.08" style="fill:#d4ebeb"/><rect x="275.44" y="177.27" width="3.06" height="4.08" style="fill:#f6efe4"/><rect x="270.34" y="190.53" width="3.06" height="2.04" style="fill:#d4ebeb"/><rect x="271.25" y="159.69" width="1.14" height="1.83" style="fill:#f6efe4"/><rect x="270.41" y="182.92" width="2.82" height="1.79" style="fill:#b4ab8e"/><rect x="270.41" y="179.04" width="2.82" height="1.79" style="fill:#f6efe4"/><rect x="270.41" y="175.17" width="2.82" height="1.78" style="fill:#f6efe4"/><rect x="270.41" y="171.29" width="2.82" height="1.79" style="fill:#f6efe4"/><rect x="270.41" y="167.41" width="2.82" height="1.79" style="fill:#f6efe4"/><rect x="270.41" y="163.6" width="2.82" height="1.72" style="fill:#f6efe4"/><rect x="270.41" y="186.79" width="2.82" height="1.78" style="fill:#d4ebeb"/><rect x="275.44" y="183.39" width="3.06" height="4.08" style="fill:#f6efe4"/><rect x="253.01" y="190.53" width="3.06" height="2.04" style="fill:#d4ebeb"/><rect x="247.91" y="183.39" width="3.06" height="4.08" style="fill:#f6efe4"/><rect x="247.91" y="177.27" width="3.06" height="4.08" style="fill:#f6efe4"/><rect x="247.91" y="171.15" width="3.06" height="4.08" style="fill:#d4ebeb"/><rect x="247.91" y="166.05" width="3.06" height="3.06" style="fill:#f6efe4"/><path d="M361.27,357.1h4.08v2a1.24,1.24,0,0,0-1,1v1h-3.06V357.1Z" transform="translate(-113.37 -197.17)" style="fill:#f6efe4"/><path d="M361.27,351h8.16l-0.05,3.78h-3a1,1,0,0,0-.81.4l-4.27-.11V351Z" transform="translate(-113.37 -197.17)" style="fill:#d4ebeb"/><rect x="247.91" y="147.69" width="8.16" height="4.08" style="fill:#f6efe4"/><rect x="253.19" y="167.41" width="2.82" height="1.79" style="fill:#f6efe4"/><rect x="253.19" y="171.29" width="2.82" height="1.79" style="fill:#f6efe4"/><rect x="253.19" y="175.17" width="2.82" height="1.78" style="fill:#f6efe4"/><rect x="253.19" y="179.03" width="2.82" height="1.79" style="fill:#f6efe4"/><rect x="253.19" y="182.92" width="2.82" height="1.79" style="fill:#b4ab8e"/><rect x="254.03" y="159.69" width="1.14" height="1.83" style="fill:#f6efe4"/><rect x="253.19" y="163.6" width="2.82" height="1.72" style="fill:#f6efe4"/><rect x="253.19" y="186.79" width="2.82" height="1.78" style="fill:#d4ebeb"/><path d="M361.11,386.58h4.77q-0.08-17.94,0-36.12,0.07-17.77.27-35.31c-1.15-.42-2.06-0.4-2.29,0a0.63,0.63,0,0,0,0,.54,123.89,123.89,0,0,1-.86,15.76c-0.5,4.23-1.08,7.28-1.22,8.05C360.66,345.54,359.89,358.15,361.11,386.58Z" transform="translate(-113.37 -197.17)" style="opacity:0.2"/><path d="M382.41,386.58h4.77q-0.08-17.94,0-36.12,0.07-17.77.27-35.31c-1.15-.42-2.06-0.4-2.29,0a0.63,0.63,0,0,0,0,.54,123.89,123.89,0,0,1-.86,15.76c-0.5,4.23-1.08,7.28-1.22,8.05C382,345.54,381.19,358.15,382.41,386.58Z" transform="translate(-113.37 -197.17)" style="opacity:0.2"/><path d="M361.27,386.67h3.06m-2-45.9h6.12v2h-6.12v-2Zm1-9.18h5.1v3.06h-5.1v-3.06Zm1-10.2h3.06v3.06h-3.06V321.4Zm1-4.08h1v2h-1v-2Zm3.06,9.18v3.06h-5.1V326.5h5.1Zm0,12.24h-6.12v-2h6.12v2Zm16.32,2h6.12v2h-6.12v-2Zm0-9.18h5.1v3.06h-5.1v-3.06Zm1-10.2h3.06v3.06h-3.06V321.4Zm1-4.08h1v2h-1v-2Zm3.06,9.18v3.06h-5.1V326.5h5.1Zm1,12.24h-6.12v-2h6.12v2Zm1,12.24v4.19h-3.69a1,1,0,0,0-.81-0.41h-3.68V351h8.16Zm0-2h-8.16v-4.08h8.16v4.08Zm0,12.24h-3.06v-1a1.23,1.23,0,0,0-1-1v-2h4.08v4.08Zm0,5.1h-3.06v-3.06h3.06v3.06Zm0,6.12h-3.06v-4.08h3.06v4.08Zm0,6.12h-3.06v-4.08h3.06v4.08Zm-6.11-19.84h-1.14v-1.83h1.14v1.83Zm0.84,23.19h-2.82v-1.79h2.82v1.79Zm-2.82-5.66h2.82V378h-2.82V376.2Zm0-3.87h2.82v1.78h-2.82v-1.78Zm0-3.88h2.82v1.79h-2.82v-1.79Zm0-3.88h2.82v1.79h-2.82v-1.79Zm0-3.81h2.82v1.72h-2.82v-1.72Zm2.82,25h-2.82V384h2.82v1.78Zm5.28-1.1h-3.06v-4.08h3.06v4.08Zm-20.4-24.48h10.2V389.7l-10.2,0V360.15Zm-5.1,27.54h3.06m-8.16-7.14h3.06v4.08h-3.06v-4.08Zm0-6.12h3.06v4.08h-3.06v-4.08Zm0-6.12h3.06v4.08h-3.06v-4.08Zm0-5.1h3.06v3.06h-3.06v-3.06Zm0-6.12h4.08v2a1.24,1.24,0,0,0-1,1v1h-3.06v-4.08Zm0-6.12h8.16l-0.05,3.78h-3a1,1,0,0,0-.81.4l-4.27-.11V351Zm8.16-2h-8.16v-4.08h8.16v4.08Zm-0.05,17.43h-2.82v-1.79h2.82v1.79Zm0,3.88h-2.82v-1.79h2.82v1.79Zm0,3.87h-2.82v-1.78h2.82v1.78Zm0,3.88h-2.82V376.2h2.82V378Zm0,3.88h-2.82v-1.79h2.82v1.79Zm-0.84-23.19h-1.14v-1.83h1.14v1.83Zm-2,2.09h2.82v1.72h-2.82v-1.72Zm2.82,25h-2.82V384h2.82v1.78Zm24.53,4V344.85a1,1,0,1,0,0-2h-1v-6.12a1,1,0,0,0,0-2h-1V326.5a1,1,0,1,0,0-2h-1V321.4a1.22,1.22,0,0,0,1-1,1,1,0,0,0-1-1h-1v-2a1.15,1.15,0,0,0,1-1,1,1,0,0,0-1-1v-1c0-.07,0-1,0-1v-1a2.39,2.39,0,0,0-1.34-1.77v-7.34a1.18,1.18,0,0,0-1.19-1,1.08,1.08,0,0,0-1.15,1l0,7.41a2.55,2.55,0,0,0-1.44,1.77v1c0,0.07,0,1,0,1v1a1,1,0,0,0-1,1,1.15,1.15,0,0,0,1,1v2h-1a1,1,0,0,0-1,1,1.23,1.23,0,0,0,1,1v3.06h-1a1,1,0,1,0,0,2v8.16a1,1,0,1,0,0,2v6.12h-1a1,1,0,0,0,0,2v11.22h-10.2V344.85a1,1,0,1,0,0-2h-1v-6.12a1,1,0,0,0,0-2V326.5a1,1,0,0,0,0-2h-1V321.4a1.23,1.23,0,0,0,1-1,1,1,0,0,0-1-1h-1v-2a1.15,1.15,0,0,0,1-1,1,1,0,0,0-1-1v-1c0-.07,0-1,0-1v-1a3,3,0,0,0-1.44-2V303a1.07,1.07,0,0,0-1.11-1,1,1,0,0,0-1.06,1v7.14a3,3,0,0,0-1.49,2v2c0,0.07,0,1,0,1a1,1,0,0,0-1,1,1.15,1.15,0,0,0,1,1v2h-1a1,1,0,0,0-1,1,1.23,1.23,0,0,0,1,1v3.06h-1a1,1,0,0,0,0,2v8.16h-1a1,1,0,1,0,0,2v6.12h-1a1,1,0,0,0,0,2v44.77l12.2,0Q382.7,389.67,393.91,389.73Z" transform="translate(-113.37 -197.17)" style="fill:#414141"/><path d="M376.42,389.8a3.47,3.47,0,0,0-3.37-2.7,2.87,2.87,0,0,0-.82.1c0-.26.05-0.52,0.05-0.77a5.64,5.64,0,0,0-11.1-1.44,4.14,4.14,0,0,0-2.16-.59,4.24,4.24,0,0,0-4.22,4.22,4.19,4.19,0,0,0,.15,1.16h21.48v0Z" transform="translate(-113.37 -197.17)" style="fill:#d0fafc"/><path d="M402.7,389.9a3.47,3.47,0,0,0-3.37-2.7,2.87,2.87,0,0,0-.82.1c0-.26.05-0.52,0.05-0.77a5.64,5.64,0,0,0-11.1-1.44,4.14,4.14,0,0,0-2.16-.59,4.24,4.24,0,0,0-4.22,4.22,4.19,4.19,0,0,0,.15,1.16H402.7v0Z" transform="translate(-113.37 -197.17)" style="fill:#d0fafc"/><path d="M380.38,378.4a6.41,6.41,0,0,0-12-1.71,5.13,5.13,0,0,0,.55,10.23h11.14a4.28,4.28,0,0,0,4.27-4.29A4.21,4.21,0,0,0,380.38,378.4Z" transform="translate(-113.37 -197.17)" style="fill:#f8ffff"/><path d="M395.14,374.08a3.11,3.11,0,0,0-3.11,3.11,3.08,3.08,0,0,0,.07.65,2.67,2.67,0,0,0,1.56,4.83h6.81a2.37,2.37,0,0,0,.14-4.73,1.93,1.93,0,0,0-2.82-2.37A3.1,3.1,0,0,0,395.14,374.08Z" transform="translate(-113.37 -197.17)" style="fill:#fff"/><rect x="262.71" y="191.46" width="5.74" height="1.26" style="fill:#d0fafc"/><path d="M405,356.16a1.75,1.75,0,1,1,3.5,0V603.87a1.75,1.75,0,1,1-3.5,0V356.16Z" transform="translate(-113.37 -197.17)" style="fill:#414141"/><path d="M405,200.45a1.75,1.75,0,1,1,3.5,0V448.28a1.75,1.75,0,1,1-3.5,0V200.45Z" transform="translate(-113.37 -197.17)" style="fill:#414141"/><polygon points="308.87 77.47 307.77 73.63 330.98 73.63 334.11 77.45 308.87 77.47" style="fill:#dbc961"/><polygon points="306.48 69.1 327.28 69.1 330.52 73.07 307.61 73.07 306.48 69.1" style="fill:#dbc961"/><polygon points="296.56 34.41 295.31 30.04 298.89 34.41 296.56 34.41" style="fill:#dbc961"/><path d="M412.78,241.54l-1.27-4.42h4.09a0.28,0.28,0,1,0,0-.56h-4.25l-1.27-4.42h2.62l7.7,9.41h-7.62Z" transform="translate(-113.37 -197.17)" style="fill:#dbc961"/><polygon points="300.83 49.36 299.57 44.93 307.5 44.93 311.13 49.36 300.83 49.36" style="fill:#dbc961"/><polygon points="315.2 54.34 302.26 54.34 300.99 49.91 311.57 49.91 315.2 54.34" style="fill:#dbc961"/><polygon points="319.27 59.32 303.67 59.32 302.4 54.89 315.64 54.89 319.27 59.32" style="fill:#dbc961"/><path d="M427.19,261.75h9.76l3.25,4h-20.5l-1.14-4h5.76a0.28,0.28,0,1,0,0-.56H418.4L417.21,257H433.1l3.4,4.15h-9.3a0.28,0.28,0,0,0-.28.28A0.27,0.27,0,0,0,427.19,261.75Z" transform="translate(-113.37 -197.17)" style="fill:#dbc961"/><path d="M406.78,223.23l14.69,52.47h14.68Z" transform="translate(-113.37 -197.17)" style="fill:#c1ae52"/><polygon points="261.38 73.63 306.04 73.63 307.14 77.47 258.65 77.52 261.38 73.63" style="fill:#fff383"/><path d="M406.49,225.58l1.72,6h-5.33a0.28,0.28,0,0,0,0,.56h5.49l1.27,4.43H398.78Z" transform="translate(-113.37 -197.17)" style="fill:#fff383"/><polygon points="285.03 39.95 296.42 39.95 297.69 44.37 281.92 44.37 285.03 39.95" style="fill:#fff383"/><path d="M391.4,247.08h5.1a0.28,0.28,0,1,0,0-.56h-4.71l3.11-4.42h16.31l1.27,4.42H398.54a0.28,0.28,0,1,0,0,.56h14.1l1.27,4.42H388.29Z" transform="translate(-113.37 -197.17)" style="fill:#fff383"/><polygon points="274.53 54.89 300.68 54.89 301.95 59.32 271.43 59.32 274.53 54.89" style="fill:#fff383"/><polygon points="271.04 59.87 302.11 59.87 303.3 64.02 268.12 64.02 271.04 59.87" style="fill:#fff383"/><path d="M377.92,266.27h37.9a0.28,0.28,0,0,0,0-.56H378.31l2.78-4h35.73l2.42,8.49H375.14Z" transform="translate(-113.37 -197.17)" style="fill:#fff383"/><path d="M422.24,274.64l-1.1-3.84h23.21l3.13,3.83Zm-47.49-3.84h44.66l1.1,3.84-48.49,0Zm45.1-4.52h20.8l3.25,4H421Zm-9.91-34.7-1.25-4.37,3.58,4.37h-2.33Zm2.85,10-1.27-4.42h4.09a0.28,0.28,0,0,0,0-.56h-4.25l-1.27-4.42h2.62l7.7,9.41h-7.62Zm1.42,5-1.27-4.43h7.93l3.63,4.43H414.2Zm14.37,5H415.63l-1.27-4.42h10.58Zm4.07,5H417l-1.27-4.42H429Zm-26.15-30.91,1.72,6h-5.33a0.28,0.28,0,0,0,0,.56h5.49l1.27,4.43H398.78Zm-8.09,11.54h11.39l1.27,4.42H395.29Zm-7,10h5.1a0.28,0.28,0,1,0,0-.56h-4.71l3.11-4.42h16.31l1.27,4.42H398.54a0.28,0.28,0,1,0,0,.56h14.1l1.27,4.42H388.29Zm-3.5,5H414l1.27,4.42H384.79Zm-3.49,5h31.08l1.19,4.15H381.49Zm-6.48,9.23h37.9a0.28,0.28,0,0,0,0-.56H378.31l2.78-4h35.73l2.42,8.49H375.14Zm49.27-4.53h9.76l3.25,4h-20.5l-1.14-4h5.76a0.28,0.28,0,1,0,0-.56H418.4L417.21,257H433.1l3.4,4.15h-9.3a0.28,0.28,0,0,0-.28.28A0.27,0.27,0,0,0,427.19,261.75Zm-20.4-39.47L370,274.69h-5a0.83,0.83,0,1,0,0,1.66l90.67-.07a0.83,0.83,0,1,0,0-1.66h-6Z" transform="translate(-113.37 -197.17)" style="fill:#414141;stroke:#414141;stroke-miterlimit:10;stroke-width:0.5px"/><path d="M489.75,284.36H487.1a5.3,5.3,0,0,0-5.3,5.3,5.3,5.3,0,0,0-5.3-5.3h-2.64a2.65,2.65,0,0,1-2.65-2.65v4a6.62,6.62,0,0,0,6.62,6.62h1.32a1.33,1.33,0,0,1,1.32,1.32v2.2a7.06,7.06,0,0,1-7.06,7.06h-41v3.53A17.65,17.65,0,0,0,450,324.06h4.85a29.19,29.19,0,0,0,3.27-.19,14,14,0,0,0,9.53,3.72,9.92,9.92,0,0,1-5-4.62,28.25,28.25,0,0,0,20.47-27.15v-2.2a1.33,1.33,0,0,1,1.32-1.32h1.32a6.62,6.62,0,0,0,6.62-6.62v-4A2.65,2.65,0,0,1,489.75,284.36Z" transform="translate(-113.37 -197.17)" style="fill:#a4f9ff;stroke:#414141;stroke-linejoin:round;stroke-width:1.75px"/><path d="M467.69,327.59a14.12,14.12,0,0,1-14.12-14.12A14.12,14.12,0,0,0,467.69,327.59Z" transform="translate(-113.37 -197.17)" style="fill:none;stroke:#414141;stroke-linejoin:round;stroke-width:1.75px"/><path d="M454,317h-7.52a14.11,14.11,0,0,1-14.12-14.12v3.53A17.65,17.65,0,0,0,450,324.06h4.85a28.4,28.4,0,0,0,3.28-.19A14.06,14.06,0,0,1,454,317Z" transform="translate(-113.37 -197.17)" style="fill:#9aebed;stroke:#414141;stroke-linejoin:round;stroke-width:1.75px"/><path d="M467.69,317h-6.06a10,10,0,0,0,1,6,28.25,28.25,0,0,0,14.09-9.27A14,14,0,0,1,467.69,317Z" transform="translate(-113.37 -197.17)" style="fill:#fff;stroke:#414141;stroke-linejoin:round;stroke-width:2px"/><path d="M444.31,311.71a1.32,1.32,0,0,1-2.65,0,1.32,1.32,0,1,1,2.65,0" transform="translate(-113.37 -197.17)" style="fill:#fff;stroke:#414141;stroke-linejoin:round"/></svg>